<mxfile host="app.diagrams.net" modified="2024-09-03T08:59:52.479Z" agent="Mozilla/5.0 (Macintosh; Intel Mac OS X 10_15_7) AppleWebKit/537.36 (KHTML, like Gecko) Chrome/128.0.0.0 Safari/537.36" etag="wkVRSJ_7ecg4hUhj_fM8" version="24.3.1" type="device">
  <diagram name="Page-1" id="fV3QA-4mOjmdE7cARrBc">
    <mxGraphModel dx="5137" dy="2717" grid="1" gridSize="10" guides="1" tooltips="1" connect="1" arrows="1" fold="1" page="1" pageScale="1" pageWidth="850" pageHeight="1100" math="0" shadow="0">
      <root>
        <mxCell id="0" />
        <mxCell id="1" parent="0" />
        <mxCell id="HMdKM1Sp7y03wCbhgYr0-5" value="" style="shape=image;verticalLabelPosition=bottom;labelBackgroundColor=default;verticalAlign=top;aspect=fixed;imageAspect=0;image=data:image/png,iVBORw0KGgoAAAANSUhEUgAAAgAAAAIACAYAAAD0eNT6AAAAAXNSR0IArs4c6QAAAERlWElmTU0AKgAAAAgAAYdpAAQAAAABAAAAGgAAAAAAA6ABAAMAAAABAAEAAKACAAQAAAABAAACAKADAAQAAAABAAACAAAAAAAL+LWFAABAAElEQVR4Ae29C5hd1XXnefa9pSq9QQ+EcGwhxy+ChnG7Q/I5iuIgARMkg9MmI3e3H5gGWYQGOWM17umZ7p5R9zffTNIxfgjIyLQUE8sed0OcieNuFAMBOSH+3J1225Mgxzb2WJY8Nggk0KMk1eOePetUqaSq0q2qe87a56y76/zux0X3njpr7//67X32Xnftfc9NEh4QgAAEIAABCEAAAhCAAAQgAAEIQAACEIAABCAAAQhAAAIQgAAEIAABCEAAAhCAAAQgAAEIQAACEIAABCAAAQhAAAIQgAAEIAABCEAAAhCAAAQgAAEIQAACEIAABCAAAQhAAAIQgAAEIAABCEAAAhCAAAQgAAEIQAACEIAABCAAAQhAAAIQgAAEIAABCEAAAhCAAAQgAAEIQAACEIAABCAAAQhAAAIQgAAEIAABCEwm4CYfiOn9yc2bL5sz1HhbmjbfnLjkKp/4t4hDKxKfLJT3S8SXBfLsjckntEIAAhDoIgL9MqYe9D55suka/7bvS5//dhdpQ4qSQFQBgN+8ed7pwZ4bnE82JM5tEN+vkWdUPijbC3MIQAACVgRaMtr+n/PmDP0T99hjg1YiqDccga6fPL1M8Gff9d5fSZPGbYnzm8X1xeHcpyQIQAACEMhDQCaN/fN6B2+RIOBUHjvO7T4CXRsA+I0b+073LrtdkH00Sfwbug8diiAAAQjUlIB3z87vG9hIEBB3+3ddAJCl+c8Mzv1N7/x9gvY1ceNFPQQgAIFZS+DZ+XMIAmJu3a4KAPrf/b6bE+92CtDXxwwV7RCAAARqQuBrp9Pemy77k98/WRN/Z5WbXREAnLnltlVp02cT/6/PKro4AwEIQGD2E5BMwFmWAyJsZ/MAoP9dH3yXb/jPCLulEfJDMgQgAIHaE5CJRDIBPWQCIusJZgGAv+66nv4lq/43+c7+PxVmZjoiay/kQgACEOhKAgQBXdks04oymXhffed7l8zpmfNl75JfnlYdf4QABCAAgWgIyITybP+c0xtX8BXBKNqs8gCg/9b3X+HTxj750P/WKAghEgIQgAAEOibgEs9yQMe0bE+sNAA4/hu3v6mZJk+Ky1fauk3tEIAABCBQFgEJAp7t71kgmYDf42ZBZUEOUG5lAUD/u+54jW/6v5Q7+60OoJsiIAABCECgmwm45Gtnhx0bA7u4jRpVaDu2eesl8jW/x5n8q6BNHRCAAAS6gIBP1s7t8X/60rvuWNQFapDQhkDpGQC5s1/vqeFFT0vdbPhr0wAcggAEIDDLCTx7pmcuywFd2MilBwAn333Hp2TD34e70HckQQACEIBAFQScl+WAhOWAKljnqKPUAODErXe823n3RdFTaj1S/otyP4H9ruG/nrjm36Zp8sN0sOelS+a/3K/52cqTf++O35CfHf7DHDyLnor+ouSwgwAEChM4+e47ZWW2sodkAvrIBFSGe+aKSpuYZd1/Vc9w+i2RsGRmGYXOOCY99wuJ959d/Md7/kocCdqR+2/dekXLp38typYXUjezEfpnZsQZEIBAiQROvHtL0HFzZqn+2bMEATNjquiMnrLq6UnTnfK5v4zJ/yfe+4+dWTj48Mq9e/vL0t9K0t2iv4zJH/1lNRrlQgAC+QiU9hFwKhlu3dzWwL4jm/8xmYCpEFV4vJTmP/7uu25yLpWb/QR9DDvnf+/sUPovyv7lqRO3fujdovyPgqpPEvQHBkpxEICAjoCMdRVnAM7r/drAcIs9Aedx2LwIHgD4zR+Zd7LVf0DceX1Al55vusbfX/DFXd8MWGbbovzGbX0n5w1k+t/Q9oRiB9FfjBtWEIBAiQRO3LrVKgDIvHr2bLOHTECJ7TtT0cHvA3BiuP83pdJwk7/zXxqa13dtFZN/Buvk3LPb5J9wkz/6M6w8IAABCEwmIMsBw9lywMLJf+B9NQSCZgCyT8/H5w3+QAr9mSDyvfuDxa+s3OL27xgOUt4Mhfjbb5974kTf/yunXTHDqZ39Gf2dceIsCEDAhMDxW++yzACc89l9bXB4kOUAgx4QdBPg8XlDt4ea/H3idl/yf+/aKuVV1kFl8r9D2iDI5I9+g95MlRCAQIQE/NrenjmPszGw+qYLtgQgs7STyfqjo1/5l1cjX/0v+K9zX7qkefQ3q5z8M/3y3z9R6R7zGf3V92RqhAAEChAoOEaPjXXh/l3X1/IsBxRoQY1JsADg1Oa73yEhwBtGwoAsFCj+/P7w3Dm3yQ18WhrH8tq+eus/vk40/6xC95jP6M8Ln/MhAAEbAsXH6bHxLuC/ybq+1H+F3w6orisECwBaafKBALKH0sS/Z9nnHzgRoKxcRTQSf3sug/Yno789F45CAAIQ6ISALAf0ZcsBbAzshJbynCABwGH56p+EgZtl3VsW7DXP5JNLKviq32RmmX7v3G/otGd+o38yW95DAALdS0A75iXePast4yJ752Q5IGE5oIJuEyQAWJAO3CBaF2v0SibqJ4MN9681ZRS1XZwOrhfbBUXtMzv0a+hhCwEIxEhgoJlsdD55NrR272Q5gCAgNNaLygsSADSd2yBToBRe/Jn65GMrHvu9UxcprOCA9+6dGu2ZLforaCiqgAAEAhMoPmZn4142Zp9ZMP8meb1fO4ZOtpes7Lo5qWNPQOAWH19ckADA+4Y2ADg2MH/+w+OFVfraJf/d5M6X8z36K20wKoMABMIQ0AUAmYaVez/WP9jwtzjfkEyAtryJ9i5xsidgAXsCwjT2RaWoA4CTm7dd5hN/TfZl/eJP94WsE12kroIDxzd/ZKnofkNx7Znf6K+gqagCAhAITEA37l0Qk2UCBpqtjZJNlT0BmrngYtvU+XVzWk32BFzAHeyVOgBo+eRtsgAugZpEbgWfjUby2WAe5SzIJ4M/j347/jmbi9MhAIGQBAqO2efH+nFasiBgSIIA+duz5/+uLX/MvpGsm+MJAsbhDvJSHQDIp9+3KNM+Ly5+7IG/CuJNkUJ84++i35B/kTbDBgIQCERgYso9/1g4UcZIEOAkCEgkCAi8HCDlSRDQQyZgInLVO3UAILVLAFD8Id3vGXlmWSOTR6r84R/0mzQblUIAAl1KYGQ5YF6vbAz0+0uQmAUBsjHwny4qoezaFRkgAHBv1kR6Pmn8J1PqrrEK/aYtQOUQgIAZgbAZgDE3sj1dQ651i4ytZWQC1vb0DrAxcAy24l91ACAf3VdqNn2kLv2OQr/e1CdXol+PkRIgAIH4CGjGvsx2usfocsDQRjkv+MZAKXNdj5/DcsB0DdDB39QBgNwJSlIxxaPIZsM/34HOEk9xl6C/RLwUDQEIdDGB4mP36Lg5vWtZEDDshkrbE9DjewkCpm+Caf+qDwCckzsAFu9ELu15ZVqFpf/RyR0A0V86ZiqAAAS6kEDxsa+TACBzOAsCBuf1lHKzINEgmYA+9gQU7FkBAoBkoWL+lPsHX2Jy97/zvFwyH/3nafACAhCoE4Hy5/8RmiM3C5rXvFnG2v2a8XYK27XNvqE/ZWNg/o6rDwAS16v6BP3YjsH8skNauB70h+RJWRCAQDwEKooABMhIEDBXgoBEgoApZnLFcQkChgkCcnY8dQBQ5iaSnL4UOh39hbBhBAEIzAICVY9/F4IAv19bdxv7tQ2CgFy9Uh0AKCI2EZpFn9aP6iLgcjyNXX85VCgVAhDohED148dYECC3j92vnz8u0i9BQItMQCdNL+cQAKhTUR2SLu20iy4AqSnPsdKEUTAEIND1BPKMFe3OLebgaBDgbi4vCEgJAjpomgABQAe1cAoEIAABCEBgHIHRICCRICDbExD8IZkAgoCZqAYIANpFhXmOzSSx7L/n0dru3LL1zVR+O015js1UPn+HAARmL4E8Y0W7c3VkLgQBZS0HEARM10LqAMDLrzVpntOJq+JvGu2ZrfUjdv3W/KgfAnUm0A3jx2gQ4G+WTX37tXoutm+sdX0JywFTdHJ1ADBFuRyGAAQgAAEIdEQgCwKG5/qbE1/CDwi5hCBgilYIEAC0SwvlOTaFssoO59Ha7tzKhE5RUTtNeY5NUSyHIQCBGhDIM1a0OzccogtBQAnLAc5JEODIBExqrgABwKQSeQsBCEAAAhAoQGA0CGhJJqCEjYEjmQCCgPHNEiAAaBcV5jk2Xo7F6zxa251roXl8ne005Tk2vixeQwAC9SKQZ6xod254WheCgLIyAQ0yAeeaTR0AePnOueYZvvvkK1GjPbO1fsSu35of9UOgzgS6dfwYDQKGb/beyR0DdXPMRfYjywEEAVm/VwcAdb548B0CEIAABMohkAUBrblDpSwHyLcFZE8AQYA+AMi+Cqd5ltN3Oi9Vo70LvgaoYt8N+jtvKc6EAARCE+jy8e98EDDyK4LKuWaSr74hXxGc11Pr5QB9ABC6Q1IeBCAAAQhA4ByBkSCgVzIBSfivCMq9B2odBAQIANptDMlzzLqf59Ha7lz0WxOgfghAoCiBdmNanmNF681ndyEICL8xUPYISBAwp5aZAHUAcNEGi5wbNvJ1g/Bnoz88U0qEAATiIBDT+DcaBAzIHQPDbwxMJQjw83prFwSoA4A4ujkqIQABCEAgdgJZEJD2npXlgBLuEyDLAXULAgIEAHnSRe3Ote6S7TTlOYZ+awLUDwEIFCWQZ6xrd27ReovbXQgCwi8HyI52CQLm1iYTECAAKN6QWEIAAhCAAATyEhgNAs6UlAnwtQkC1AHAxb++lO/XAfM2fOjz0R+aKOVBAAKxEIh5/DsfBMhXBLV+XGyfrE3nz/5MgDoAkJSJ9HXN0/pS0WjPbK0fseu35kf9EKgzgbjHj5EgYM6Zm51sDNTNQ205SBAwb1YvBwQIAOp88eA7BCAAAQhYEhgNAvolCChnY+BsDgICBABtIyfpD50et+w6Wd2d6pzqPPRbE6B+CECgKIGpxrVOjxetN6zdaBCwsMRMwHzJBPzOorCq7UsjACAAsO+FKIAABIwIdDrRT3Wekew21a7c+9H+dM4CCQIa+/Uf7C7yV5YDzs66IEAdAMitFOXXAIs/27RjpYc02jNb60fs+q35UT8E6kxgto0fo0HAvHM3Cyo+L03BZW1rlgUB6gBAH2lZX34XRXoiKM8x9FsToH4IQKAogTxjXbtzi9Zbnl0WBCRz5slXBMvZGDibggB9ANCuT+Q5Vl4/6KzkPFrbndtZLeWd1U5TnmPlKaNkCECg2wnkGSvandul/p0PAkZ+RVBEttNe+Jhb21ogywF3xL8nQB8AqMla96DCveBcr0K/NQHqhwAEihKIffyb2u+RIKCnrExAY23rzGD0QQABAAHM1FcQf4EABGY5gdkbAGQNNxoEzC1vOeDMUNRBgDoAmGKzRMcbA62vLvRbtwD1QwACVgRiH/864TYaBPTJxkC5Y6AYBH6uHYo4CFAHAPrFlU6asMxzYo+AY9dfZttSNgQgMD2BeowfWRDgevokExD+K4JyF0IJAoajzAQECACm7178FQIQgAAEupbAoEbZgc07ejX2VdqOBgFzzi0HhK1Zwqgog4AAAUDsEST6w14KlAYBCMRDwJ3SZHEXJ8nCeHwd3RPgesaCAO3YP9F+NBOQRpUJIABgE2BM1y9aIQCBoATcCU0A0NfXtzSonAoKyzIBzeHBW8TvZzW+t7OVkGDt8Jn08SObd0QRGKkDAC8ea54VtPe0VWi0Z7bWj9j1W/OjfgjUmYBsiDulGUOGW8kbY+S34rEdp1xPz00jGwOVc1gbfuuGe/u+EsN9AtQBQLsoKN8x6+6TzeKaJ/qtCVA/BCBQkIBzP1WNf43GVQVrNjfLMgE9wwOlZALkU/HaobO+6zMBBACqyb8LUgDR6zcfBxAAgdoS8Enje5oAwPnk7THDyzIBjWbzpsSH/3aAcJVMwLyuzgQECABibn60QwACEKgxAZ98V+O9pNDX+5FFYE0ptrZZJqDR424WN/YHV+Ll2wEDSdduDAwQAGjS53yC1ne42PnrCVACBCBQlID/jiYDILYrXvwHH/vForV3i93ocsBpWQ5oBN8YOLoc0OjK5QB1AKC9q5J1B0C/dQtQPwQgYEXAJc1vyhiYasbBVjO5zUp/yHqz5YCeof6NXr4doOHR3tavG5qzYF+3fTtAHQAoo8eQ7VewrNg/Qceuv2CzYQYBCKgJvOYL970sn1D/RjWO++QfHNn8UBRfe5sJWBYEzBmav1F4hM8EJMm5IKB7WOkDACcTkOY5U4uU/XeN9szW+hG7fmt+1A+BmhNwTfe0agx3bulg39mtswXjisfuOdVsJjc5J3sCtOPrxfbrhnrPdM3GQH0AMFtaHT8gAAEI1JBA6iUAUD4a3t83W7IAGYqRPQGD826RL1lJJiD4Y+3gYFP2BNhnAtQBgKyXyK8rFX8GR5uzQI32zNb6Ebt+a37UD4G6Exiac/IpGUde1YwlaeKuGOg7+7/OJpYjmQDn5WZBDfkVweJzXFtb79YN9p41zwSoA4DZ1OD4AgEIQKBuBF7/yI6z8n3+P9T6LWX8Dz9578d+XltON9lnmYDewb7SMgEDgz2mmYAAAUDsm9DQ300XHFogAIHqCbSS5l7VRsCRbKjrSRvNf/+Dzb99SfUelFdjlgnocelNwmd/AEYidNycM5IJGDDLBBAAjG+MQq/L63idlTyuM0WpvzMvOQsCECiPwOv+r9/6C5mYvj9hcioynvjkDfIDQXv9dTt6ylNbfckXMgFlfDvArR0Y7DXJBAQIAKpvDGqEAAQgAIFwBOSnbOWGfsnvBinRJ7f8+LWLd8V+h8DJLLJMQO9A70aJi8JvDPTJusG+QblPQLUbA9UBgJevOWiekyFX/V6jPbO1fsSu35of9UMAAqMEXlg4/zMynhzSjimj42LjzsPv/9Qjsy0TMLocMHyT+Lg/BKcJZchvBwz0DVW6HKAOALh4IAABCEAgfgLXPnzXkCwBfDyUJ/Lx6LbDr13yR7NtT0C2HNA3MOcW8S98JiBJZDmgr7LlgAABQOxr0OgPdcFTDgQgEDeB4Z7Fn5Yg4AfqvQDn9g/I6HpLb9+8b/zovZ+aVd8OGF0OmLNRlk4kCNDOIRPt5WuDshwwXMlyAAGAuvGsL/iJnSd/Z7TWT/0QgEC3EHj9I//orHeNe/KPI9OOQ29oNNzXD79v56eef9/Oxd3iq1bH6HLAYCnfDsiCgIG+VunLAQECAC1G7CEAAQhAoFsIrNq77SuyIfCPAuvpkc9aH57rku8eev+nZs1dA0eXA5olLgfMK3U5QB0AtL3LkbR0p8cDd7LcxXWqc6rzclcY2GAqXZ0eDyyH4iAAgVlAQD7P/5ZsUDvW6TiS47yV8pO7v3u2Lz106P0PPPTj2x78pdi/LTC6HNCUXxFM5FcEO5/7OjlX7rC47mxfq7TlgCxvo3ocev+D2a8fFn6s+ty9ag2FKxdD9Nvy17QdthCAQHkEfvSBh25x3n9Jaih7jH5J1tLldrv+6/LFqu80fOMHrtU82r984OSbHvjwQHkehi05+wrf2T6/T0pdF7bkkdKenTvgNmbBRsiy9TdrKLtrhPS2XVnob0fF7Njh9z1wTdJwWySqvF5ErJbnAjMxVJwR6JfnQflltKe8b+xetffu58BSDwJX7r3ny/IB6RMy/W8v2ePLZPLfLHVszj5NtlyaJD1p0vdqIzn0gQdLrjpc8Wcl713iY93ZuT7LBAQNAvQBQOnBYYlIR4omAiibcCflP79tZ1/f8Z5PeO/vkvPVS1Od1Mk5HRHIArA13idrkiS9VwbkXSfPrti+5rH3DHZkzUlREzgyf84/W3F6+FoZ5t8RtSOzQ7wEAUnQIICBdnZ0jKi9yCb/3leb+xLv7xZH6JPd25pNyQbfs3jukX0HNj/a270yURaKQHZvgFbP4K9LeX8dqkzKURHIgoD/EOr6Uw+2nWxkmO4cFYoAxtNp6+RvASSoiuhE43TnqCoPZNz7as8nZWJZP51O/hZ2c5GGZ5o0Niya99L9gZqfYrqcwOsf+ciryVAqm9zcQU2/wTbYNfyroa4/dQCg/76ode/PlgA0T/RrCBx+36evEf5bdW2gaT9si7CX/QB3/+iDD8qyAI86EFj177b9pOH9jdJXDhbpL9iEHWdCXX8BAoA6dH98LItA2ki3SNn0w7IAl1du06fNO8srnpK7jcDrPnfP99Nm+kvy4y/f6jZtNdTTTNKebOxUPQIMvNrIRqU/gDH6A0BUFOFu4NOBtg/a2MtXt+QTIY86EXj9I/e8kPb0rZcg4M+5bm2uuwvcE/X1pw8AtAysrx7027aAS1apVmC07Yf9hfEkP4srbTsPtVsQkNsFv7rqxy9cL78g/K/k2pV71YgKnhYM1Nef+muA2caOmB/ot2094V/ql2dtvZv1tdN2s76J2zvo9u8Ylr/s+NEHdn1D7hj4iLxe2v5MjpZIYKG2bH0GQB36aV3Q2mtDV239WvvI9Tt32CJ0pk5tvxkJ/A9pey/2cRO4cu9vfrmn1XirLAl8kWsqxDWVtwxd/wkQAOgEYF1vAnKDmSfrTSBm790TMatHexgCr/38h368eu/W/16CgOzund8JUyqlVEEgQACQN2KZfH4Vbk5Xx2Q9ed9PV3YVf8urd/L5VWicuo6m3F5WPjm0+PQwuV26/n3LtXr2TN2y/KVuBFbv/dDTvjHnbdJzPywbRMnsqbPjnYwBul5GAKBuJF0D6K076STTnaNXoClh1d4tzyWusYsAYLo26r6/yfeQH7ry83d8W9P22M4+ArJB8OyVn936wKkzl7xRrukPyfN7XNtlXr+6PhRgE6BOgLV17LuYYteftX//6UXb5807cZVcJlkKkUeXE5D7mT11dF7rvi6XiTxDAud+K2K3/MjPnkMf3LM2Td1tst/3PSLpUkNZVD2JgDoASOT3G6N+oN+8+bLBQu5tvWnB/FP3y4CR/R5A01wUAtoRkKWa5KGX+1r3ZfeIb3cCxyAwnoAsBfjkD5K/lGN/+cPbP/NbLk3Xy5yxQa7zDXLs78gzQBZ6fI28zkNAHwDkqY1zITAFgXOfGLb96IMP75J7zd8pA0d2k4vVkuFQf9Vliio53AEBCe+z3x8/mLrkiaZze678DGn/DrBxShsC2fKAHN537pkcvnP30nQ4eZtc729OEn+VrMa+RX5Rd4X8/ZJzz0XyLz86JRDKegQIACLPAIzsASgLbxXlxs5/IqMr/2DrATlS9u+PT6yUdxCAQOUEXrdnyzGp9M/OPSuvvxsq/OEHf990FVcdAHAjHdtuFDt/W3rUDgEIQMCOgPX4zfqLXdtTMwQgAAEIQMCMgDoDMPoVDzP9ASqOPYUeu/4ATUgREIAABKIkYDt+kwGIstMgGgIQgAAEIKAjoM8A8DU6XQtorWPnr/UfewhAAAKxEjAev9UBgPUmBm27o19LEHsIQAACEChCwHr+YQmgSKthAwEIQAACEIicgDoDwCZA6x5gu4nE2nvqhwAEIBAvAdvxmwxAvD0H5RCAAAQgAIHCBMgAcCfAwp0HQwhAAAIQ0BCwzQCoAwDrTQwa9Jkt+rUEsYcABCAAgSIErOcfdQDAB+gizR7QxjaADOgIRUEAAhCoGQHj8VsfABABGPdY4x5k7D3VQwACEIiXgO34TQBAABPvtYNyCEAAAlETsA0A+BZA1J0H8RCAAAQgAIFiBNQZAOtNDMXcvmCF/gsseAUBCEAAAtURsJ5/yABU19bUBAEIQAACEOgaAuoMAHcCtG5L2zUka++pHwIQgEC8BGzHb30AYPxrRuqGR78aIQVAAAIQgEABAsbzD0sABdoMEwhAAAIQgEDsBNQZAOtNDNoGQL+WIPYQgAAEIFCEgPX8QwagSKthAwEIQAACEIicgDoDwCZA6x5gu4nE2nvqhwAEIBAvAdvxmwCAOwHGe+2gHAIQgEDUBGwDAJYAou48iIcABCAAAQgUI6DOAHjjrzEUc/uCFfovsOAVBCAAAQhUR8B6/lEHAOwBqK6ztK/JNoXUXhNHIQABCEBgZgK24zdLADO3EGdAAAIQgAAEZh0BMgBsApx1nRqHIAABCMRBwDYDoA4AfByUp1SJ/inR8AcIQAACECiRgPX8ow4A2ANQYu/oqGjbCLIjiZwEAQhAAAJtCNiO3wQALAG06ZR2h/729j++xjUaW+TLJddLdLxalCywUxOk5n65xA/KLT+fShO3++o9Nz8XpNQpCpmF/KbwlMMQ6IhApddfR4omnBR9ADDBG95AoBCB57c93tc63fpEkvi7pICGdWqskBPtjRaIL2vErzWNxN/7t3d8aVd6cmD7msfeM9j+9GJHZzG/YkCwgsAogUquv1hh6zMAkd8HIEG/ed8dmbzOtvZJMmZ9/EtK0+JsOufuaV4y7+cObH50Y6ggoEb8poXLHyEwA4FSrr8Z6pz+z8bzjzoAiP2TGvqn759V/HXoTOuTkgiTyb82jw2NS+fdL95uC+FxDfmFwEYZ9SUQ9PrTYLSefwLcByBbw9A8NfhC2Gq0Z7bWj7j1/+3W/3iNS9xWXR/SMjCw9+7uAx/6E1ka0D1qy0815hi0N3qlo3cR90DXn+7qzay1THQK1BmAUQd0ImytswaI+RG5/jTZIn0oQCAaXRs2G0nzTlG9XaW8vvxU2DCuPYEw158ao+34XceBV91kFBCQgEtuCFhaXEX55Ea14DrzU8OjgFoTCHH9RQ6QDMBICibmVrSNINXkvFulLiPeAq5US683PzU+Cqg1Af31p8ZnO36rAwDrTQxa/ujXEtTZC//Ym6A4AKf3vdb8ipPHEgLZ6rX52GMtQB0A8DU64yvJ+Gskau+dOyxlXK0uJ8YCnD+kll1nfmp4FFBrAiGuPy1A4/FbHwCQQtd2AaW9bQpJKV7M3ZPyv1oGAN67J+CnJ0AJEChCIMz1V6Tm8Ta24zebAMe3Ba+rJ5C63VJpq/qKzWtsJY10j1pFffmp0VFArQmEuf4iRxggAMgiGM3TmqBGu230Nkoubv1X7/m156T77NL1IS2D6u2ddw+t+fSmb2t7f1351a2/4G/YazTU9ae9fvXtqlOgXgKQHznRKTC2Rr9xA0j1/pUT25NLLr1KutL19mqqUOCfOt1Ydl+omurHLxQ5yqkngbDXn4ah9fwTIAOgcR9bCMgv5WQ/jHP81U3C4kF5zublgJbsO955xi3bdO3D1w6Favsa8QuFjHLqSaCU6y9mlOoMwGgKI2YEcWcw4uc/2nfO/TDOtgMfenqXS1p3eic3yfHJavnrwph7l2g/JZmNg4n3TySNxp41n75BnfZvx2MW82vnLscg0CmBSq6/TsVcfJ7t/KMPAGz1X8wz7xH05yVW6vlr/u2GA1KB7va4pSrs7sLh193tgzoITCBgPP/oA4DI9wDE/wnauAdN6M28gQAEIACBzgnYjt/qAMB6E0PnoNufif72XDgKAQhAAALlErCef9gEWG77UjoEIAABCECgKwmoMwCk0K3b1TaFZO099UMAAhCIl4Dt+E0GIN6eg3IIQAACEIBAYQJkANjEWLjzYAgBCEAAAhoCthkAdQDgjX/NSIM+s0W/liD2EIAABCBQhID1/MMSQJFWwwYCEIAABCAQOQF1BoBNgNY9wDaFZO099UMAAhCIl4Dt+E0AwB6AeK8dlEMAAhCImkDkAYCPGr7sAUB/5ASQDwEIQCBOAtbzDxkAMgBxXjmohgAEIBA9AdsMAJsAo+9AOAABCEAAAhDIT0CfAYj8a4AJ+vP3GiwgAAEIQEBPwHj+0QcApND1nUBVgm0KSSUdYwhAAAK1JmA7fqsDAOtNDNq+g34tQewhAAEIQKAIAev5Rx0AcB+AIs0e0sY2ggzpCWVBAAIQqBcB2/GbTYD16m14CwEIQAACEBghQAaAPQxcChCAAAQgYELANgNAAEAAYNLtqRQCEIAABCIPALytfnX/Qb8aIQVAAAIQgEABAtbzDxkAMgAFui0mEIAABCCgJ2D7CZpNgPoWpAQIQAACEIBAdATIAJABiK7TIhgCEIDA7CBgmwEgACAAmB3XEV5AAAIQiI5A5AGA9Z2MtO2Nfi1B7CEAAQhAoAgB6/mHDAAZgCL9FhsIQAACEFATiDwDwK/pqXuArgDjX5PSiccaAhCAQI0JGI/ffAugxn0P1yEAAQhAoL4EWAJgCaC+vR/PIQABCJgSiHwJwHoTg7bt0K8liD0EIAABCBQhYD3/kAEgA1Ck35Zm81/u/etrGmm6JUn89VLJankuKK0yCobAzAT65ZSDMlA/1ZM2dr9111ufm9mk+Bn0/+LsprCstP2m0DDN4cgzAAkT6DSNW8WfbDtQKA+f3/Z838nhU59I0vQuKVP2pswOv0LxoRwzAlkAukZ645pWw9/7zXu+tav3yJztax5bMxhSEf0/JM0JZVXSfhNqzPXGdpxjE2CuxuLkMghkg9+JVv8++UbJ3VI+fbIMyJQZgkDT++SegRVD+w5sPtAbosCsDPp/KJIzllNK+81YaxefoF8CMP4ag5ot+tUItQWcbJ3+pHNuvbYc7CFQEYENA5cP3S91bQtRH/0/BMVcZQRtv1w1Tz7ZeP5Rf9rKNjFonpN5VP1eoz2ztX7Erj9b85SfxNyq9QN73XUIv5z8vLv7W/d8a432+qf/5+QuwIP01UDtp21/rS/a+vUZgOjXam3XYLQNGPtaecP7LT5x6kBUz5ESIJCLQLPl3J1isT2X1aST6f+TgFT3Nkj76eXazj8EAAQw+j6sKMEnjRsU5phCwJLAjdrK6f9agip7dfupah8xtg0A+OSlb0FK0BFYpTPHGgJGBHxyZYCa6f8BIBYqIkz7Faq6W4zUGQBJ33aLL4V0oL8QtmBGwj9bBuMBgRgJqPsu/d+02dXtp1VvPf+oA4DY16DRr+3CWnt3WEq4WlsK9hConIBLDunrpP/rGRYsIUj7Faz7vJntB2h9AGCr/zzGwi/QXxhdEEOXPCnlEAAEgUkhlRJwyRPq+uj/aoSFCwjRfoUrP2doPP/oA4DIlwDIAGh7sM7eN9xulyb3SilNXUlYQ6BSAq1G4vdoa6T/awkWtg/SfoVrP29oGwGwCfB8Q/DCgsAv7Lz6ObkPwC6LuqkTAoUJePfQ331gzbcL258zpP9rCRa0D9R+BWvvGjN1BsB6E4OWJPq1BPX285f57aePNq9K/MgPAOkLpAQIlEvgKTfUf1+oKuj/oUh2XE7Q9uu41jYnWs8/ATIAWQpD82xDpdJDGu226ZtRTLHrl19Z2bFmcP6y1ib5GYAHpS+1dP1JywN7+E/ZB1reu51usH/TtQ9fOxRqmKL/T8lbEAf9Wyntp+sHWv90taszALrqsYbAKIFsEJRX2/7zPQd2OdeQO6y57CYdq+W5UJ48IGBF4JRUfFC+rfpEK+nZ8/YH36RO+7dzhP7fjkqQY5W0XxClBoUECACyCCbmB/q7qfV+8aE1B0SP6vaq3eQPWiCQhwD9Pw+t2XCu7fyjDwBs9et7APr1DCkBAhCAAATyEzCef9QBgPUmhvzEJ1qgfyIP3kEAAhCAQDUErOcfdQAwukmjGljl1GIcgqmdil2/GgAFQAACEIiUgO34HeBbAJFyRzYEIAABCECgxgTIAHAnwxp3f1yHAAQgYEmADIAlfeqGAAQgAAEI1JKAOgNgvYlB22ro1xLEHgIQgAAEihCwnn/UAQCbAIs0e0gb2xRSSE8oCwIQgEC9CNiO3/oAwFa/vq+gX8+QEiAAAQhAID8B4/lHHwCwiS5/owe1MO5BQX2hMAhAAAJ1ImA7fhMAEMDU6WrDVwhAAAJdRCDyAMB3EcoiUtBfhBo2EIAABCCgJWA9/5ABIAOg7cPYQwACEIBAIQK2GQDuBFio0TCCAAQgAAEIxE2ADAAZgLh7MOohAAEIREvANgOgDwCcrQPqdke/GiEFQAACEIBAAQLG8486ALDexFAA+QQT9E/AwRsIQAACEKiIgPX8ow4AuBNgRT1lymoiz8BM6Rd/gAAEIDDbCdiO32wCnO39C/8gAAEIQAACbQiQAWATYJtuwSEIQAACECifgG0GQB0AWP+akbaB0K8liD0EIAABCBQhYD3/sARQpNWwgQAEIAABCEROQJ0BSIy/xqDmj341QgqAAAQgAIECBIznH30AwBp6gVYPaWK7hhTSE8qCAAQgUC8CtuM3SwD16m14CwEIQAACEBghoM4AWG9i0LYj+rUEsYcABCAAgSIErOcfMgBFWg0bCEAAAhCAQOQE1BkA7gRo3QNs15Csvad+CEAAAvESsB2/CQDYxBjvtYNyCEAAAlETiD0AsNWvb3r06xlSAgQgAAEI5CdgPP+oMwDWmxjyE59ogf6JPHgHAQhAAALVELCef9QBQDWYqKUuBL72kWPXtJJ0iwTG14vPq+W5oC6+d6mf/aLroLTHU0mrsfuXdy59rkydtH+ZdGtZdqX9NzbCAQIA4xyGmjj61QgDFPD4Nt+3uHn0E2ni73KJ49spAZgGKiILwNbI75avSZr+3me3H9u1ZPGS7Wt2uMFA5Y8UQ/uHpElZ4whU0n/H1Zfzpe38ow4AvK3+nLAvPh39FzOp+kg2+C+a88o+SYetr7pu6stFoJkk/p5Xjh/7uQM7/MZQQQDtn6sNOLk4gVL6b3E5cjUZz5/6AEDjfRfYyiebqB+x68/gL+w9+knvmfxj6YgyaG04euKV+0XvthCaaf8QFCmjUwKh+2+n9bY7z3r8VqdaMwc0z3ZQqjym0W7deBmn2PV/Vdb8ZfLfqvUDe31fyMfQ3/3sR46u0V6rtH/V7UZ9o/08TP/V9v9819zFbaetX58BME5haAFYp2DQ77fIrRjUgaiWI/a5CTSHXXKnWG3PbTnOwDvafxwOXlZHIEj/1cq1nn/0AYCWgLF9FoHF/Ihdv0z+N0TvQ8wdSKf9Rp25WNP+aoQUUJiAvv8WrnrU0Hrs0wcAZACUXUBnbh1B6tQnSeqSVdoysDcjcKW2ZtpfSxB7BQF1/1XUPWJqPX6rA4BUS8DYHv22DSD8rYNgWwBx165uO9o/7g4QuXp1/9X6bz3/qAMA6whG2wDo1xLU2Qv/w1LC1bpSsDYicEhbL+2vJYi9goC6/yrqHjG1nn/0AYCWgLG9eQio9H8W6H9SEBAAKPuBiblLntDWK/2X9tdCxL4YgQD9t1jFF6ysx299AMAegAutafDKOoLUuixfAdydNPy9Uo7cpINHRARarVayR6uX9tcSxL4ggSD9t2Dd582sx2/116+yCEbzPE/C6IVGu3X0liGLXf+vfWzpczIJ7NL6gb2+L+RhKF3voU33L/u29rKl/atttzxtPJvPDdV/tf1fy1hbPxkAMhjaPqS2P7FgyfZFZ45dJQVdry6MAqog8NTyV5beF6oi2j8UScrpkEDQ/tthnW1PIwPQFkt1B60jMK2nsevP/H+P/LDMyXlLN3nnHhR/WlqfsC/tU2VLvra387JXlm669mE3pO27Y/a0f2ntpc4QzrJrqZT+O9aPi/yr5VukzvE2ZADIAIzvD2avs0lAKt/2p//j0V2t0TvM3SgXx2ppnoVmoqg4m0BOSRsclBdPyG807nnn/6FP+7fDSvu3o8IxLYGq+m9RndYZAH0AUNTzLrHLIrCYH7Hrn8z+pt9ZdkCOqW4vO7lM3sdDgPaPp61QqidgPX7rAwA+Qet7gaIE6whSIR1TCEAAArUmYD1+6wOAyJvPOgLT4otdv9Z/7CEAAQjESsB6/NYHAGQATPuedQRp6jyVQwACEIiYgPX4rQ8AIoafSbeOwLT4Ytev9R97CEAAArESsB6/CQBi7TnndFt3oMjxIR8CEICAGQHr8VsfALAEYNZ5soqtU0imzlM5BCAAgYgJWI/f+gAgYviZdOsITIsvdv1a/7GHAAQgECsB6/FbHwCQATDte9YRpKnzVA4BCEAgYgLW47c+AIgYfibdOgLT4otdv9Z/7CEAAQjESsB6/NYHAGQATPuedQRp6jyVQwACEIiYgPX4rQ8AIoafSbeOwLT4Ytev9R97CEAAArESsB6/9QEAGQDTvmcdQZo6T+UQgAAEIiZgPX7rA4CI4WfSrSMwLb7Y9Wv9xx4CEIBArASsx299AEAGwLTvWUeQps5TOQQgAIGICViP3/oAIGL4mXTrCEyLL3b9Wv+xhwAEIBArAevxWx8AOGsXdE3v0a8DiDUEIAABCBQiYD3/6AOAQm53j1Hc4Uv8GYzu6QkogQAEIFAtAev5hwCg2vYOXpt1BwruEAVCAAIQqAkB6/FbHwCwCdC0q1pvIjF1nsohAAEIREzAevzWBwARw8+kW0dgWnyx69f6jz0EIACBWAlYj9/6AIAMgGnfs44gTZ2ncghAAAIRE7Aev/UBQMTwM+nWEZgWX+z6tf5jDwEIQCBWAtbjtz4AIANg2vesI0hT56kcAhCAQMQErMdvfQAQMfxMunUEpsUXu36t/9hDAAIQiJWA9fitDwDIAJj2PesI0tR5KocABCAQMQHr8VsfAEQMP5NuHYFp8cWuX+s/9hCAAARiJWA9fusDADIApn3POoI0dZ7KIQABCERMwHr81gcAEcPPpFtHYFp8sevX+o89BCAAgVgJWI/f+gCADIBp37OOIE2dp3IIQAACEROwHr/1AUDE8DPp1hGYFl/s+rX+Yw8BCEAgVgLW4zcBQKw955xu6w4UOT7kQwACEDAjYD1+6wMAlgDMOk9WsXUKKbTzD/z2sWucT7dIudfLc7U8F8iTBwTqSqBfHD8ow+xTjbSx++5/vvS5MkHMwuuvUn5528Z6/NYHAHk97rLzrSMwLY7Y9Y/5v3Pn833JqSWfSHx6l/jUGDvOvxCoOYEsAF4j18SatJHeu/N/f3nXscFl23fscIMhuczi668SfkXbwnr81gcAZACKtn0QO+sIMoQTI4PP6SX7ZNpfb31BhPCHMiBQEoFm4pJ7ls49+nM7dviNoYKAGl1/pfDTtLX1+K0PADTed4Ft7BNO7PqzLuDPLPmk/LO+C7oDEiAQA4ENS/uO3i9Ct4UQW8PrLyg/TRtYj9/qVGsWwWieGnghbDXaraO3zP/Y9X9c1vzlItiq9QN7fV+AYTwM00Zy98d/++ga7RhY1+svFD8tf+01p62fDICWoLG9dQSpdt+lW8QHdSCq1kEBEIiLQLORpHeK5O0q2fW9/sLwU8GXgFNprzXXBwDsAdC2gco+iyCjfrjkBuuLIGp+iK8tgdS5G9XO1/j6C8JP2QDW47c+AFACsDaPffKJXr9LVpmHwdadkPohUIzAlcXMLljJBFTn60/N7wLJYq+sx291AJBG/gkU/cU6biirNMuCRd6HQrGgHAjkJKCeP2p+/an55Wyvi063nn/UAYA5wYuQ5juA/ny8Qp8t/A9LmVeHLpfyIFADAoe0Ptb8+lPzC8BfW4TKngBAhc/eOPYAJvXJk84RANj3JBTER8A/odVc7+tPz0/L33r81gcAkadvrTdhqDtQ5PxbrrG76dJ7hUNTywJ7CNSIQCtNGnu0/tb4+gvCT8vfev5Rf/0qi2A0Ty1Arb1Gu3X0lvkeu/5//tGlz8k65C6tH9jr+wIMI2Lokof+5/uWfVs7/tX2+gvET8tfe81p6w+QAchciPfhHfqtW2/w1LLtvYtevkp0ZD8AxAMCEJiOgE+eWrZw+X3TnZLnb7W7/gLzy8N68rnW8w8ZAGkRTRQ2uUGrfq/R3i2hT3ZP88GTyzdJSzwomlpan7DX9Wn4dS2/VpK4ncsWLd90111uKNRYU6PrrxR+mnbQXmuaujPbABkArQRbe+s1GK33sesf8//cD5ts+9cfP7qrKXc4897fmDi3Wv6+cOwc/oVADQmcSrw/mDTcE41WY0+ItH87hrP4+quEXzumnRyzHr/1AUAnXnbxOVkEFvMjdv2T2f8v25cdkGO625tOLpT3EIBARwS4/jrCFOwk6/FbHwBEvgvdOgLT9qTY9Wv9xx4CEIBArASsx299ABAr+XO6rSMwLb7Y9Wv9xx4CEIBArASsx299AEAGwLTvWUeQps5TOQQgAIGICViP3/oAIGL4mXTrCEyLL3b9Wv+xhwAEIBArAevxWx8AkAEw7XvWEaSp81QOAQhAIGIC1uO3PgCIGH4m3ToC0+KLXb/Wf+whAAEIxErAevwmAIi155zTbd2BIseHfAhAAAJmBKzHb30AwBKAWefJKrZOIZk6T+UQgAAEIiZgPX7rA4CI4WfSrSMwLb7Y9Wv9xx4CEIBArASsx299AEAGwLTvWUeQps5TOQQgAIGICViP3/oAIGL4mXTrCEyLL3b9Wv+xhwAEIBArAevxWx0AJJFnANAf66WDbghAAAKREzCeP9UBgHUEo21+9GsJYg8BCEAAAkUIWM8/BABFWq2LbKw7UBehQAoEIACBqAhYj9/6AMA4haFtbetNGHXXr/UfewhAAAKxErCef/QBQKzkz+m2jsC0+GLXr/UfewhAAAKxErAev/UBABkA075nHUGaOk/lEIAABCImYD1+NyJmh3QIQAACEIAABAoS0GcAClbcLWbWKRgth9j1a/3HHgIQgECsBKzHb30AwBKAad+zTiGZOk/lEIAABCImYD1+6wOAiOFn0q0jMC2+2PVr/cceAhCAQKwErMdvAoBYe8453dYdKHJ8yIcABCBgRsB6/NYHACwBmHWerGLrFJKp81QOAQhAIGIC1uM33wKIuPMgHQIQgAAEIFCUABkAMhhF+w52EIAABCCgIGCdAdAHAArnu8HUeg1GyyB2/Vr/sYcABCAQKwHr8ZsAINaec063dQeKHB/yIQABCJgRsB6/9QEAKXSzzpNVbJ1CMnWeyiEAAQhETMB6/NYHABHDz6RbR2BafLHr1/qPPQQgAIFYCViP3/oAgAyAad+zjiBNnadyCEAAAhETsB6/+RpgxJ0H6RCAAAQgAIGiBPQZgKI1d4mddQpGiyF2/ZP93/rpF65pNHq2+MRfL39bLc8Fk8+p2ft+8fdg4txTLmns3rVl6XNl+g//4HRpv+BIcxVYKf9cyuRk6/FbHwCwBJC3zYOeb51CCuXMtp3P9w3Mv/QTUt5daeLJTF0AmwVAa2SoWOOT1r1b9xzZ9cqiy7Y/9h43eOEU/Sv46xlOUQLtNwWYig5Xwr+oL9bjt3qgzSIYzbMouFB2Gu3W0VvGIHb9mQ/Z5HN2/qX7xJe75dnQ+jSL7Zveu3suPfnyvs2P+t6MXYgH/PXXUYd9jvaTDtshqzLOK4W/5hrUstDUndkSAAgETSNoG0Brr9Ge2XbD48y8Sz8pWtZrfamNvU82XHripftDtR38dWNA7n5H+6nG3Ny85UKZYBOYv+Y6nKBrss4O3mvqzmz1AYAsAWRpjKJPrQNa+6K6x+y09Wvtx3QU/Vdbv9b+9s+8cI0k/LcW1V9Xu9S5uz/08FFZGtA94F987NL0PdrPhvtYm4Xir7v69Ay09asDAHFBNGieWhe09hrtma31I279jbSxRfqP9EOtH7Wzb6aN4Tu1vQ/+Zv2G9rO95oPw115/+nFPp4BNgGxi1PUgrbXzN/gk8kbQMihq79yNRU3P28H/PIrKX9B+lSOfUGEI/hMKzP8my0hYPvQBgKX6AHVn8X/Mj/j1u1Ux8zfWfqW2fgm+4K+FWNye9ivOLoSlmr9WhPX4TQCgbUFje+sOpHVf9MfughaBxl7NDv4a/Gpb2k+NUFWAmr+qdjG2FqAPAIxTGOoGQL8WocreO384SdzVqkLqauySQ1rX4a8lqLCn/RTwApgG4K9VwRKAlqDS3joCU8o3jyD1+t2TUgYBQBGQ3j9RxGy8jSwBwH88kCpf035V0r64rgD8Ly403xHr+SfAtwDyOczZEBhPwLfS3fK+Nf4Yrzsi0Gr5nj0dnTnNSfCfBk65f6L9yuU7U+lB+M9USbf/XR0AjH2vsui/1oCK6h6zQ7+OwN4tK58TlrvGePKvrAvKslQHz4c+f8eyb+voJwn8O2LdSXvkPYf266yf5+Xa6flB+Guvvw6u82n90dav3wOgVWBsb52C0bofu/7M/7PzL9ved/rlq2Qozn4AiMcMBCRt/9SCgeX3zXBax3+Gf8eogpxI+wXBWLiQ0PwLCxFD6/GbDIAyCtU0fghb6wgyhA/ZD9sMzF++KXXJg+JPS+vTLLZvyS2Tdsrkv+nhu9xQCPZZGfCvLAtA+ynHW+W1XQp/zXWo9EdT9YgtGQA1QtsCrCPIUN6f+3W7bf/wkZ/uco3GnfKjNzfKWLFayl8Yqo5IyzklbXzQJf4J1+zZ8/n369P+7TjAvx2VIMdovyAYCxdSCf+i6qzHbwKAoi3XJXbWHSg0hi/cfsUBKXN76HIprzMC8O+MU7eeRft1a8u012U9fqsDgOjv4iofM6N+xK4/aviIhwAEIKAgYDx+qwMA6whGgX7EFP1agthDAAIQgEARAtbzjz4AMI5gikAfb5Ntwoj5Ebv+mNmjHQIQgICGgPX4rQ8ANN53ga11BKZFELt+rf/YQwACEIiVgPX4TQAQa885p9u6A0WOD/kQgAAEzAhYj9/6AIAUulnnySq2TiGZOk/lEIAABCImYD1+6wOAiOFn0q0jMC2+2PVr/cceAhCAQKwErMdv9Z0AYwWPbghAAAIQgECdCegzACwBmPYf6xSSqfNUDgEIQCBiAtbjtz4AiBh+Jt06BaPFF7t+rf/YQwACEIiVgPX4rQ8AyACY9j3rCNLUeSqHAAQgEDEB6/FbHwBEDD+Tbh2BafHFrl/rP/YQgAAEYiVgPX4TAMTac87ptu5AkeNDPgQgAAEzAtbjtzoA4MeAzPrOaMWRL8EY06N6CEAAAnYEjMdvdQBgHcFoWw79WoLYQwACEIBAEQLW8w8BQJFW6yIb6w7URSiQAgEIQCAqAtbjtz4AME5haFvbehdm3fVr/cceAhCAQKwErOcf7gQYa89BNwQgAAEIQEBBQJ8BUFTeDabWKRgtg9j1a/3HHgIQgECsBKzHb30AwBKAad+zTiGZOk/lEIAABCImYD1+swQQcedBOgQgAAEIQKAoAX0GoGjNXWJnnYLRYohdv9Z/7CEAAQjESsB6/NYHACwBmPY96xSSqfNUDgEIQCBiAtbjN0sAEXcepEMAAhCAAASKEtBnAIrW3CV21ikYLYbY9Wv9xx4CEIBArASsx299AMASgGnfs04hmTpP5RCAAAQiJmA9frMEEHHnQToEIAABCECgKAF9BqBozV1iZ52C0WKIXb/Wf+whAAEIxErAevzWBwAsAZj2PesUkqnzVA4BCEAgYgLW4zdLABF3HqRDAAIQgAAEihLQZwCK1twldtYpGC2G2PVr/cceAhCAQKwErMdvfQDAEoBp37NOIYV2/h1//MI1zeHGlsS565PEr5byF4Sug/JyEehPEnfQOf9UmqS799+68rlc1jlPpv1zApv59Lq3X6X+z9wcE8+wHr/VAcBEd3gHgWIENj7+fN/ZM5d+Imn5uxKXyNKUdWxczI9ZaCUBmF/jfbJGmuXe9X94ZNfy9LLtj73HDYb0lfYPSXNCWXVvv0r8n0A8ojfqPQDZMK15WrPSaO+GKSp2/Vn7Z4P/mTOX7POJv1v8aWh9wl53TU7DrymfWO450jyyb/OjvjfUtUv7l9Zek8fmurdfKf5rroNprrXJbdf2vabuzJYAQCBoGkHbAFp7jfbMthse/acv/aRoWa/1BXtdX+6UnywJbHix+dL9ofoO7V9Nu421b93bL7T/mutgrE2K/qupO7NVBwCSrhWeimemwvKh0d4N+x8i15+t+bqG36rqQ1oG2Oe+hp1L7l7/hz9do710aX8haND/6t5+ofzX9n912ysFqAOAopHLmJ1Sv9p8TEfRf9UClAUU1T1mp6xeb542togW0v5CcqxNIvm3mTYad6o7AO1v1e51b78w/isvAO21rqw+UW8CzByI+YF+29aTdf8bRj8CwFrxzQAAD15JREFU2eqg9vwE0sTdmN9qogXtP5FHle/q3n4h/Ne2l/X8ow8AsvRVxA/rr2Fo0cWv363SMsDejMCV2pq9o/21DBX2dW8/tf8K9iOm1uO3eglACwD72hOwDoJr3wAKACHaLkQZChdqbRqCfYgyrBohZu1BmOkzAEFk2BUSew+IX78/LEsAV9v1AGpWEDiksB0xlSUA2l8Lsbh93dtP7X9x9KOW1uO3PgBgCUDbB1T21ikklXgx9ol7UnbCEgBoQVrYe/+EtlraX0tQYV/39gvgv4L+iKn1+M0SgLYFsdcR8OluKaClKwRrAwKtpuvZo66X9lcjLFhA3dsvjP8F4XeLmToAyFIYmqc1CI126/RNxi52/V+Te8uLD7u0fmCv7wt5GKZJ8tBf/L1l39Zev7R/te021sZ1b79Q/mv7/1h7FP1XWz9LACxhaPuQ2v7E4GXbF/W+fFXivPwAEI/uJ+CeGnph+X2hdNL+oUh2Wk7d2y+s/51Sb3ceSwDtqHCsVgQOyA/LnBxcvkmcflCeLAd0b+u3ZL/GTpn8N33jLjcUSibtH4rkjOXUvf1K8X9G6l18gj4D0MXOdSItS73E/Ihd/xj7bBKQ19t+4U9+uquZyB3mUnejRMer5djCsXP414TAKeeTg6nzTzjfs+c//bo+7d/OC9q/HZUgx+refpX4X7SlrMdvfQBACr1o2wexs04hBXFiXCF/9a4rDsjb7eMO8bJGBGj/uBub9svXftbjt3oTYD53ORsCEIAABCAAgW4goM8AdIMXCg3WKRiF9BHT2PVr/cceAhCAQKwErMdvfQDAEoBp37NOIZk6T+UQgAAEIiZgPX6zBBBx50E6BCAAAQhAoCgBfQagaM1dYmedgtFiiF2/1n/sIQABCMRKwHr81gcALAGY9j3rFJKp81QOAQhAIGIC1uM3SwARdx6kQwACEIAABIoS0GcAitbcJXbWKRgthtj1a/3HHgIQgECsBKzHbwKAWHvOOd3WHShyfMiHAAQgYEbAevxWBwByb/C4H+iPu/1QDwEIQCBWAsbzjzoAsI5gtO2Ofi1B7CEAAQhAoAgB6/mHAKBIq3WRjXUH6iIUSIEABCAQFQHr8VsdALAEYNzfjFNIxt5TPQQgAIF4CRiP3+oAwDqC0bY8+rUEsYcABCAAgSIErOcfAoAirdZFNtYdqItQIAUCEIBAVASsx291AMASgHF/M04hGXtP9RCAAATiJWA8fqsDAOsIRtvy6NcSxB4CEIAABIoQsJ5/uBVwkVbDBgIQgAAEIBA5ATIAkTegdQQZOT7kQwACEDAjYD1+kwEwa3oqhgAEIAABCNgR0GcAjDcxaNFZ/xxj3fVr/cceAhCAQKwErOcfMgCx9hx0QwACEIAABBQE9BkAReXdYGq9BqNlELt+rf/YQwACEIiVgPX4TQYg1p6DbghAAAIQgICCgD4DwB4ABX69qfUakt4DSoAABCBQTwLW4zcZgHr2O7yGAAQgAIGaE9BnACIHaL0Go8UXu36t/9hDAAIQiJWA9fhNBiDWnoNuCEAAAhCAgIKAPgPAHgAFfr2p9RqS3gNKgAAEIFBPAtbjNxmAevY7vIYABCAAgZoT0GcAIgdovQajxRe7fq3/2EMAAhCIlYD1+E0GINaeg24IQAACEICAggAZAAW8bjC1jiC7gQEaIAABCMRIwHr8VgcAibN2Qdns6FcCxBwCEIAABAoRMJ5/1AFA5NN/gv5C3RYjCEAAAhBQErCef9gDoGxAzCEAAQhAAAIxEiADEGOrjdNsHUGOk8JLCEAAAhDIQcB6/FYHAEnkNwJCf47eyqkQgAAEIBCOgPH8qQ4ArCMYbUugX0sQewhAAAIQKELAev5R7wEQBwYzJ4o+1zx6oLcIuFA2onu4qPbMDv2hWoJyIAABCNSHwBsff75PM/eI7YCWljoAEAGnNCKOL168UGMfwPa0pgz0a+hhCwEIQKCuBBYuVnnukhMqezHWLwGMilhaWEhfX2Z7rLC90lCiqH7ZB1C8IdCvbAHMIQABCNSPwJneniVNl2ocP6kxzmxDZAB0IlrJG7VOqOyde1Vlj34VPowhAAEI1JFATyN5k8pvr88AqAMA+QT9gmYdo+HSq1QQlMbe+0PoV0LEHAIQgAAEchFI0/QtmrnHN5IXclXY5mR1ACDp8++1KbfjQ9413t7xySWc6FxySFMs+jX0sIUABCBQTwLeJb+k8dx7912NfWar3wPg3XdGvwNQUIr36xPxJHE2N0VOE/cD9NvxL9hrMIMABCAQL4Ed8vk9OXJdlgEo+nCJVwcA6gxAw4uI7GYGxZ8rXvvMi79YFILWTvT/V4X2zG/0axsBewhAAAI1IvCaXznydpk7lmvmnrQbAoDhZuubEsWkqrWMxN1m1fbp8OA3RLtHv1ULUC8EIACBehFwjeQDujknSd3Q0Le01ILciPBnnn4xE/JWhZhjg85d+dL6Fap7ChSt/2f+7MXvSSSm2ZGJ/qLwsYMABCBQIwLLn31pUd9g+iNxeUlRt2Xi/saPN1x+bVH7MTv1EkBWkHyT8WllNLO01/utY6Kq/tc3/FfQb8e/6vamPghAAAJWBHoH07tlvlmimXNkzv2zEPqDBAAN55/WrGVktrIN7b7LnjliclfA1DUeR78d/xAdmTIgAAEIdDuBpY8fXSxzzXb9fOOeCeFrkADA9Q1l0chxTUQjtlfMSfyOEE7lLWOu739G6j+Ffhv+eduL8yEAAQjESKBvXutfyTxzuWquccmxBWeOPxPC/yABwI/Xvu6MT9xjWkEC5beuePqln9eWk9f+4PrXn5UkxBfz2k0+H/2TifAeAhCAAAQyAiv3//QXJNd9r5qGTx79/qY3qX8IKNMRJAAYcShN9qodk/sSOJf++yVPHrskQFm5ikiT9JFcBu1PRn97LhyFAAQgUFsCq5955VKXNP6dAFDfe6fhks+GAhksAPjphsv+Qj4Bf1+ehX8aOLOVzQ1v6OsZ3ps849Wg8kB64bqVX0W/Hf88bcW5EIAABKIhIHPZ2WTgc/Jd85/Vzo9i/93/71dXfD2U78ECgOxOfnIvv98NI8zfckXy0q6ROwSGKXDmUrI7Ebrk4zOf2MkZ6O+EEudAAAIQmNUE5C63K/2LD8sd494Zwk8p7t+EvGtuuABAvPvp4hWfkUn0UBBHE3/nyq8eeaTKTMDC0yd+X/T/BP1ZFqd6/iG4UwYEIACBriDwqG9e/syRT8uE/Y/C6HGHl7/80ufClDVaStAAILnWDUka4OParzict0+S21a6l/6oqj0B2cYK2Qx4//n65Y3qNfpD9lXKggAEIBAFgWzOWnn5i1+SO/59SDWHTJiD/G8feM+awZAAwgYAomxeeubTsk7xgwBrHef2EvhbeucMfaOqbwcsOH3iIdGu3stwwX/0h+ywlAUBCECgmwlku/1lzvqvkq5/54V5QLc3Tvz9nmSo94T2O4svgj9WPP3ir0nk86eBCx4WhL83NHfOvzz29mUnApc9objLv/rCu+TORF+acFD/Bv16hpQAAQhAoCsJXP6VFxa4XvdRuand/yQCe0OKlJ/L3fTCdSv2hSwzK6uUACAreOX+F78o0c+t2evAjxdkN+X9smNvV5m/HXD5/iNfloDj5sDas+LQXwJUioQABCBgQSC7g23T+ez2vvdJ/SvCa/CPvnjdyr8fvtwSA4Cfeeboa4fd8P8jopeWIVzKfEWAf0H+/dyR7GsR2S7+gA9p1JVyi+O/kSKXByx2fFHoH0+D1xCAAARiIeB9Y8WfH3m7rKF/QD6QZpNz4R/2mcHll1s9jbe+vO6yIJvTJ9dVWgYgq+jy/S/cIp/Us1R6qfVI+S9JBfslAvi6d+47vuV+0OuGjs4/039Sc8ekFV998VbZiKC+Q2DGYoYH+mcAxJ8hAAEIVE3gjY8/33d63oJFA0nv8kYj/VmX+J+TOeHtouM6eZb14XDMTdlG4G5+6VdXPD52IPS/ZU/MyYr9L94voreHFk55EIAABCAAgdlKQHLav/Pi+sv/WZn+Bf8WwGSxRxauyBz488nHeQ8BCEAAAhCAwMUEJHP+zIuLVvzLi/8S9kjpAUB2b4DhuT23iOxvhZVOaRCAAAQgAIFZR+BvhvycW7O5s2zPSl8CGHNg+bMvvca10r+U96vHjvEvBCAAAQhAAALnCfzQu8Yvv/yOy356/kiJL8rPAJwTP7KLMXU3ytuDJfpD0RCAAAQgAIEYCfzQDSc3VjX5Z4AqCwCyyuR7+99PUvdL8pLlgAwIDwhAAAIQgECSPJcON3/lyPWX/6BKGJUtAYx36lL5beSexmD29cB3jD/OawhAAAIQgEC9CLhnWoM9737lxqXHq/bbJAAYcVJ+I3l548i/kNfZTsdKMxFVQ6Y+CEAAAhCAwCQCcg8h/8DRBZffV8WGv0l1j7y1CwDOqVkuNwuSu/g9Im/LumPguZr4BwIQgAAEIGBPQCbeo7LZ74Oy3v8fLdWYf/J++bqVX07TnrfKXfyquOOeJWvqhgAEIACB2hPwj/pm47+1nvyzZjDPAIzvC8u++sIGef+QyLpq/HFeQwACEIAABCIn8H2fum3H1q8I/Uu5hbGYZwDGKz/6qyufXpSeeZv8FO+HJQg4PP5vvIYABCAAAQhER8AlP5LfD7hnSf+J/6abJv+MY1dlACY07IEDvUuPLrtNfgf5o3L8zRP+xhsIQAACEIBAdxP4rvyYz785Nu+yvVab/GbC070BwDjly//ipZ/3aes259x7Za9A2b/ANK5mXkIAAhCAAAQ6JvCqnPll+Wj92aPrVvxZ6J+p71hFhydGEQCM+bL6mR/OPT5nwXqX+g0SCGwQ8X9H/tZVyxhjWvkXAhCAAARmPYFUPPymPJ+Wyf7pYyePP5NsetNALF5HFQBMhrr4a4eXzhme87Y0cW923l8lDfAWcWiFBAeXyLnZc5E8eyfb8R4CEIAABCDQAYFBOeekPI/L3HJc5pYjMs98x3v/3UbivzfUM/TNE2tfd6yDcjgFAhCAAAQgAAEIQAACEIAABCAAAQhAAAIQgAAEIAABCEAAAhCAAAQgAAEIQAACEIAABCAAAQhAAAIQgAAEIAABCEAAAhCAAAQgAAEIQAACEIAABCAAAQhAAAIQgAAEIAABCEAAAhCAAAQgAAEIQAACEIAABCAAAQhAAAIQgAAEIAABCEAAAhCAAAQgAAEIQAACEIAABCAAAQhAAAIQgAAEIAABCEAAAhCAAAQgAIFICPz/lHgISXq+CX8AAAAASUVORK5CYII=;" vertex="1" parent="1">
          <mxGeometry x="-340" y="172" width="322" height="322" as="geometry" />
        </mxCell>
        <mxCell id="HMdKM1Sp7y03wCbhgYr0-6" value="" style="shape=image;verticalLabelPosition=bottom;labelBackgroundColor=default;verticalAlign=top;aspect=fixed;imageAspect=0;image=data:image/png,iVBORw0KGgoAAAANSUhEUgAAAgAAAAIACAYAAAD0eNT6AAAAAXNSR0IArs4c6QAAAERlWElmTU0AKgAAAAgAAYdpAAQAAAABAAAAGgAAAAAAA6ABAAMAAAABAAEAAKACAAQAAAABAAACAKADAAQAAAABAAACAAAAAAAL+LWFAABAAElEQVR4Ae29C5hd1XXnefa9pSq9QQ+EcGwhxy+ChnG7Q/I5iuIgARMkg9MmI3e3H5gGWYQGOWM17umZ7p5R9zffTNIxfgjIyLQUE8sed0OcieNuFAMBOSH+3J1225Mgxzb2WJY8Nggk0KMk1eOePetUqaSq0q2qe87a56y76/zux0X3njpr7//67X32Xnftfc9NEh4QgAAEIAABCEAAAhCAAAQgAAEIQAACEIAABCAAAQhAAAIQgAAEIAABCEAAAhCAAAQgAAEIQAACEIAABCAAAQhAAAIQgAAEIAABCEAAAhCAAAQgAAEIQAACEIAABCAAAQhAAAIQgAAEIAABCEAAAhCAAAQgAAEIQAACEIAABCAAAQhAAAIQgAAEIAABCEAAAhCAAAQgAAEIQAACEIAABCAAAQhAAAIQgAAEIAABCEwm4CYfiOn9yc2bL5sz1HhbmjbfnLjkKp/4t4hDKxKfLJT3S8SXBfLsjckntEIAAhDoIgL9MqYe9D55suka/7bvS5//dhdpQ4qSQFQBgN+8ed7pwZ4bnE82JM5tEN+vkWdUPijbC3MIQAACVgRaMtr+n/PmDP0T99hjg1YiqDccga6fPL1M8Gff9d5fSZPGbYnzm8X1xeHcpyQIQAACEMhDQCaN/fN6B2+RIOBUHjvO7T4CXRsA+I0b+073LrtdkH00Sfwbug8diiAAAQjUlIB3z87vG9hIEBB3+3ddAJCl+c8Mzv1N7/x9gvY1ceNFPQQgAIFZS+DZ+XMIAmJu3a4KAPrf/b6bE+92CtDXxwwV7RCAAARqQuBrp9Pemy77k98/WRN/Z5WbXREAnLnltlVp02cT/6/PKro4AwEIQGD2E5BMwFmWAyJsZ/MAoP9dH3yXb/jPCLulEfJDMgQgAIHaE5CJRDIBPWQCIusJZgGAv+66nv4lq/43+c7+PxVmZjoiay/kQgACEOhKAgQBXdks04oymXhffed7l8zpmfNl75JfnlYdf4QABCAAgWgIyITybP+c0xtX8BXBKNqs8gCg/9b3X+HTxj750P/WKAghEgIQgAAEOibgEs9yQMe0bE+sNAA4/hu3v6mZJk+Ky1fauk3tEIAABCBQFgEJAp7t71kgmYDf42ZBZUEOUG5lAUD/u+54jW/6v5Q7+60OoJsiIAABCECgmwm45Gtnhx0bA7u4jRpVaDu2eesl8jW/x5n8q6BNHRCAAAS6gIBP1s7t8X/60rvuWNQFapDQhkDpGQC5s1/vqeFFT0vdbPhr0wAcggAEIDDLCTx7pmcuywFd2MilBwAn333Hp2TD34e70HckQQACEIBAFQScl+WAhOWAKljnqKPUAODErXe823n3RdFTaj1S/otyP4H9ruG/nrjm36Zp8sN0sOelS+a/3K/52cqTf++O35CfHf7DHDyLnor+ouSwgwAEChM4+e47ZWW2sodkAvrIBFSGe+aKSpuYZd1/Vc9w+i2RsGRmGYXOOCY99wuJ959d/Md7/kocCdqR+2/dekXLp38typYXUjezEfpnZsQZEIBAiQROvHtL0HFzZqn+2bMEATNjquiMnrLq6UnTnfK5v4zJ/yfe+4+dWTj48Mq9e/vL0t9K0t2iv4zJH/1lNRrlQgAC+QiU9hFwKhlu3dzWwL4jm/8xmYCpEFV4vJTmP/7uu25yLpWb/QR9DDvnf+/sUPovyv7lqRO3fujdovyPgqpPEvQHBkpxEICAjoCMdRVnAM7r/drAcIs9Aedx2LwIHgD4zR+Zd7LVf0DceX1Al55vusbfX/DFXd8MWGbbovzGbX0n5w1k+t/Q9oRiB9FfjBtWEIBAiQRO3LrVKgDIvHr2bLOHTECJ7TtT0cHvA3BiuP83pdJwk7/zXxqa13dtFZN/Buvk3LPb5J9wkz/6M6w8IAABCEwmIMsBw9lywMLJf+B9NQSCZgCyT8/H5w3+QAr9mSDyvfuDxa+s3OL27xgOUt4Mhfjbb5974kTf/yunXTHDqZ39Gf2dceIsCEDAhMDxW++yzACc89l9bXB4kOUAgx4QdBPg8XlDt4ea/H3idl/yf+/aKuVV1kFl8r9D2iDI5I9+g95MlRCAQIQE/NrenjmPszGw+qYLtgQgs7STyfqjo1/5l1cjX/0v+K9zX7qkefQ3q5z8M/3y3z9R6R7zGf3V92RqhAAEChAoOEaPjXXh/l3X1/IsBxRoQY1JsADg1Oa73yEhwBtGwoAsFCj+/P7w3Dm3yQ18WhrH8tq+eus/vk40/6xC95jP6M8Ln/MhAAEbAsXH6bHxLuC/ybq+1H+F3w6orisECwBaafKBALKH0sS/Z9nnHzgRoKxcRTQSf3sug/Yno789F45CAAIQ6ISALAf0ZcsBbAzshJbynCABwGH56p+EgZtl3VsW7DXP5JNLKviq32RmmX7v3G/otGd+o38yW95DAALdS0A75iXePast4yJ752Q5IGE5oIJuEyQAWJAO3CBaF2v0SibqJ4MN9681ZRS1XZwOrhfbBUXtMzv0a+hhCwEIxEhgoJlsdD55NrR272Q5gCAgNNaLygsSADSd2yBToBRe/Jn65GMrHvu9UxcprOCA9+6dGu2ZLforaCiqgAAEAhMoPmZn4142Zp9ZMP8meb1fO4ZOtpes7Lo5qWNPQOAWH19ckADA+4Y2ADg2MH/+w+OFVfraJf/d5M6X8z36K20wKoMABMIQ0AUAmYaVez/WP9jwtzjfkEyAtryJ9i5xsidgAXsCwjT2RaWoA4CTm7dd5hN/TfZl/eJP94WsE12kroIDxzd/ZKnofkNx7Znf6K+gqagCAhAITEA37l0Qk2UCBpqtjZJNlT0BmrngYtvU+XVzWk32BFzAHeyVOgBo+eRtsgAugZpEbgWfjUby2WAe5SzIJ4M/j347/jmbi9MhAIGQBAqO2efH+nFasiBgSIIA+duz5/+uLX/MvpGsm+MJAsbhDvJSHQDIp9+3KNM+Ly5+7IG/CuJNkUJ84++i35B/kTbDBgIQCERgYso9/1g4UcZIEOAkCEgkCAi8HCDlSRDQQyZgInLVO3UAILVLAFD8Id3vGXlmWSOTR6r84R/0mzQblUIAAl1KYGQ5YF6vbAz0+0uQmAUBsjHwny4qoezaFRkgAHBv1kR6Pmn8J1PqrrEK/aYtQOUQgIAZgbAZgDE3sj1dQ651i4ytZWQC1vb0DrAxcAy24l91ACAf3VdqNn2kLv2OQr/e1CdXol+PkRIgAIH4CGjGvsx2usfocsDQRjkv+MZAKXNdj5/DcsB0DdDB39QBgNwJSlIxxaPIZsM/34HOEk9xl6C/RLwUDQEIdDGB4mP36Lg5vWtZEDDshkrbE9DjewkCpm+Caf+qDwCckzsAFu9ELu15ZVqFpf/RyR0A0V86ZiqAAAS6kEDxsa+TACBzOAsCBuf1lHKzINEgmYA+9gQU7FkBAoBkoWL+lPsHX2Jy97/zvFwyH/3nafACAhCoE4Hy5/8RmiM3C5rXvFnG2v2a8XYK27XNvqE/ZWNg/o6rDwAS16v6BP3YjsH8skNauB70h+RJWRCAQDwEKooABMhIEDBXgoBEgoApZnLFcQkChgkCcnY8dQBQ5iaSnL4UOh39hbBhBAEIzAICVY9/F4IAv19bdxv7tQ2CgFy9Uh0AKCI2EZpFn9aP6iLgcjyNXX85VCgVAhDohED148dYECC3j92vnz8u0i9BQItMQCdNL+cQAKhTUR2SLu20iy4AqSnPsdKEUTAEIND1BPKMFe3OLebgaBDgbi4vCEgJAjpomgABQAe1cAoEIAABCEBgHIHRICCRICDbExD8IZkAgoCZqAYIANpFhXmOzSSx7L/n0dru3LL1zVR+O015js1UPn+HAARmL4E8Y0W7c3VkLgQBZS0HEARM10LqAMDLrzVpntOJq+JvGu2ZrfUjdv3W/KgfAnUm0A3jx2gQ4G+WTX37tXoutm+sdX0JywFTdHJ1ADBFuRyGAAQgAAEIdEQgCwKG5/qbE1/CDwi5hCBgilYIEAC0SwvlOTaFssoO59Ha7tzKhE5RUTtNeY5NUSyHIQCBGhDIM1a0OzccogtBQAnLAc5JEODIBExqrgABwKQSeQsBCEAAAhAoQGA0CGhJJqCEjYEjmQCCgPHNEiAAaBcV5jk2Xo7F6zxa251roXl8ne005Tk2vixeQwAC9SKQZ6xod254WheCgLIyAQ0yAeeaTR0AePnOueYZvvvkK1GjPbO1fsSu35of9UOgzgS6dfwYDQKGb/beyR0DdXPMRfYjywEEAVm/VwcAdb548B0CEIAABMohkAUBrblDpSwHyLcFZE8AQYA+AMi+Cqd5ltN3Oi9Vo70LvgaoYt8N+jtvKc6EAARCE+jy8e98EDDyK4LKuWaSr74hXxGc11Pr5QB9ABC6Q1IeBCAAAQhA4ByBkSCgVzIBSfivCMq9B2odBAQIANptDMlzzLqf59Ha7lz0WxOgfghAoCiBdmNanmNF681ndyEICL8xUPYISBAwp5aZAHUAcNEGi5wbNvJ1g/Bnoz88U0qEAATiIBDT+DcaBAzIHQPDbwxMJQjw83prFwSoA4A4ujkqIQABCEAgdgJZEJD2npXlgBLuEyDLAXULAgIEAHnSRe3Ote6S7TTlOYZ+awLUDwEIFCWQZ6xrd27ReovbXQgCwi8HyI52CQLm1iYTECAAKN6QWEIAAhCAAATyEhgNAs6UlAnwtQkC1AHAxb++lO/XAfM2fOjz0R+aKOVBAAKxEIh5/DsfBMhXBLV+XGyfrE3nz/5MgDoAkJSJ9HXN0/pS0WjPbK0fseu35kf9EKgzgbjHj5EgYM6Zm51sDNTNQ205SBAwb1YvBwQIAOp88eA7BCAAAQhYEhgNAvolCChnY+BsDgICBABtIyfpD50et+w6Wd2d6pzqPPRbE6B+CECgKIGpxrVOjxetN6zdaBCwsMRMwHzJBPzOorCq7UsjACAAsO+FKIAABIwIdDrRT3Wekew21a7c+9H+dM4CCQIa+/Uf7C7yV5YDzs66IEAdAMitFOXXAIs/27RjpYc02jNb60fs+q35UT8E6kxgto0fo0HAvHM3Cyo+L03BZW1rlgUB6gBAH2lZX34XRXoiKM8x9FsToH4IQKAogTxjXbtzi9Zbnl0WBCRz5slXBMvZGDibggB9ANCuT+Q5Vl4/6KzkPFrbndtZLeWd1U5TnmPlKaNkCECg2wnkGSvandul/p0PAkZ+RVBEttNe+Jhb21ogywF3xL8nQB8AqMla96DCveBcr0K/NQHqhwAEihKIffyb2u+RIKCnrExAY23rzGD0QQABAAHM1FcQf4EABGY5gdkbAGQNNxoEzC1vOeDMUNRBgDoAmGKzRMcbA62vLvRbtwD1QwACVgRiH/864TYaBPTJxkC5Y6AYBH6uHYo4CFAHAPrFlU6asMxzYo+AY9dfZttSNgQgMD2BeowfWRDgevokExD+K4JyF0IJAoajzAQECACm7178FQIQgAAEupbAoEbZgc07ejX2VdqOBgFzzi0HhK1Zwqgog4AAAUDsEST6w14KlAYBCMRDwJ3SZHEXJ8nCeHwd3RPgesaCAO3YP9F+NBOQRpUJIABgE2BM1y9aIQCBoATcCU0A0NfXtzSonAoKyzIBzeHBW8TvZzW+t7OVkGDt8Jn08SObd0QRGKkDAC8ea54VtPe0VWi0Z7bWj9j1W/OjfgjUmYBsiDulGUOGW8kbY+S34rEdp1xPz00jGwOVc1gbfuuGe/u+EsN9AtQBQLsoKN8x6+6TzeKaJ/qtCVA/BCBQkIBzP1WNf43GVQVrNjfLMgE9wwOlZALkU/HaobO+6zMBBACqyb8LUgDR6zcfBxAAgdoS8Enje5oAwPnk7THDyzIBjWbzpsSH/3aAcJVMwLyuzgQECABibn60QwACEKgxAZ98V+O9pNDX+5FFYE0ptrZZJqDR424WN/YHV+Ll2wEDSdduDAwQAGjS53yC1ne42PnrCVACBCBQlID/jiYDILYrXvwHH/vForV3i93ocsBpWQ5oBN8YOLoc0OjK5QB1AKC9q5J1B0C/dQtQPwQgYEXAJc1vyhiYasbBVjO5zUp/yHqz5YCeof6NXr4doOHR3tavG5qzYF+3fTtAHQAoo8eQ7VewrNg/Qceuv2CzYQYBCKgJvOYL970sn1D/RjWO++QfHNn8UBRfe5sJWBYEzBmav1F4hM8EJMm5IKB7WOkDACcTkOY5U4uU/XeN9szW+hG7fmt+1A+BmhNwTfe0agx3bulg39mtswXjisfuOdVsJjc5J3sCtOPrxfbrhnrPdM3GQH0AMFtaHT8gAAEI1JBA6iUAUD4a3t83W7IAGYqRPQGD826RL1lJJiD4Y+3gYFP2BNhnAtQBgKyXyK8rFX8GR5uzQI32zNb6Ebt+a37UD4G6Exiac/IpGUde1YwlaeKuGOg7+7/OJpYjmQDn5WZBDfkVweJzXFtb79YN9p41zwSoA4DZ1OD4AgEIQKBuBF7/yI6z8n3+P9T6LWX8Dz9578d+XltON9lnmYDewb7SMgEDgz2mmYAAAUDsm9DQ300XHFogAIHqCbSS5l7VRsCRbKjrSRvNf/+Dzb99SfUelFdjlgnocelNwmd/AEYidNycM5IJGDDLBBAAjG+MQq/L63idlTyuM0WpvzMvOQsCECiPwOv+r9/6C5mYvj9hcioynvjkDfIDQXv9dTt6ylNbfckXMgFlfDvArR0Y7DXJBAQIAKpvDGqEAAQgAIFwBOSnbOWGfsnvBinRJ7f8+LWLd8V+h8DJLLJMQO9A70aJi8JvDPTJusG+QblPQLUbA9UBgJevOWiekyFX/V6jPbO1fsSu35of9UMAAqMEXlg4/zMynhzSjimj42LjzsPv/9Qjsy0TMLocMHyT+Lg/BKcJZchvBwz0DVW6HKAOALh4IAABCEAgfgLXPnzXkCwBfDyUJ/Lx6LbDr13yR7NtT0C2HNA3MOcW8S98JiBJZDmgr7LlgAABQOxr0OgPdcFTDgQgEDeB4Z7Fn5Yg4AfqvQDn9g/I6HpLb9+8b/zovZ+aVd8OGF0OmLNRlk4kCNDOIRPt5WuDshwwXMlyAAGAuvGsL/iJnSd/Z7TWT/0QgEC3EHj9I//orHeNe/KPI9OOQ29oNNzXD79v56eef9/Oxd3iq1bH6HLAYCnfDsiCgIG+VunLAQECAC1G7CEAAQhAoFsIrNq77SuyIfCPAuvpkc9aH57rku8eev+nZs1dA0eXA5olLgfMK3U5QB0AtL3LkbR0p8cDd7LcxXWqc6rzclcY2GAqXZ0eDyyH4iAAgVlAQD7P/5ZsUDvW6TiS47yV8pO7v3u2Lz106P0PPPTj2x78pdi/LTC6HNCUXxFM5FcEO5/7OjlX7rC47mxfq7TlgCxvo3ocev+D2a8fFn6s+ty9ag2FKxdD9Nvy17QdthCAQHkEfvSBh25x3n9Jaih7jH5J1tLldrv+6/LFqu80fOMHrtU82r984OSbHvjwQHkehi05+wrf2T6/T0pdF7bkkdKenTvgNmbBRsiy9TdrKLtrhPS2XVnob0fF7Njh9z1wTdJwWySqvF5ErJbnAjMxVJwR6JfnQflltKe8b+xetffu58BSDwJX7r3ny/IB6RMy/W8v2ePLZPLfLHVszj5NtlyaJD1p0vdqIzn0gQdLrjpc8Wcl713iY93ZuT7LBAQNAvQBQOnBYYlIR4omAiibcCflP79tZ1/f8Z5PeO/vkvPVS1Od1Mk5HRHIArA13idrkiS9VwbkXSfPrti+5rH3DHZkzUlREzgyf84/W3F6+FoZ5t8RtSOzQ7wEAUnQIICBdnZ0jKi9yCb/3leb+xLv7xZH6JPd25pNyQbfs3jukX0HNj/a270yURaKQHZvgFbP4K9LeX8dqkzKURHIgoD/EOr6Uw+2nWxkmO4cFYoAxtNp6+RvASSoiuhE43TnqCoPZNz7as8nZWJZP51O/hZ2c5GGZ5o0Niya99L9gZqfYrqcwOsf+ciryVAqm9zcQU2/wTbYNfyroa4/dQCg/76ode/PlgA0T/RrCBx+36evEf5bdW2gaT9si7CX/QB3/+iDD8qyAI86EFj177b9pOH9jdJXDhbpL9iEHWdCXX8BAoA6dH98LItA2ki3SNn0w7IAl1du06fNO8srnpK7jcDrPnfP99Nm+kvy4y/f6jZtNdTTTNKebOxUPQIMvNrIRqU/gDH6A0BUFOFu4NOBtg/a2MtXt+QTIY86EXj9I/e8kPb0rZcg4M+5bm2uuwvcE/X1pw8AtAysrx7027aAS1apVmC07Yf9hfEkP4srbTsPtVsQkNsFv7rqxy9cL78g/K/k2pV71YgKnhYM1Nef+muA2caOmB/ot2094V/ql2dtvZv1tdN2s76J2zvo9u8Ylr/s+NEHdn1D7hj4iLxe2v5MjpZIYKG2bH0GQB36aV3Q2mtDV239WvvI9Tt32CJ0pk5tvxkJ/A9pey/2cRO4cu9vfrmn1XirLAl8kWsqxDWVtwxd/wkQAOgEYF1vAnKDmSfrTSBm790TMatHexgCr/38h368eu/W/16CgOzund8JUyqlVEEgQACQN2KZfH4Vbk5Xx2Q9ed9PV3YVf8urd/L5VWicuo6m3F5WPjm0+PQwuV26/n3LtXr2TN2y/KVuBFbv/dDTvjHnbdJzPywbRMnsqbPjnYwBul5GAKBuJF0D6K076STTnaNXoClh1d4tzyWusYsAYLo26r6/yfeQH7ry83d8W9P22M4+ArJB8OyVn936wKkzl7xRrukPyfN7XNtlXr+6PhRgE6BOgLV17LuYYteftX//6UXb5807cZVcJlkKkUeXE5D7mT11dF7rvi6XiTxDAud+K2K3/MjPnkMf3LM2Td1tst/3PSLpUkNZVD2JgDoASOT3G6N+oN+8+bLBQu5tvWnB/FP3y4CR/R5A01wUAtoRkKWa5KGX+1r3ZfeIb3cCxyAwnoAsBfjkD5K/lGN/+cPbP/NbLk3Xy5yxQa7zDXLs78gzQBZ6fI28zkNAHwDkqY1zITAFgXOfGLb96IMP75J7zd8pA0d2k4vVkuFQf9Vliio53AEBCe+z3x8/mLrkiaZze678DGn/DrBxShsC2fKAHN537pkcvnP30nQ4eZtc729OEn+VrMa+RX5Rd4X8/ZJzz0XyLz86JRDKegQIACLPAIzsASgLbxXlxs5/IqMr/2DrATlS9u+PT6yUdxCAQOUEXrdnyzGp9M/OPSuvvxsq/OEHf990FVcdAHAjHdtuFDt/W3rUDgEIQMCOgPX4zfqLXdtTMwQgAAEIQMCMgDoDMPoVDzP9ASqOPYUeu/4ATUgREIAABKIkYDt+kwGIstMgGgIQgAAEIKAjoM8A8DU6XQtorWPnr/UfewhAAAKxEjAev9UBgPUmBm27o19LEHsIQAACEChCwHr+YQmgSKthAwEIQAACEIicgDoDwCZA6x5gu4nE2nvqhwAEIBAvAdvxmwxAvD0H5RCAAAQgAIHCBMgAcCfAwp0HQwhAAAIQ0BCwzQCoAwDrTQwa9Jkt+rUEsYcABCAAgSIErOcfdQDAB+gizR7QxjaADOgIRUEAAhCoGQHj8VsfABABGPdY4x5k7D3VQwACEIiXgO34TQBAABPvtYNyCEAAAlETsA0A+BZA1J0H8RCAAAQgAIFiBNQZAOtNDMXcvmCF/gsseAUBCEAAAtURsJ5/yABU19bUBAEIQAACEOgaAuoMAHcCtG5L2zUka++pHwIQgEC8BGzHb30AYPxrRuqGR78aIQVAAAIQgEABAsbzD0sABdoMEwhAAAIQgEDsBNQZAOtNDNoGQL+WIPYQgAAEIFCEgPX8QwagSKthAwEIQAACEIicgDoDwCZA6x5gu4nE2nvqhwAEIBAvAdvxmwCAOwHGe+2gHAIQgEDUBGwDAJYAou48iIcABCAAAQgUI6DOAHjjrzEUc/uCFfovsOAVBCAAAQhUR8B6/lEHAOwBqK6ztK/JNoXUXhNHIQABCEBgZgK24zdLADO3EGdAAAIQgAAEZh0BMgBsApx1nRqHIAABCMRBwDYDoA4AfByUp1SJ/inR8AcIQAACECiRgPX8ow4A2ANQYu/oqGjbCLIjiZwEAQhAAAJtCNiO3wQALAG06ZR2h/729j++xjUaW+TLJddLdLxalCywUxOk5n65xA/KLT+fShO3++o9Nz8XpNQpCpmF/KbwlMMQ6IhApddfR4omnBR9ADDBG95AoBCB57c93tc63fpEkvi7pICGdWqskBPtjRaIL2vErzWNxN/7t3d8aVd6cmD7msfeM9j+9GJHZzG/YkCwgsAogUquv1hh6zMAkd8HIEG/ed8dmbzOtvZJMmZ9/EtK0+JsOufuaV4y7+cObH50Y6ggoEb8poXLHyEwA4FSrr8Z6pz+z8bzjzoAiP2TGvqn759V/HXoTOuTkgiTyb82jw2NS+fdL95uC+FxDfmFwEYZ9SUQ9PrTYLSefwLcByBbw9A8NfhC2Gq0Z7bWj7j1/+3W/3iNS9xWXR/SMjCw9+7uAx/6E1ka0D1qy0815hi0N3qlo3cR90DXn+7qzay1THQK1BmAUQd0ImytswaI+RG5/jTZIn0oQCAaXRs2G0nzTlG9XaW8vvxU2DCuPYEw158ao+34XceBV91kFBCQgEtuCFhaXEX55Ea14DrzU8OjgFoTCHH9RQ6QDMBICibmVrSNINXkvFulLiPeAq5US683PzU+Cqg1Af31p8ZnO36rAwDrTQxa/ujXEtTZC//Ym6A4AKf3vdb8ipPHEgLZ6rX52GMtQB0A8DU64yvJ+Gskau+dOyxlXK0uJ8YCnD+kll1nfmp4FFBrAiGuPy1A4/FbHwCQQtd2AaW9bQpJKV7M3ZPyv1oGAN67J+CnJ0AJEChCIMz1V6Tm8Ta24zebAMe3Ba+rJ5C63VJpq/qKzWtsJY10j1pFffmp0VFArQmEuf4iRxggAMgiGM3TmqBGu230Nkoubv1X7/m156T77NL1IS2D6u2ddw+t+fSmb2t7f1351a2/4G/YazTU9ae9fvXtqlOgXgKQHznRKTC2Rr9xA0j1/pUT25NLLr1KutL19mqqUOCfOt1Ydl+omurHLxQ5yqkngbDXn4ah9fwTIAOgcR9bCMgv5WQ/jHP81U3C4kF5zublgJbsO955xi3bdO3D1w6Favsa8QuFjHLqSaCU6y9mlOoMwGgKI2YEcWcw4uc/2nfO/TDOtgMfenqXS1p3eic3yfHJavnrwph7l2g/JZmNg4n3TySNxp41n75BnfZvx2MW82vnLscg0CmBSq6/TsVcfJ7t/KMPAGz1X8wz7xH05yVW6vlr/u2GA1KB7va4pSrs7sLh193tgzoITCBgPP/oA4DI9wDE/wnauAdN6M28gQAEIACBzgnYjt/qAMB6E0PnoNufif72XDgKAQhAAALlErCef9gEWG77UjoEIAABCECgKwmoMwCk0K3b1TaFZO099UMAAhCIl4Dt+E0GIN6eg3IIQAACEIBAYQJkANjEWLjzYAgBCEAAAhoCthkAdQDgjX/NSIM+s0W/liD2EIAABCBQhID1/MMSQJFWwwYCEIAABCAQOQF1BoBNgNY9wDaFZO099UMAAhCIl4Dt+E0AwB6AeK8dlEMAAhCImkDkAYCPGr7sAUB/5ASQDwEIQCBOAtbzDxkAMgBxXjmohgAEIBA9AdsMAJsAo+9AOAABCEAAAhDIT0CfAYj8a4AJ+vP3GiwgAAEIQEBPwHj+0QcApND1nUBVgm0KSSUdYwhAAAK1JmA7fqsDAOtNDNq+g34tQewhAAEIQKAIAev5Rx0AcB+AIs0e0sY2ggzpCWVBAAIQqBcB2/GbTYD16m14CwEIQAACEBghQAaAPQxcChCAAAQgYELANgNAAEAAYNLtqRQCEIAABCIPALytfnX/Qb8aIQVAAAIQgEABAtbzDxkAMgAFui0mEIAABCCgJ2D7CZpNgPoWpAQIQAACEIBAdATIAJABiK7TIhgCEIDA7CBgmwEgACAAmB3XEV5AAAIQiI5A5AGA9Z2MtO2Nfi1B7CEAAQhAoAgB6/mHDAAZgCL9FhsIQAACEFATiDwDwK/pqXuArgDjX5PSiccaAhCAQI0JGI/ffAugxn0P1yEAAQhAoL4EWAJgCaC+vR/PIQABCJgSiHwJwHoTg7bt0K8liD0EIAABCBQhYD3/kAEgA1Ck35Zm81/u/etrGmm6JUn89VLJankuKK0yCobAzAT65ZSDMlA/1ZM2dr9111ufm9mk+Bn0/+LsprCstP2m0DDN4cgzAAkT6DSNW8WfbDtQKA+f3/Z838nhU59I0vQuKVP2pswOv0LxoRwzAlkAukZ645pWw9/7zXu+tav3yJztax5bMxhSEf0/JM0JZVXSfhNqzPXGdpxjE2CuxuLkMghkg9+JVv8++UbJ3VI+fbIMyJQZgkDT++SegRVD+w5sPtAbosCsDPp/KJIzllNK+81YaxefoF8CMP4ag5ot+tUItQWcbJ3+pHNuvbYc7CFQEYENA5cP3S91bQtRH/0/BMVcZQRtv1w1Tz7ZeP5Rf9rKNjFonpN5VP1eoz2ztX7Erj9b85SfxNyq9QN73XUIv5z8vLv7W/d8a432+qf/5+QuwIP01UDtp21/rS/a+vUZgOjXam3XYLQNGPtaecP7LT5x6kBUz5ESIJCLQLPl3J1isT2X1aST6f+TgFT3Nkj76eXazj8EAAQw+j6sKMEnjRsU5phCwJLAjdrK6f9agip7dfupah8xtg0A+OSlb0FK0BFYpTPHGgJGBHxyZYCa6f8BIBYqIkz7Faq6W4zUGQBJ33aLL4V0oL8QtmBGwj9bBuMBgRgJqPsu/d+02dXtp1VvPf+oA4DY16DRr+3CWnt3WEq4WlsK9hConIBLDunrpP/rGRYsIUj7Faz7vJntB2h9AGCr/zzGwi/QXxhdEEOXPCnlEAAEgUkhlRJwyRPq+uj/aoSFCwjRfoUrP2doPP/oA4DIlwDIAGh7sM7eN9xulyb3SilNXUlYQ6BSAq1G4vdoa6T/awkWtg/SfoVrP29oGwGwCfB8Q/DCgsAv7Lz6ObkPwC6LuqkTAoUJePfQ331gzbcL258zpP9rCRa0D9R+BWvvGjN1BsB6E4OWJPq1BPX285f57aePNq9K/MgPAOkLpAQIlEvgKTfUf1+oKuj/oUh2XE7Q9uu41jYnWs8/ATIAWQpD82xDpdJDGu226ZtRTLHrl19Z2bFmcP6y1ib5GYAHpS+1dP1JywN7+E/ZB1reu51usH/TtQ9fOxRqmKL/T8lbEAf9Wyntp+sHWv90taszALrqsYbAKIFsEJRX2/7zPQd2OdeQO6y57CYdq+W5UJ48IGBF4JRUfFC+rfpEK+nZ8/YH36RO+7dzhP7fjkqQY5W0XxClBoUECACyCCbmB/q7qfV+8aE1B0SP6vaq3eQPWiCQhwD9Pw+t2XCu7fyjDwBs9et7APr1DCkBAhCAAATyEzCef9QBgPUmhvzEJ1qgfyIP3kEAAhCAQDUErOcfdQAwukmjGljl1GIcgqmdil2/GgAFQAACEIiUgO34HeBbAJFyRzYEIAABCECgxgTIAHAnwxp3f1yHAAQgYEmADIAlfeqGAAQgAAEI1JKAOgNgvYlB22ro1xLEHgIQgAAEihCwnn/UAQCbAIs0e0gb2xRSSE8oCwIQgEC9CNiO3/oAwFa/vq+gX8+QEiAAAQhAID8B4/lHHwCwiS5/owe1MO5BQX2hMAhAAAJ1ImA7fhMAEMDU6WrDVwhAAAJdRCDyAMB3EcoiUtBfhBo2EIAABCCgJWA9/5ABIAOg7cPYQwACEIBAIQK2GQDuBFio0TCCAAQgAAEIxE2ADAAZgLh7MOohAAEIREvANgOgDwCcrQPqdke/GiEFQAACEIBAAQLG8486ALDexFAA+QQT9E/AwRsIQAACEKiIgPX8ow4AuBNgRT1lymoiz8BM6Rd/gAAEIDDbCdiO32wCnO39C/8gAAEIQAACbQiQAWATYJtuwSEIQAACECifgG0GQB0AWP+akbaB0K8liD0EIAABCBQhYD3/sARQpNWwgQAEIAABCEROQJ0BSIy/xqDmj341QgqAAAQgAIECBIznH30AwBp6gVYPaWK7hhTSE8qCAAQgUC8CtuM3SwD16m14CwEIQAACEBghoM4AWG9i0LYj+rUEsYcABCAAgSIErOcfMgBFWg0bCEAAAhCAQOQE1BkA7gRo3QNs15Csvad+CEAAAvESsB2/CQDYxBjvtYNyCEAAAlETiD0AsNWvb3r06xlSAgQgAAEI5CdgPP+oMwDWmxjyE59ogf6JPHgHAQhAAALVELCef9QBQDWYqKUuBL72kWPXtJJ0iwTG14vPq+W5oC6+d6mf/aLroLTHU0mrsfuXdy59rkydtH+ZdGtZdqX9NzbCAQIA4xyGmjj61QgDFPD4Nt+3uHn0E2ni73KJ49spAZgGKiILwNbI75avSZr+3me3H9u1ZPGS7Wt2uMFA5Y8UQ/uHpElZ4whU0n/H1Zfzpe38ow4AvK3+nLAvPh39FzOp+kg2+C+a88o+SYetr7pu6stFoJkk/p5Xjh/7uQM7/MZQQQDtn6sNOLk4gVL6b3E5cjUZz5/6AEDjfRfYyiebqB+x68/gL+w9+knvmfxj6YgyaG04euKV+0XvthCaaf8QFCmjUwKh+2+n9bY7z3r8VqdaMwc0z3ZQqjym0W7deBmn2PV/Vdb8ZfLfqvUDe31fyMfQ3/3sR46u0V6rtH/V7UZ9o/08TP/V9v9819zFbaetX58BME5haAFYp2DQ77fIrRjUgaiWI/a5CTSHXXKnWG3PbTnOwDvafxwOXlZHIEj/1cq1nn/0AYCWgLF9FoHF/Ihdv0z+N0TvQ8wdSKf9Rp25WNP+aoQUUJiAvv8WrnrU0Hrs0wcAZACUXUBnbh1B6tQnSeqSVdoysDcjcKW2ZtpfSxB7BQF1/1XUPWJqPX6rA4BUS8DYHv22DSD8rYNgWwBx165uO9o/7g4QuXp1/9X6bz3/qAMA6whG2wDo1xLU2Qv/w1LC1bpSsDYicEhbL+2vJYi9goC6/yrqHjG1nn/0AYCWgLG9eQio9H8W6H9SEBAAKPuBiblLntDWK/2X9tdCxL4YgQD9t1jFF6ysx299AMAegAutafDKOoLUuixfAdydNPy9Uo7cpINHRARarVayR6uX9tcSxL4ggSD9t2Dd582sx2/116+yCEbzPE/C6IVGu3X0liGLXf+vfWzpczIJ7NL6gb2+L+RhKF3voU33L/u29rKl/atttzxtPJvPDdV/tf1fy1hbPxkAMhjaPqS2P7FgyfZFZ45dJQVdry6MAqog8NTyV5beF6oi2j8UScrpkEDQ/tthnW1PIwPQFkt1B60jMK2nsevP/H+P/LDMyXlLN3nnHhR/WlqfsC/tU2VLvra387JXlm669mE3pO27Y/a0f2ntpc4QzrJrqZT+O9aPi/yr5VukzvE2ZADIAIzvD2avs0lAKt/2p//j0V2t0TvM3SgXx2ppnoVmoqg4m0BOSRsclBdPyG807nnn/6FP+7fDSvu3o8IxLYGq+m9RndYZAH0AUNTzLrHLIrCYH7Hrn8z+pt9ZdkCOqW4vO7lM3sdDgPaPp61QqidgPX7rAwA+Qet7gaIE6whSIR1TCEAAArUmYD1+6wOAyJvPOgLT4otdv9Z/7CEAAQjESsB6/NYHAGQATPuedQRp6jyVQwACEIiYgPX4rQ8AIoafSbeOwLT4Ytev9R97CEAAArESsB6/CQBi7TnndFt3oMjxIR8CEICAGQHr8VsfALAEYNZ5soqtU0imzlM5BCAAgYgJWI/f+gAgYviZdOsITIsvdv1a/7GHAAQgECsB6/FbHwCQATDte9YRpKnzVA4BCEAgYgLW47c+AIgYfibdOgLT4otdv9Z/7CEAAQjESsB6/NYHAGQATPuedQRp6jyVQwACEIiYgPX4rQ8AIoafSbeOwLT4Ytev9R97CEAAArESsB6/9QEAGQDTvmcdQZo6T+UQgAAEIiZgPX7rA4CI4WfSrSMwLb7Y9Wv9xx4CEIBArASsx299AEAGwLTvWUeQps5TOQQgAIGICViP3/oAIGL4mXTrCEyLL3b9Wv+xhwAEIBArAevxWx8AOGsXdE3v0a8DiDUEIAABCBQiYD3/6AOAQm53j1Hc4Uv8GYzu6QkogQAEIFAtAev5hwCg2vYOXpt1BwruEAVCAAIQqAkB6/FbHwCwCdC0q1pvIjF1nsohAAEIREzAevzWBwARw8+kW0dgWnyx69f6jz0EIACBWAlYj9/6AIAMgGnfs44gTZ2ncghAAAIRE7Aev/UBQMTwM+nWEZgWX+z6tf5jDwEIQCBWAtbjtz4AIANg2vesI0hT56kcAhCAQMQErMdvfQAQMfxMunUEpsUXu36t/9hDAAIQiJWA9fitDwDIAJj2PesI0tR5KocABCAQMQHr8VsfAEQMP5NuHYFp8cWuX+s/9hCAAARiJWA9fusDADIApn3POoI0dZ7KIQABCERMwHr81gcAEcPPpFtHYFp8sevX+o89BCAAgVgJWI/f+gCADIBp37OOIE2dp3IIQAACEROwHr/1AUDE8DPp1hGYFl/s+rX+Yw8BCEAgVgLW4zcBQKw955xu6w4UOT7kQwACEDAjYD1+6wMAlgDMOk9WsXUKKbTzD/z2sWucT7dIudfLc7U8F8iTBwTqSqBfHD8ow+xTjbSx++5/vvS5MkHMwuuvUn5528Z6/NYHAHk97rLzrSMwLY7Y9Y/5v3Pn833JqSWfSHx6l/jUGDvOvxCoOYEsAF4j18SatJHeu/N/f3nXscFl23fscIMhuczi668SfkXbwnr81gcAZACKtn0QO+sIMoQTI4PP6SX7ZNpfb31BhPCHMiBQEoFm4pJ7ls49+nM7dviNoYKAGl1/pfDTtLX1+K0PADTed4Ft7BNO7PqzLuDPLPmk/LO+C7oDEiAQA4ENS/uO3i9Ct4UQW8PrLyg/TRtYj9/qVGsWwWieGnghbDXaraO3zP/Y9X9c1vzlItiq9QN7fV+AYTwM00Zy98d/++ga7RhY1+svFD8tf+01p62fDICWoLG9dQSpdt+lW8QHdSCq1kEBEIiLQLORpHeK5O0q2fW9/sLwU8GXgFNprzXXBwDsAdC2gco+iyCjfrjkBuuLIGp+iK8tgdS5G9XO1/j6C8JP2QDW47c+AFACsDaPffKJXr9LVpmHwdadkPohUIzAlcXMLljJBFTn60/N7wLJYq+sx291AJBG/gkU/cU6biirNMuCRd6HQrGgHAjkJKCeP2p+/an55Wyvi063nn/UAYA5wYuQ5juA/ny8Qp8t/A9LmVeHLpfyIFADAoe0Ptb8+lPzC8BfW4TKngBAhc/eOPYAJvXJk84RANj3JBTER8A/odVc7+tPz0/L33r81gcAkadvrTdhqDtQ5PxbrrG76dJ7hUNTywJ7CNSIQCtNGnu0/tb4+gvCT8vfev5Rf/0qi2A0Ty1Arb1Gu3X0lvkeu/5//tGlz8k65C6tH9jr+wIMI2Lokof+5/uWfVs7/tX2+gvET8tfe81p6w+QAchciPfhHfqtW2/w1LLtvYtevkp0ZD8AxAMCEJiOgE+eWrZw+X3TnZLnb7W7/gLzy8N68rnW8w8ZAGkRTRQ2uUGrfq/R3i2hT3ZP88GTyzdJSzwomlpan7DX9Wn4dS2/VpK4ncsWLd90111uKNRYU6PrrxR+mnbQXmuaujPbABkArQRbe+s1GK33sesf8//cD5ts+9cfP7qrKXc4897fmDi3Wv6+cOwc/oVADQmcSrw/mDTcE41WY0+ItH87hrP4+quEXzumnRyzHr/1AUAnXnbxOVkEFvMjdv2T2f8v25cdkGO625tOLpT3EIBARwS4/jrCFOwk6/FbHwBEvgvdOgLT9qTY9Wv9xx4CEIBArASsx299ABAr+XO6rSMwLb7Y9Wv9xx4CEIBArASsx299AEAGwLTvWUeQps5TOQQgAIGICViP3/oAIGL4mXTrCEyLL3b9Wv+xhwAEIBArAevxWx8AkAEw7XvWEaSp81QOAQhAIGIC1uO3PgCIGH4m3ToC0+KLXb/Wf+whAAEIxErAevwmAIi155zTbd2BIseHfAhAAAJmBKzHb30AwBKAWefJKrZOIZk6T+UQgAAEIiZgPX7rA4CI4WfSrSMwLb7Y9Wv9xx4CEIBArASsx299AEAGwLTvWUeQps5TOQQgAIGICViP3/oAIGL4mXTrCEyLL3b9Wv+xhwAEIBArAevxWx0AJJFnANAf66WDbghAAAKREzCeP9UBgHUEo21+9GsJYg8BCEAAAkUIWM8/BABFWq2LbKw7UBehQAoEIACBqAhYj9/6AMA4haFtbetNGHXXr/UfewhAAAKxErCef/QBQKzkz+m2jsC0+GLXr/UfewhAAAKxErAev/UBABkA075nHUGaOk/lEIAABCImYD1+NyJmh3QIQAACEIAABAoS0GcAClbcLWbWKRgth9j1a/3HHgIQgECsBKzHb30AwBKAad+zTiGZOk/lEIAABCImYD1+6wOAiOFn0q0jMC2+2PVr/cceAhCAQKwErMdvAoBYe8453dYdKHJ8yIcABCBgRsB6/NYHACwBmHWerGLrFJKp81QOAQhAIGIC1uM33wKIuPMgHQIQgAAEIFCUABkAMhhF+w52EIAABCCgIGCdAdAHAArnu8HUeg1GyyB2/Vr/sYcABCAQKwHr8ZsAINaec063dQeKHB/yIQABCJgRsB6/9QEAKXSzzpNVbJ1CMnWeyiEAAQhETMB6/NYHABHDz6RbR2BafLHr1/qPPQQgAIFYCViP3/oAgAyAad+zjiBNnadyCEAAAhETsB6/+RpgxJ0H6RCAAAQgAIGiBPQZgKI1d4mddQpGiyF2/ZP93/rpF65pNHq2+MRfL39bLc8Fk8+p2ft+8fdg4txTLmns3rVl6XNl+g//4HRpv+BIcxVYKf9cyuRk6/FbHwCwBJC3zYOeb51CCuXMtp3P9w3Mv/QTUt5daeLJTF0AmwVAa2SoWOOT1r1b9xzZ9cqiy7Y/9h43eOEU/Sv46xlOUQLtNwWYig5Xwr+oL9bjt3qgzSIYzbMouFB2Gu3W0VvGIHb9mQ/Z5HN2/qX7xJe75dnQ+jSL7Zveu3suPfnyvs2P+t6MXYgH/PXXUYd9jvaTDtshqzLOK4W/5hrUstDUndkSAAgETSNoG0Brr9Ge2XbD48y8Sz8pWtZrfamNvU82XHripftDtR38dWNA7n5H+6nG3Ny85UKZYBOYv+Y6nKBrss4O3mvqzmz1AYAsAWRpjKJPrQNa+6K6x+y09Wvtx3QU/Vdbv9b+9s+8cI0k/LcW1V9Xu9S5uz/08FFZGtA94F987NL0PdrPhvtYm4Xir7v69Ay09asDAHFBNGieWhe09hrtma31I279jbSxRfqP9EOtH7Wzb6aN4Tu1vQ/+Zv2G9rO95oPw115/+nFPp4BNgGxi1PUgrbXzN/gk8kbQMihq79yNRU3P28H/PIrKX9B+lSOfUGEI/hMKzP8my0hYPvQBgKX6AHVn8X/Mj/j1u1Ux8zfWfqW2fgm+4K+FWNye9ivOLoSlmr9WhPX4TQCgbUFje+sOpHVf9MfughaBxl7NDv4a/Gpb2k+NUFWAmr+qdjG2FqAPAIxTGOoGQL8WocreO384SdzVqkLqauySQ1rX4a8lqLCn/RTwApgG4K9VwRKAlqDS3joCU8o3jyD1+t2TUgYBQBGQ3j9RxGy8jSwBwH88kCpf035V0r64rgD8Ly403xHr+SfAtwDyOczZEBhPwLfS3fK+Nf4Yrzsi0Gr5nj0dnTnNSfCfBk65f6L9yuU7U+lB+M9USbf/XR0AjH2vsui/1oCK6h6zQ7+OwN4tK58TlrvGePKvrAvKslQHz4c+f8eyb+voJwn8O2LdSXvkPYf266yf5+Xa6flB+Guvvw6u82n90dav3wOgVWBsb52C0bofu/7M/7PzL9ved/rlq2Qozn4AiMcMBCRt/9SCgeX3zXBax3+Gf8eogpxI+wXBWLiQ0PwLCxFD6/GbDIAyCtU0fghb6wgyhA/ZD9sMzF++KXXJg+JPS+vTLLZvyS2Tdsrkv+nhu9xQCPZZGfCvLAtA+ynHW+W1XQp/zXWo9EdT9YgtGQA1QtsCrCPIUN6f+3W7bf/wkZ/uco3GnfKjNzfKWLFayl8Yqo5IyzklbXzQJf4J1+zZ8/n369P+7TjAvx2VIMdovyAYCxdSCf+i6qzHbwKAoi3XJXbWHSg0hi/cfsUBKXN76HIprzMC8O+MU7eeRft1a8u012U9fqsDgOjv4iofM6N+xK4/aviIhwAEIKAgYDx+qwMA6whGgX7EFP1agthDAAIQgEARAtbzjz4AMI5gikAfb5Ntwoj5Ebv+mNmjHQIQgICGgPX4rQ8ANN53ga11BKZFELt+rf/YQwACEIiVgPX4TQAQa885p9u6A0WOD/kQgAAEzAhYj9/6AIAUulnnySq2TiGZOk/lEIAABCImYD1+6wOAiOFn0q0jMC2+2PVr/cceAhCAQKwErMdv9Z0AYwWPbghAAAIQgECdCegzACwBmPYf6xSSqfNUDgEIQCBiAtbjtz4AiBh+Jt06BaPFF7t+rf/YQwACEIiVgPX4rQ8AyACY9j3rCNLUeSqHAAQgEDEB6/FbHwBEDD+Tbh2BafHFrl/rP/YQgAAEYiVgPX4TAMTac87ptu5AkeNDPgQgAAEzAtbjtzoA4MeAzPrOaMWRL8EY06N6CEAAAnYEjMdvdQBgHcFoWw79WoLYQwACEIBAEQLW8w8BQJFW6yIb6w7URSiQAgEIQCAqAtbjtz4AME5haFvbehdm3fVr/cceAhCAQKwErOcf7gQYa89BNwQgAAEIQEBBQJ8BUFTeDabWKRgtg9j1a/3HHgIQgECsBKzHb30AwBKAad+zTiGZOk/lEIAABCImYD1+swQQcedBOgQgAAEIQKAoAX0GoGjNXWJnnYLRYohdv9Z/7CEAAQjESsB6/NYHACwBmPY96xSSqfNUDgEIQCBiAtbjN0sAEXcepEMAAhCAAASKEtBnAIrW3CV21ikYLYbY9Wv9xx4CEIBArASsx299AMASgGnfs04hmTpP5RCAAAQiJmA9frMEEHHnQToEIAABCECgKAF9BqBozV1iZ52C0WKIXb/Wf+whAAEIxErAevzWBwAsAZj2PesUkqnzVA4BCEAgYgLW4zdLABF3HqRDAAIQgAAEihLQZwCK1twldtYpGC2G2PVr/cceAhCAQKwErMdvfQDAEoBp37NOIYV2/h1//MI1zeHGlsS565PEr5byF4Sug/JyEehPEnfQOf9UmqS799+68rlc1jlPpv1zApv59Lq3X6X+z9wcE8+wHr/VAcBEd3gHgWIENj7+fN/ZM5d+Imn5uxKXyNKUdWxczI9ZaCUBmF/jfbJGmuXe9X94ZNfy9LLtj73HDYb0lfYPSXNCWXVvv0r8n0A8ojfqPQDZMK15WrPSaO+GKSp2/Vn7Z4P/mTOX7POJv1v8aWh9wl53TU7DrymfWO450jyyb/OjvjfUtUv7l9Zek8fmurdfKf5rroNprrXJbdf2vabuzJYAQCBoGkHbAFp7jfbMthse/acv/aRoWa/1BXtdX+6UnywJbHix+dL9ofoO7V9Nu421b93bL7T/mutgrE2K/qupO7NVBwCSrhWeimemwvKh0d4N+x8i15+t+bqG36rqQ1oG2Oe+hp1L7l7/hz9do710aX8haND/6t5+ofzX9n912ysFqAOAopHLmJ1Sv9p8TEfRf9UClAUU1T1mp6xeb542togW0v5CcqxNIvm3mTYad6o7AO1v1e51b78w/isvAO21rqw+UW8CzByI+YF+29aTdf8bRj8CwFrxzQAAD15JREFU2eqg9vwE0sTdmN9qogXtP5FHle/q3n4h/Ne2l/X8ow8AsvRVxA/rr2Fo0cWv363SMsDejMCV2pq9o/21DBX2dW8/tf8K9iOm1uO3eglACwD72hOwDoJr3wAKACHaLkQZChdqbRqCfYgyrBohZu1BmOkzAEFk2BUSew+IX78/LEsAV9v1AGpWEDiksB0xlSUA2l8Lsbh93dtP7X9x9KOW1uO3PgBgCUDbB1T21ikklXgx9ol7UnbCEgBoQVrYe/+EtlraX0tQYV/39gvgv4L+iKn1+M0SgLYFsdcR8OluKaClKwRrAwKtpuvZo66X9lcjLFhA3dsvjP8F4XeLmToAyFIYmqc1CI126/RNxi52/V+Te8uLD7u0fmCv7wt5GKZJ8tBf/L1l39Zev7R/te021sZ1b79Q/mv7/1h7FP1XWz9LACxhaPuQ2v7E4GXbF/W+fFXivPwAEI/uJ+CeGnph+X2hdNL+oUh2Wk7d2y+s/51Sb3ceSwDtqHCsVgQOyA/LnBxcvkmcflCeLAd0b+u3ZL/GTpn8N33jLjcUSibtH4rkjOXUvf1K8X9G6l18gj4D0MXOdSItS73E/Ihd/xj7bBKQ19t+4U9+uquZyB3mUnejRMer5djCsXP414TAKeeTg6nzTzjfs+c//bo+7d/OC9q/HZUgx+refpX4X7SlrMdvfQBACr1o2wexs04hBXFiXCF/9a4rDsjb7eMO8bJGBGj/uBub9svXftbjt3oTYD53ORsCEIAABCAAgW4goM8AdIMXCg3WKRiF9BHT2PVr/cceAhCAQKwErMdvfQDAEoBp37NOIZk6T+UQgAAEIiZgPX6zBBBx50E6BCAAAQhAoCgBfQagaM1dYmedgtFiiF2/1n/sIQABCMRKwHr81gcALAGY9j3rFJKp81QOAQhAIGIC1uM3SwARdx6kQwACEIAABIoS0GcAitbcJXbWKRgthtj1a/3HHgIQgECsBKzHbwKAWHvOOd3WHShyfMiHAAQgYEbAevxWBwByb/C4H+iPu/1QDwEIQCBWAsbzjzoAsI5gtO2Ofi1B7CEAAQhAoAgB6/mHAKBIq3WRjXUH6iIUSIEABCAQFQHr8VsdALAEYNzfjFNIxt5TPQQgAIF4CRiP3+oAwDqC0bY8+rUEsYcABCAAgSIErOcfAoAirdZFNtYdqItQIAUCEIBAVASsx291AMASgHF/M04hGXtP9RCAAATiJWA8fqsDAOsIRtvy6NcSxB4CEIAABIoQsJ5/uBVwkVbDBgIQgAAEIBA5ATIAkTegdQQZOT7kQwACEDAjYD1+kwEwa3oqhgAEIAABCNgR0GcAjDcxaNFZ/xxj3fVr/cceAhCAQKwErOcfMgCx9hx0QwACEIAABBQE9BkAReXdYGq9BqNlELt+rf/YQwACEIiVgPX4TQYg1p6DbghAAAIQgICCgD4DwB4ABX69qfUakt4DSoAABCBQTwLW4zcZgHr2O7yGAAQgAIGaE9BnACIHaL0Go8UXu36t/9hDAAIQiJWA9fhNBiDWnoNuCEAAAhCAgIKAPgPAHgAFfr2p9RqS3gNKgAAEIFBPAtbjNxmAevY7vIYABCAAgZoT0GcAIgdovQajxRe7fq3/2EMAAhCIlYD1+E0GINaeg24IQAACEICAggAZAAW8bjC1jiC7gQEaIAABCMRIwHr8VgcAibN2Qdns6FcCxBwCEIAABAoRMJ5/1AFA5NN/gv5C3RYjCEAAAhBQErCef9gDoGxAzCEAAQhAAAIxEiADEGOrjdNsHUGOk8JLCEAAAhDIQcB6/FYHAEnkNwJCf47eyqkQgAAEIBCOgPH8qQ4ArCMYbUugX0sQewhAAAIQKELAev5R7wEQBwYzJ4o+1zx6oLcIuFA2onu4qPbMDv2hWoJyIAABCNSHwBsff75PM/eI7YCWljoAEAGnNCKOL168UGMfwPa0pgz0a+hhCwEIQKCuBBYuVnnukhMqezHWLwGMilhaWEhfX2Z7rLC90lCiqH7ZB1C8IdCvbAHMIQABCNSPwJneniVNl2ocP6kxzmxDZAB0IlrJG7VOqOyde1Vlj34VPowhAAEI1JFATyN5k8pvr88AqAMA+QT9gmYdo+HSq1QQlMbe+0PoV0LEHAIQgAAEchFI0/QtmrnHN5IXclXY5mR1ACDp8++1KbfjQ9413t7xySWc6FxySFMs+jX0sIUABCBQTwLeJb+k8dx7912NfWar3wPg3XdGvwNQUIr36xPxJHE2N0VOE/cD9NvxL9hrMIMABCAQL4Ed8vk9OXJdlgEo+nCJVwcA6gxAw4uI7GYGxZ8rXvvMi79YFILWTvT/V4X2zG/0axsBewhAAAI1IvCaXznydpk7lmvmnrQbAoDhZuubEsWkqrWMxN1m1fbp8OA3RLtHv1ULUC8EIACBehFwjeQDujknSd3Q0Le01ILciPBnnn4xE/JWhZhjg85d+dL6Fap7ChSt/2f+7MXvSSSm2ZGJ/qLwsYMABCBQIwLLn31pUd9g+iNxeUlRt2Xi/saPN1x+bVH7MTv1EkBWkHyT8WllNLO01/utY6Kq/tc3/FfQb8e/6vamPghAAAJWBHoH07tlvlmimXNkzv2zEPqDBAAN55/WrGVktrIN7b7LnjliclfA1DUeR78d/xAdmTIgAAEIdDuBpY8fXSxzzXb9fOOeCeFrkADA9Q1l0chxTUQjtlfMSfyOEE7lLWOu739G6j+Ffhv+eduL8yEAAQjESKBvXutfyTxzuWquccmxBWeOPxPC/yABwI/Xvu6MT9xjWkEC5beuePqln9eWk9f+4PrXn5UkxBfz2k0+H/2TifAeAhCAAAQyAiv3//QXJNd9r5qGTx79/qY3qX8IKNMRJAAYcShN9qodk/sSOJf++yVPHrskQFm5ikiT9JFcBu1PRn97LhyFAAQgUFsCq5955VKXNP6dAFDfe6fhks+GAhksAPjphsv+Qj4Bf1+ehX8aOLOVzQ1v6OsZ3ps849Wg8kB64bqVX0W/Hf88bcW5EIAABKIhIHPZ2WTgc/Jd85/Vzo9i/93/71dXfD2U78ECgOxOfnIvv98NI8zfckXy0q6ROwSGKXDmUrI7Ebrk4zOf2MkZ6O+EEudAAAIQmNUE5C63K/2LD8sd494Zwk8p7t+EvGtuuABAvPvp4hWfkUn0UBBHE3/nyq8eeaTKTMDC0yd+X/T/BP1ZFqd6/iG4UwYEIACBriDwqG9e/syRT8uE/Y/C6HGHl7/80ufClDVaStAAILnWDUka4OParzict0+S21a6l/6oqj0B2cYK2Qx4//n65Y3qNfpD9lXKggAEIBAFgWzOWnn5i1+SO/59SDWHTJiD/G8feM+awZAAwgYAomxeeubTsk7xgwBrHef2EvhbeucMfaOqbwcsOH3iIdGu3stwwX/0h+ywlAUBCECgmwlku/1lzvqvkq5/54V5QLc3Tvz9nmSo94T2O4svgj9WPP3ir0nk86eBCx4WhL83NHfOvzz29mUnApc9objLv/rCu+TORF+acFD/Bv16hpQAAQhAoCsJXP6VFxa4XvdRuand/yQCe0OKlJ/L3fTCdSv2hSwzK6uUACAreOX+F78o0c+t2evAjxdkN+X9smNvV5m/HXD5/iNfloDj5sDas+LQXwJUioQABCBgQSC7g23T+ez2vvdJ/SvCa/CPvnjdyr8fvtwSA4Cfeeboa4fd8P8jopeWIVzKfEWAf0H+/dyR7GsR2S7+gA9p1JVyi+O/kSKXByx2fFHoH0+D1xCAAARiIeB9Y8WfH3m7rKF/QD6QZpNz4R/2mcHll1s9jbe+vO6yIJvTJ9dVWgYgq+jy/S/cIp/Us1R6qfVI+S9JBfslAvi6d+47vuV+0OuGjs4/039Sc8ekFV998VbZiKC+Q2DGYoYH+mcAxJ8hAAEIVE3gjY8/33d63oJFA0nv8kYj/VmX+J+TOeHtouM6eZb14XDMTdlG4G5+6VdXPD52IPS/ZU/MyYr9L94voreHFk55EIAABCAAgdlKQHLav/Pi+sv/WZn+Bf8WwGSxRxauyBz488nHeQ8BCEAAAhCAwMUEJHP+zIuLVvzLi/8S9kjpAUB2b4DhuT23iOxvhZVOaRCAAAQgAIFZR+BvhvycW7O5s2zPSl8CGHNg+bMvvca10r+U96vHjvEvBCAAAQhAAALnCfzQu8Yvv/yOy356/kiJL8rPAJwTP7KLMXU3ytuDJfpD0RCAAAQgAIEYCfzQDSc3VjX5Z4AqCwCyyuR7+99PUvdL8pLlgAwIDwhAAAIQgECSPJcON3/lyPWX/6BKGJUtAYx36lL5beSexmD29cB3jD/OawhAAAIQgEC9CLhnWoM9737lxqXHq/bbJAAYcVJ+I3l548i/kNfZTsdKMxFVQ6Y+CEAAAhCAwCQCcg8h/8DRBZffV8WGv0l1j7y1CwDOqVkuNwuSu/g9Im/LumPguZr4BwIQgAAEIGBPQCbeo7LZ74Oy3v8fLdWYf/J++bqVX07TnrfKXfyquOOeJWvqhgAEIACB2hPwj/pm47+1nvyzZjDPAIzvC8u++sIGef+QyLpq/HFeQwACEIAABCIn8H2fum3H1q8I/Uu5hbGYZwDGKz/6qyufXpSeeZv8FO+HJQg4PP5vvIYABCAAAQhER8AlP5LfD7hnSf+J/6abJv+MY1dlACY07IEDvUuPLrtNfgf5o3L8zRP+xhsIQAACEIBAdxP4rvyYz785Nu+yvVab/GbC070BwDjly//ipZ/3aes259x7Za9A2b/ANK5mXkIAAhCAAAQ6JvCqnPll+Wj92aPrVvxZ6J+p71hFhydGEQCM+bL6mR/OPT5nwXqX+g0SCGwQ8X9H/tZVyxhjWvkXAhCAAARmPYFUPPymPJ+Wyf7pYyePP5NsetNALF5HFQBMhrr4a4eXzhme87Y0cW923l8lDfAWcWiFBAeXyLnZc5E8eyfb8R4CEIAABCDQAYFBOeekPI/L3HJc5pYjMs98x3v/3UbivzfUM/TNE2tfd6yDcjgFAhCAAAQgAAEIQAACEIAABCAAAQhAAAIQgAAEIAABCEAAAhCAAAQgAAEIQAACEIAABCAAAQhAAAIQgAAEIAABCEAAAhCAAAQgAAEIQAACEIAABCAAAQhAAAIQgAAEIAABCEAAAhCAAAQgAAEIQAACEIAABCAAAQhAAAIQgAAEIAABCEAAAhCAAAQgAAEIQAACEIAABCAAAQhAAAIQgAAEIAABCEAAAhCAAAQgAIFICPz/lHgISXq+CX8AAAAASUVORK5CYII=;" vertex="1" parent="1">
          <mxGeometry x="390" y="176" width="318" height="318" as="geometry" />
        </mxCell>
        <mxCell id="HMdKM1Sp7y03wCbhgYr0-7" value="" style="shape=image;verticalLabelPosition=bottom;labelBackgroundColor=default;verticalAlign=top;aspect=fixed;imageAspect=0;image=data:image/png,iVBORw0KGgoAAAANSUhEUgAAAgAAAAIACAYAAAD0eNT6AAAAAXNSR0IArs4c6QAAAERlWElmTU0AKgAAAAgAAYdpAAQAAAABAAAAGgAAAAAAA6ABAAMAAAABAAEAAKACAAQAAAABAAACAKADAAQAAAABAAACAAAAAAAL+LWFAABAAElEQVR4AexdCYAU1dF+r2dPTgWBxaigEa8ViCeKqOAJ/HglQg5vQGA5RBEkmhgn5o9HREFuCXibGIjR3wMUMaAuGBTxAu8o0QgLihzCHnP0++vNMjB7zEx31+u7WpuZnX5V9dVX1f2qX7/uZowWYoAYIAaIAWKAGCAGiAFigBggBogBYoAYIAaIAWKAGCAGiAFigBggBogBYoAYIAaIAWKAGCAGiAFigBggBogBYoAYIAaIAWKAGCAGiAFigBggBogBYoAYIAaIAWKAGCAGiAFigBggBogBYoAYIAaIAWKAGCAGiAFigBggBogBYoAYIAaIAWKAGCAGiAFigBggBogBYoAYIAaIAWKAGCAGiAFigBggBogBYoAYIAaIAWKAGCAGiAFigBggBogBYoAYIAaIAWKAGCAGiAFigBggBogBYoAYIAaIAWKAGGjMAG/8Q9j/3nXRZd0FE8MFY2cDF11hbRl2Tsh/YoAYsMzAbpDcwIV4mXHtz63/74kPLWsiQWJAMQNUAOwhVAwYULyzsP1UzsVI+ElTzDOpIwaIAWIgCceXOa0K4zfyRYtiRAcx4DYDVABABGTn/0NRuyVw1t/P7YCQfWKAGAg2A3DQXVFbFLug46JFu4LtKXnndQaoAIAI7bjosjmM8VFeDxbhIwaIgYAwIFhlXXHdACoCAhJPn7oR+gJAXvNPcu1diB8N+/s0iQk2MeBTBirrCmupCPBp8IIAO/SdXpJpwyGQoechCMlMPhADPmOgT3G85KVvLxza2me4CW5AGAj9CMCOi69aD7MAjglIPMkNYoAY8B8DMBJQQyMB/oub7xGHvgDYfvGVP0AUW/k+kuQAMUAM+JYBmIC8KqEX9O/w7IPyeEQLMeAIA1QAXHwV7Hu0EAPEADHgLgPw/BEqAtwNQeisUwFw8dVUAIQu7clhYsCbDNSPBGg0EuDN8AQOFU1+C1xIySFigBjwKwNwRta7QNNfpImBfo2gv3DTCMAl19AIgL9yltASA4FnQHCYE5DgNBIQ+Ei762DoC4BtVAC4m4FknRggBppngIqA5nmhX5UxQAXAJUNpBEBZOpEiYoAYUMpAqghgNBKglFRSlmaACoBLhlEBkM4G+iQGiAHvMcDh7oAEFQHeC4z/EdEkQP/HkDwgBoiBIDMgeO+CAkYTA4McY5d8oxGAS4ajRgD2f3p+6Dl0KXfJLDHgOgPbkMcPUw6kLgfodDnAFGnUOBcDoR8BkL0/Zs1FLm0jBoiBYDOAOXaYlhWsd6RAo5GAYKeUo96FvgBgHE7gMauj4SJjxAAx4CkGMMcOK7KMQxEQoSLAU0ngXzBUADA5go9Z/Rt8Qk4MEANYBjDHDsuyUAQUUBGADR3J02twKQeIAWKAGPAhA1QE+DBoXoNMIwCos39ZwdNCDBAD4WXA8lk8UIaWhSKgiEYCwpt8aM9DXwCYnogDlGfKoCNACogBYsC3DGQeC9z5LnprVAT4Nn/cBh76AgBfhbsdQrJPDBAD7jGAPosH6FgdjIoA9xLA15apAMDvfL5OAAJPDBADGAawnbcyeSgCiulyACaUIZSlAgC7/4UwachlYoAY2MMA9vihVr63VkhFAOWmcQZCXwAIGAHArMapppbEADEQNAYwxw6bZHvzwhIaCQhaotnkT+gLAJt4JbXEADFADORlQAhWmbeR+Qa9WUHJ4i2DR7cyL0oSYWKACgCaAxCmfCdfiQHFDODG8JMtW/SHSYAr8BMBG+LgnPfRdP7StxcOba3YYVIXIAaoAKACIEDpTK4QA04z0LDjNduRlz02ZXeiRekgO4oA0AmXA0rhcsBNVAQ4nRY+sUcFgE8CRTCJAWIgmAzUFwElUASwFeo9lEXAbioC1BMbCI2hLwCwE3ECkQXkBDFADFhiQNXxI10EgL4VWJ1N5TUoAmqoCLAU4WALhb4AoCsAwU5w8o4YsJUB3BWABtBkEZBsUTwIjkkr0MelRrgEZ715ERUBDQinP+hlQGav2TVtT1lEDBAD4WWgUU9ruuduyFyqCCiFIiB1OQCru6E8jAxAEVBLIwENKQ/1XzQCYHqHbbhThTp7yHliIPQMND4emP27KYH7igD1dwfUFwF1VAQ0pT2Uv1ABEMqwk9PEADHgZQbqi4BCWyYGwkuLYCSAigAvx98pbKEvAJpOmDH3ZECnAkV2iAFiwHsM2Hn8SBcBYEP5xEAdLgeIojiNBHgvpRxFFPoCwFG2yRgxQAwQAyYYkEWAXlpgy0gAvNicigATsQhiUyoAaA5AEPOafCIGHGLA7DX/xu3zw9xXBKifEwDWqQjIH4LAtqACgMMOiVkDmxrkGDFADORlAHPskLIGl/oiILLnFkHkMasp5t6iOEGXAwzGIkjNqAAIUjTJF2KAGAgsA6kioASKACZW2OAkFQE2kOp1laEvAOycxOP14BM+YoAYwDHg9PFjXxGgfmIg+NJbL07SSAAuJXwlHfoCwFfRIrDEADEQegbqiwA+CC4ErLCBDCoCbCDVqyqpAKBJgF7NTcJFDPiAAXkdH7Nac3FfEWDHxEA5EqDTSIC10PhKigoA1M4rd3xaiAFiILwMYDp/3PGjvghgMBJARUB48w/nORUAOP5ImhggBogB1xioLwKETZcDaCTAtcA6ZDj0BYCAW2Iwq0NxIjPEADHgQQYwxw4pq2JJFwHwiN8VWDxN5bXeyWJGlwNUBMqDOkJfAHgwJgSJGCAGiAFTDMgigJWIQUzYcIsgvEqYigBT4fBN4wLfILUNqJoqXBW8qsGTu8ODiYbDjnw2TE/oCnpbInXvZoJtgBc/L2MsMr/sb3esQ+rLKW4D/pz2DGwMu/8GKPJ0E0fjZ54J7xw/ZBGwZXD0giSrWQKo+pj3JYcEFAGJErYY9A/ouCi6K0dL2uQjBryTvS6RVjVkMoycWV/KFt6thMPPBowrbtWmxVQu2EhAY9fITBLAzv1OlE4oXxSNWfe6qaRD+JsaNvdL2P03x5b3WtsWP6uueuX4kYkfOulWSW5DEQBG4GBZGRGlVARkEu7j73Z1NL6hxOkHeTRHTKrzbN1iCUxGqAA8GhZTDvkIvAVsTDteu2T94GhRc1is/OYgfjgAmXtbY6P2Yfcfy5/b8rbEz0rOp2Ua5ZdpftJ6VH7KM3TZSQO2Siy+xvJwy2OfJBw/ZJGhEjPpcoeB0BcAuHt4lZz8s1atW0+Dk/5+eCwSj6H1rHZa3b2qUs4F/Eb9zNYu7P5n48UvvyuNHziNWAztb6A/WzuE6Ryi9UVAyQA4rlRmt50NU97foQiIURGQg3+/bKICwOVIpa6ZMzHCcRiCVWz65eRyrF3X8GOBh91/LH9uyyuKn9tu2Gm/vggogiKAQxGgehFUBKim1AV9VAA0fTMW7C9QARtdkUHTuTYcbGmG7RnFlb9dhCcjw5DwmYv4jceoeS7C7j+WP7fllcQPm//o/RYNILcCWQTw4lh/GIBYgcbaZD9ifRJa7KVvL7ypdW4UtNWrDFAB4HJkOOfnuAVBcHYu1rab+LHYw+4/lj+35VXEz20fnLAv7w6I6MUXQBGgfCQATpV6J1oUyLsDaE6AE8FUbCP0BUDjSS5m/8bGA+wdYtamwvZdfI7f9KSrRtyF3X8sf27Lo+OnIP9RHGDtG5VPjQQUxvpD/q9otA+g8Kd0CQ4jAXEaCTAaDA+1C30BAOOYEA7Mio0m3PiHso/BLm1jF1fxA3jX/YczHxQGrA9hlvfA0DM29tj9z7i8HAnQiuoGQb6usCFne8dLi+iJgcbD4YmWVAC4Hgb+tYsQvsLbdhU/Fr4C/7EQSJ4YcI4BWQQU6AW2XA4AL3rHWxTR5QDnwom2RAUA+uwNGwP+sg3VOIAydGayFIse7LiJ36if2dqp8D+bbvrdWA4ieQJxVxdD+xkgzNbOefDycoBWWNsfMK3Ijisb3jy/py4H6HQ5wPmwWrJIBYAl2tQJaUybD9qS6jQa1pTkemSB4dZZGrqIPwsiwz8r8d+wNWpIDHiIgfqRgAiMBNhyiyCMBJTQSICH4p0NSugLgKZvvzL3dsBsxBr9vexv0XWAYS4Wh3l5bVbnRdEPjeLM1s49/Obi1JQfNf431YvFRfJmOM2Wl079bgZrc22dwtmcHTkSUJDUBgCuyuawoX6DdxHEIzo9LKg54j30W+gLAPwQGD6a25PaBHhi1yt4LHmG59LDkJwv29Rm00Q88noNjuNP+2H1U6n/Bjm3ipXkIMlycawqi63qyYXNyDardtXIySKgEIoA4NiWJwbGI4KKADWhskULFQC20GpOqXwxz/YkGwhSM2FHtPFyQEr39E2tNw08cd68uDmU2Vs7hz87BmNb7PHfmG1qRQx4k4H6IoBDEaD+OQGgE0YCqAjwZuTrS2uvYnME1ze/iKJuhfvRk1FZ5itbNv3y9nIh9GE6Y+eC4q6gGPuAjV3g4AaNs6U8wRaoGPbP5awN+HOZM7LNVv+x+WPEAWqTnQHV+192S81vwcbfbfyZXsmH+cQjbAn8pvZVwvVGKguTjN4imEm4B74XeAADQchgoPNff7ce/oRLAv5c/I7fada91AE47bu0h+1A3cAcVJtyJKDqinv66/Hdz8NJQ1/FfsJIAIO7A+7u3+HZyT8o1k3qLDIQ+ksA2KdiWeSdxALCAOUPLpB+58/v+BtHr+yxSbu1wpaDBNPUPzGQ8d51LWrhYUF3e+ABTo09D+ffoS8Ack8w8v4knnCmrZe8NpIjudp4yRc3sOTixsg2NzBn2jSCMVebTF3e+C6LgILCUtueGEhFgDfiLFFQAZBr3zSyzTuxJCRuMGAkR3K1cQOzl2zm4sbINrd9MYIxVxu38Wexv7cISL1FEBrl8sH0NhgJaAkjAUNpJCAL/Y79TAUAOrMdixUZ8iQDpo9+4EWmjCedchBUJhdWvjsItVlTVjBnyjSr1BM/poqAArtGArTedTUxKgJcjjQVAC4HgMwTA8QAMeBVBuqLgBK4HMBW2ICRigAbSDWjMvQFQNAm8ZgJPrXFM0D5g+PQ7/z5Hb+R6KWLAPDVlomBtTVxGgkwEggb2oS+AGg4HJs5NGf0uw1RIZU+YsBonmRr5yNXbYGajRejv9sCyoRSoziztTNhysWmsggoLCiGkQBtBf6Y2YSL3rU1CSoCXIgvFQAukE4miQFigBjwGwP1RUDhnrsDlKOnIkA5pfkVUgHQYEJWk8oUGMz3W36SqUWQGciXH/m2B5kbI77l4yffdiM27GyTD1++7XZiU6+7YRGQzzfT26EI0GkkQH3YsmoMfQEgIEcxa1ZmaUMoGMDkjpQN++J3/vyO30r+pYsAeFrgCqz/TeVF79o6KgKsxMWKTOgLgPxn+PmqWCu0k0xwGMiXH/m2B4cJa57k4yffdmtW1Unlw5dvuzokTmqSRUBRAVwOEHwF/hjakCMhGBUBDgWTCoC8Q/wNk7NpsjsUKTLjUQby5Ue+7R51yzFY+fjJt90xoFkM5cOXb3sWtT74ub4IKLCpCOBQBAi6HGBzHlABYDPBpJ4YIAaIgaAyUF8ERKAIUP+cgPqRACoC7MwdKgBoBMDO/AqB7nxnePm2h4CinC7m4yff9pzKHdiYD1++7Q5AtNnEviJA/S2CQsiRAEYjATbFMPQFAExkgeLV+mpTXEitTxjA5I6UDfvid/78jl9V/tUXATx1OQDLSWN5HeYEVEMR8DG9O0BVuPbqKdj7LbRfZIXuneXry+7qrgs+HOYanA2ousLa0jvofIlkN6DeAOsyHuHzD3ls0jq1Xngrf9T65oQ2v/Pnd/zqYiyLgC2DoxfUFLZcAqdUfdRpBk1QBJTW8sWgf0DHRdFdSnWHWFnoRwAYhx0YsypKns8GTC/ecPk9s3UWeZdx7TrAVA5rSxQ2jF/BkZUcSi7HC529+9VlU2auHxwtUhQ2XO5IjsO+YPPMbf78jl8xf7JzLo23GMA0Xqn+2MX61BS3XLJl8KxWimGHVh0VAB4Ivez8i9rFlnDBKgAOxcS+mEQEE2NawRmK0iLAPrykmRjwHQMdF43ZVVoHRQBnlcrBC1kEVFMRoIhY6mw8MAkQOv9pEM9+TW8xlGeItCrngPOzWhe2vlfNPoSNjxoU/tXid/78jt+ezNlXBMBIgOpjmOBQBNRQEaAgdKEvABpPODH7NzYGX192X3ewOcKsXWpvfeKm5E7nouI/v7yvHBs/bByw9v0u73f+/I7fzvypLwJKB8DT/iqxPDWRh5GAaioC0OELfQGAr05xMUgwISf8QRywZxIkb5LDiIiwYbjoSWks73gE/tbgd/78jt/e7JFFQAkX/W15iyCMBFQX1b5EdwdYjyEVAC4fwDnj5+A7EexBKKTyQpxrfddJS2K5S+sJ66ff+fM7fvvzTt4d0CJWfAGc56i/HMB475JYEdwdQBMDrUSSCgArrKmVOUStOtJmnAHexXhbakkMEANWGagfCUjASID6JwYyIWAkoI5GAiwEhwoAt2/j4TD3H4uB5GEQBc7EzK/y0iJuMW+zIU6cdf9L+50/v+N3MIPkSECJlhwE++kKC/tqw/2mKe8wElBIDwsyGc/QFwBNJpcAgWZ+M8l3k+ZwW9rXZuxRW3PxycUXBOOrJgEx+UMu/Ua2mTQXuOZGOMrVxm1CcmEzss1t/E7bl0XA7rqiC8Cu+omBey4HrKfLAYbDGvoCAMpKIAuzGuY6S0P+Ms4+Bnu4ZXWmLc0SFBM/Yzk0YSqQTf3On9/xO59U5amJgfJygA2vEma8T4viOF0OMBhWKgBQnb/c+XFLkmvzYUdIUhGAPZCalk9GBF+Ai56UNm23kQwegb81+J0/v+N3J3vkSEB1XeEFMAnapomBJYtpJCB/bKkAyM+RrS0Of2z8Onjt5VxbjZDypgwIMavLE9d92HQD/UIMEANOMCBHAnbXFQyAEgqKALULXH7p07I4AU/8pLsDcjFLBYAHzuBqYtsmwEzAV/Bnk9izkXDIc8GXbW1ZOjHXjmF8G5Yz45aC2dLv/Pkdv7tZta8IUD8SAMdUKAKSVATkCHHoCwAjE3VytcnBreFN5YuisZq67weCnZmwJnPZo22oSYBJGG2Z/l3L4oEnzhsZNxygHA2x8cihOhSb/M6f3/F7Icnqi4DIAOBS+cRAHUYCSqkIyBrm0BcA6NtRslJrboMsAg57/LpxyYjWk3M+FXCtg3UXGl/T22VgoAHOWsKzSg7lK4DvgzcB9TjsievGq+r8UxHG8mguTYLX2u/8+R2/RzJKFgE1dZH6FwhhOW0q36e0hEYCmgu1HL8K9fLFFfKk2/py2GNjQ8+hdfb8L4nNH/8z4K4Hbu9/FH9342/GOhyoV9UVlvY/6sFhP5iRC3JbGgEIcnTJN2KAGCAGiIEUA3Cm17s4XgMPC1rQmiipZ6Ag7ETARJGwU0D+Ixig/EGQFwBRir+/giiLgIJ47XPrBy88r3zRkJi/0KtHSyMA6jkljcQAMUAMEAMeZQBO+c4sLv32Xo/CcxQWFQAeuA3Q0YiTMcUMyBEkWt3jQHE4Tauj2LsXe+vcw63AFZ9dNbPcdLgDJkAFQMACSu4QA8QAMUAM5GUgouna8LytAt4g9HMAUrfDBTzI5J6NDMhbjmgJLwMUfx/Hnp/rY/BKoIe+AKBJPEryKLRKKH9CG/qU4xR/X8e/i6/RKwBPlwAUkEgqQs0A3VPsXvh3umd6r2WK/14qfPelle8QKwYc+hGA+gksilkldeFhgPOvmWDHhMdhT3n6letoKP6uh4AAWGeARgCsc0eSxAC8mEC8TDS4wwC8SnapO5YzrFL8M8igr35jgAoA9C1cfgs54VXKgCiYD6NIST/eCuVzzEk9qS9QGksryij+wJr12/Hcl7US9ODIhL4AkJN4MGtwUoE8scLA4Y8NXyc4n4vJIZI1vw8ywWd1e2LUh1ZiplKG4m8+dl7Kd5W54EddNAeA7uLyY956CnOsuu2EwhY7joJUOttTwAIKBnhetr1En+gV9yj+XokE4TDLQOhHAPBDUGYpp/ZBY0A+Uzxe3XYg5NJMWOlygH1DwknOtOnbi/WBSl/pjExIij9dAkCmkGvioT///eyq+ajXAXd7ZHjoOXQtez1o+LOr5sHjRbVhAE0+ZKQrrKG/1Qg4wCy7QHgD1BRLGdcWdHtoqOvD/rmcofjnYsd728J+/A595/XZVQuQBcCw0HPovd2aEKUZoPxOM0GfQWSA8hsX1dDPAZATUmghBoLKAOV3UCNLfkkGKL9xeUBzAHD8kTQxQAwQA8QAMeBLBkI/AlA/CdCXsSPQxIABBmiEywBJ1MS3DFB+Y0JHBQDlDyZ/SNbrDFB+ez1ChA/DAOU3hj1GBQDNAUAlEAl7nQE6Qno9QoQPwwDlN4a90BcANIkEkz4k63UGKL+9HiHCh2GA8hvDHtywjBMnaWKAGCAGiAFigBjwIwOhHwGgSYB+TFvCbJwBGiI1zhW19B8DlN+YmNEIAIY9kiUGiAFigBggBnzKQOhHAOgakk8zl2AbYoDy2xBN1MinDFB+4wIX+gKALgHgEoikvc4ADZF6PUKED8MA5TeGPSoAKH8w+UOyXmeA8tvrESJ8GAYovzHs0XMAaAQAlT8k7HkG6Ajp+RARQAQDlN8I8ug2QAx5JEsMEAPEADFADPiVgdBfAqBJJH5NXcJthAHKbyMsURu/MkD5jYtc6AuAoF8CWH/1wjJNS5zGdd5TcFbOOO/ChCiDtGkNa5s96bMDPn+AdRM8GXmDEOwTjfE1jIu3jnrwlxv3tKEPXzJAQ6R+CttHVz/enfHIcMB8NqxdYW0Jq5+X3QB+g2BiGdO0+ccs+MU6tc5QfmP4pAIAw54HZWFH4x9e8+TJ8ICHS+Ft2RcwljwSfpL/1y/QuzeztIXf5HoQvGD7JNkU9Mh/2EfX/BV2WP6SpiUXHrngsjebkaWfiAFiAMnAZ+MWF8d37ZgKakbCGqTns8gCppwzXs50Mfajq/86V98dmVC+aEgMSRmJK2CACoCAvAzonauf3q9Yq7v6Y/G3UXD2fmR9bqR7fVSmHAvSx+p65MaPrnnyEygMHtB4i/lHPXiRHDGgxfMMKMkBz3vpZ4Cy80/s2rkEOsl+fvbDAPYIHG7HaK3E0esHLxygpgig/DbAe9YmVAD4PH/+PWJh21gieQNjdddDlNvaXM8cCQep+wSrue3joX+bHqmLT+n2xOU7s2YXbXCfAZ/nt/sE2o8gvnvHNM4D3/lnECnOgiLgXvhhXMaP1r5SflvjbY9UkIaaLBEhJ5FgVktGFQiJaFSDof7hdQnxuWDabeBDW4wfJmXb6ozdGi8u/PyjoQtHyMsOClwiFTYwYDKuTfYFGyCRygwGPrp6YXcY8Yd9CHcc8p085xXrr/1LeQYVlr5i/bZkNEBCoS8A6icByv7L6up8Nnxw1ZM//uirYyoZ1/4MuA+wjt2qz3vlOsA0gQc+GrpoxfphCw93ngmymJ+BvbGCpla+57dALawzAKXzMIgLHIetxMbXMhGuF4Lv2AXLAda+v+WpAPBZ/D4cuujKSER7B2Cf6iHoZ3DB1n54zcKfewgTQSEGvM8AZ+d6H6RNCIUIr+82UWpWLc0BSFXeZmlzvr0YvDDyURt+D4zRwvV+WfV6bmkNsJ5cP3TRScccsv4mHo3CVQJa3GfAk7niPi2eQcAP9gwU54F0wZuk/MZwSCMAGPYckpWzhKHzf6q+83fIqEUzsDve+NFX5X+VmC2qIDFiIEwMtA6Ts418DbPvjahw58/QjwDISSReXr68+qGS6t3V/4Cz/gFextkI25DYrupSuNXnUjW3+jTSTn8aZsDr+W3YkYA2pPjgAkv84fijEQAOBQBmxfGfU1rO9K+OtHkc8A1AYcT4Z1VW4xew1pEnpA85naSN9jJgNX5pOXvRkfY0z2H9xGYAljesfZ/L08HZwwH88Ktj5ZPBfuZhiLmhcXbp+q+735m7EW0lBogBYoAYcIMBKgBSlwDkZQCrqz1hWz/0H5fB3UHXWcdl1R+1cvDgoJtSvthDE2nNywA2nnkNUAMUA9j4+F0eRR4IY/3H2ve3PBUAHozfR9f+4wjI67kehGYNEmez3x/61GHWhEmKGCAGiAFiwA4GQl8AyEkkmFV1UOQ186SuPQiYWmFweUy2jcYjj9J8ANXZkl8fNg/yW6AWGAaw8fG7PIY7KYv1H2vf7/KhvwugfgjJO2Fc//VPRgGa07yGSwFDp637quc1oGeBAl2kwjADcoiUFu8yQPHBxYb4w/BHBQCGPcWya+DFPjzJo6lX8SrWDep2woTZV3SdL2UR8X5hkm848pB3qj7YfGJbIWKFBQntSNhWrmniPGjbH94aXKoaArzw5K7PLlu8qNsTA+kFQqrJJX2hZODYBRe72gOuG/YMPA2cFr8yQAWAvI3EI0upXjJJcNFB8dn/5zBQNi1ZV/pwz8fO392Mq9v2/LYFPl+Hde760QtbiVjxFcDMzfC3yieVHRArjcOTDNnvYaXFCQY8lN9OuOs7G36Pj9v43bbvu4RrCJjmAAAfsoS1ujak0/pfcGbcRmdirFUczcjVwrN4f8d31JUfO//iWVk6/2YBl88esqv7/IvmFJcWdoORgFtAd6wZ/ZY4A0w3yJGOZg3Tj8oZwMZNOSBS2IABv8fHbfxu228QTB/+QSMAqdtI3I9cbUliBJz5q+oYvxKaPqjHvIs/wHjWbcbAOpC/870Rz72k6WwhlEk/xujbI9u2WC+9Cr5PV6CLVORlwDsjXHmhhrKB3+PjNn637fs7aUM/AuCZ8HE2XBGW9wt1cSq288/E0nPeBWsjWux0qJU+zPzd+ndRYV2WJIkBYoAYIAZUMEAFQGoEQFaRVld8GN4f+hy82pcfaR3DXuxfQec/4KgHL9qIR9VQwzHzfrZJjyT6Acb/KMB51AdDXzixoQX6yx4G9uYGqLfy3R5UpDXNgJWYZMqk9bj1mYnFyncsbis2M2Ww9v0tTwWApYOi2gTiGofH/WbqtPS9VmjaIDs6/3SK95z70y1M1y4FrLVovJo+JK2XPu1kwFIuAaC0nJ3YSPc+ntN8m/10m0OzeBu3x+JvrM/s31j7/pYPfQHghUkkgOF/sDhA/o4e8/4Hdc3fSCp3f/B/1jAhbsfj9dXbDY1Q48k22Dh50qkAgfJ7fNzG77Z9v6di6AsA9Fv2kBnw3vDFBwGGo3A42OeRHdV3I6EYFm+VbDUV8G7AYebl7416qaNho9TQGgPyNinMas0qSRllABMbL9wC5zZ+t+0bjbNH21EB4HJgNKafjIYg+LTyRUNiaD0GFRz6cL9awfmfDDbP1oxzPdk720b6nRggBogBYsBeBqgA2Hut0+y1o3R7ZIA07QTkdcCdoq7gYSQK0+JxVvgXwF2Nwi5YD9OGScAkA+k8tfpp0hw1N8mA1bik5UyaU948jcPqJxaQVbtpOax9f8tTAeByASAEPwLViTL+ipmH/KhK1xPnnbsDcC9GYj9WFR7Sk42B9IHO6mc2vfS7GgasxiUtpwaFdS1pHFY/rVuul7RqNy2Hte9v+dA/CEhOInFzEZz9OPVIPYsg4G1YSy2KosXAdiU8HAjuCrC8qHzMsGUQQRZ0O7+DzK0K3/weH7fxu21fRQ64qSP0BUD9GayLIRAaTISznsYRxt93Db3QVzOOGETi7EeuYQ+NYXmmQ4t3GfB7fNzG77Z972aWEWSIo7cR9dQmPwNiv/xtsreo4+LL7Fvt3aIlI9+gLAjWBiVPwsQAMUAMEAOWGaARALdvpeEc9drdtsXJ7y1HHylYVxjbWsiKMFpKMMIka4ABt/PbAMRQN/F7fNzG77Z9nycvFQCpSYBuRpEnwbrlkZhYsrQQ5OVLexxf2hZHktV1qCE4y3477qxHDL4/4uXugonhAOdsWLvC2hJW25b3RizNd31KvmJ6A+xGyxgX83vOPX+dbWACqRi1/3iAEbfxu23fAyFAQAh9AZDv6Ibg1pAo2E9AQ9mJW1oSeqwFCO6yJIwUqq0p2g/eOojRIjsPWgww8Nm4xcW76iJT4ZXRI6G5lwonWYCUwzQWWPnYd0csnVu4bfsEJ59LYYA+zzZx+/iDJcZt/G7bx/LntryXDiQucSErSMyKhc2/w9gXuga3EbqzxCPsMAx2kP3BHeT+sio7/911hUs40+AtinLWJSZfbZWNALYx8XbtlqwfvBB1bchfEcKgxcYDY1uFrNv43bavgkP3dFAB4B73KcuQvptRELhw7V56eIphTxx2hptEiDLuH+HdtYXTAG0/3yAW4qz4/vvf6xu8BJQYCCkDVACgz6ZwmaMLvgF3Rqedh0NgXRpGH+A6NKYC176ybj0ckvKaPzzLfwSOZ0yMLMtWvHvtP8vDESWMl5b5BaNS1u3Fbfxu23ebf5x9KgBQHRh+B+Sa9iHq4C74gH+NW+z47XTvXfFSS855fwx2IdhHuPQNvrTOOEz48/SwPwSh2YMwPKJCDAt+hLAeNstdNk6b+R1rHyvvNn637WP5c1eeJgHK/HFx0Zn+AXSkGAQlRXXFl4GCORglZmWTLQquANStzMo1bM/fafg3/dWYAXjp0jmNf/PR3+f6CKsrUOFJoL5e3Mbvtn1fBw/A0whA82cvQI3cM42suBRIRCKVYAcmsxqxlaUN5zfLiWI4JMalpS3O+GQUZvA5KQreNG41rC05PC45S9y9/3uXsEbNuN/Y2Bq3ZE9Lt/G7bd8eVp3SGvoRAKeIzmbn5Nn9qt4d+c9PoAI4KlubfL/DLnDwrljJBGh3Z762KrbvjhVPAj1dMbrgXvZ1J847YxNGhxdl5XVvoclheyHPfrvuwbgBOvGXBUv++fgHzoFLPqaW1qZae6uxaew28OctRggNMeAhBqgASJ1FuRsR6Pyfgw7CcgFQj55H3xvxyks955291k5v3h2xvA+8BOhWzPsLJD647PGxnTid1i1ve4u163AfxHIU2Ja3w2VCkJPhyjmLjFs7Yvmc4m3f3mj8PvkGejJ1Buq7ffx5nSa/x9dt/G7b93p+5cYX+ksA0JnBM0ysr7npNbY1KdhTGAz1sqwoySML146tPNCYVfOt1o55pYvOOWBlRWi8gg9eO/LVZe+MfLWbeSTeklg/enmruvad4JF5fAyskRzcwMQ4PrauXceXpIwRL3LoQuWtU3qN+Ggnf0bsu9Xm3WtfPwIbB7ewp+26jd9t+2ke/PoZ+gLAC4E7YV6/N6FT/UQBlh+zeOLl90athDcMql1k588SkRdAq0Ld4my4FPD+2hErbl0/eL0vHxwjO69Yki9hQpxpgvG+UsZoEWBCr++ahpE/OYfmnRGv3qZrSffe5Om7TCHAdjBABUBqqFYOI1ld8WGBCXXQD2pzrWNogP2YpEi8vWbE673wyOo1vHPtq71ZomA14IOh7Aa2ELzt1VMCZ8W317X7bt3aa5efowqzE3rkrZB1ychzcBbSxywvUqZO1176eGhlnuvke3lSwbULOrJHwhn+stt3Y8vbFStO/yHWci3MXo9CzsDEXWx83fAi06bb+N22n8mF/75TAeCR/NFaJB+GY8EO9PGg3p+DNE1f8c7I125efvXyEqtpKc9U1la8+lsRYcsBVydF2LId87qxiLZ07ahXF6wftqqdVcxOyckzV71V6YtQu/W1zAtjvWuK9cU5RwKw+em2fJaAOMZfFvtO/7x6zLL2b49a8RAX/FXIl2Ms50zjeDrtSGN7jfGY/buxPrN/m7XXuL1ZewFrTwUAek9UkxHHTeu3Hc6E78/WO1r4vQTOMu5oWxL5eO2o1yrWjHi5rVGk8uC8duRro36It/oYXvDyB7ANw/ON9xxb/galfGhdYQIwv34FDItII55bJD8xEVkCDzIyfebfmEepQ+rKXgTYwjNw6pTepuFzlr+m9p38RebwOxWvXlWYLPoY3uVwNfAOxKvk3klvmrOF9aU5nWZ+c9u+Gazeaxv6uwDkJBKvLLw4OVWvLRgNeA5QiKkL6JrNtZIpa0a9vhhmjlVyja9O8uQ3WqLl1rbFW5LV8bZtE1wcJoR+HByczqoVbADQIt/y5tbSAQw/unZU5VXviFcrjnvgzM/cAtLYruy8akUBXPOXnb+aRRYBtaxAFgEDymf3a/BmRy/lpwpvneZPBWarOuQkv7Va5Vy4vNfPqg6vy7mdn27b93p88uHzTu+XD6lN298e9TrMv7O+nDD3dKUcvj3qtWuhE55nHVHgJOPQQd7XtuiH27rNGFjnpnfymnWyZYvnIWH62oRjVU2M9+/zYJ+9b0l0Oz9V2neDP5vilFPtmhFrCrVIzQTI2yg0tHwJLqeRgGzEHj9V5mdAKDXlBl0CQA/HmeI7b+Pjy05fAI1WqR0mlDWKb9dCeGbA5J3x1u+sHbnyjLwE2tRAnrkmWrV8Ec44+trIZe/SYtZoTgA2blhC1Nh3jz+s/+bk3xr1el+u1b4vBL8L8gQ6fyx/QZc3x2/T1lh+mmoM0y9UAHgs2jzK9YKEfjnA2nsW6DGILsHhRwsuVrw9auWja8e9Ji8ROLakZqvrhc+pHPbPCl5eDtALXqrMe3dAVg2e2xAG/t6veH3/t0eufEBj/J8QgKM8FwQCRAw0wwAVAOgKvRlWkT/1nH/ml3Br4Bg6e2hS3csfrhDxyPq1I1dd6cQkwfoz11Z2n/mDW5m+ajASwPeMBGT+buU7Mhkb4DJv333+sP7nlpc5uKai8qq40D4FquRrm4Ek8zyFVyY3v/m3YrnObyHILWgSIO5NfLblxvFzT3tsTcXKn8CBQT7jn5aGDHSA+wMeebvijave0f816rgHTrFlkqDsvGpE0RKIQZ/UMb0hBrv/6pOy7XJ+wtsIUX66zR/EsMnESpRDGcKrx6w+4m39X/D8Dq2fN+9XyQAb0K/Y/AwoLYbdohEAw1Q53/CL7765CUYCnnLesm8snpXU9PfXVKz6neq3ITbo/F2jQz5gyO+Lmz7wVBElY6mSRZlrb49647aILp/kJ/qp1E26iAEnGaACAD1cZ1+4hiwakiz5rs2voAiQZ6FgiNZmOJATrX6/I7n/u29WrDLzON6sgavv/EuAcw19n38zeB2OY1Y3DW7we85pUASU5HjOgkEa9jR7a9QbfWWuwRl/FGKr4El+fucXi98c/01bu22/KSI//UIFgMejVb6oPNamYNslcLBZ5HGoe+HBbXIPwQHy9/CDc7ftCXYUTMBa/lbFGw/C0Gz7vWBMftnX+au7z98kBGqungF0ESBzas2oNx6CKyL/hMmgNMlPfYxIowsMUAGAPqu2P2ry/vcTOvX6BdyCNs39M8qcFXcS5kBNOmnOqUNPmn1qVLCCnoB3hYOY4fjMr4no7KO3Rq82PUmwvvMvrb/mj86LnDxB0ji1HZufTuG03Q4UAaWmRwLqJ/mtviqii48ht6+GuAFQ27E6mB+u+qLgTicsfuz+4W95mgSY2pm9H0R5eyCgvGFNxeq34AxbPijIzSf1NUfYDk2wy0+Y0+v59MaT5pz0CRxAz3pr9FtXcSHugd9VPuEwbaa5zw5wlvbIWxVvXrVaW13Ra1avT5trlPmb7PyrRQvo/OnMP5OXgD1prY+MMcTa0MRAOclvjf4mTPJj/eo7/Uxm6LsCBv6D1RGw/MTSYVqeRgBMU+auwIlzev1F40m4O4BVuoskw7pg/xcXyfIT5u7r/NNb4YxcnDz75Id5MnI0FC6PwO/w4cwC5wZnaTp7782Kf8Ekwc/gem3zS4A7/3jzHpv6NWGqtfcbp4uArBMDZa68NWr1bZA78nW90PnTYgsDgr1si15SapgBKgBSI3rQVVj9NEy1uoYnzO79+YmdTj4TUFcA7m8tY7fq8z65zYBhyElze13ce27vb3J5eOK8E787eU6vqzkXZwPeTxzEXMK59vvtyW0wSfDNMxtjXD96fatqBmf+XN7qh8iDZmWhSONyVa3XsL7Njf01/TfnW9zDbxt/fWTMZewb8/HW2Lf6ylxhGo+C38Xu+W44xtaPXe7lpcScTAoxvzH/pv/G+mDaYLAEqADwaTzlJQEYDZjLE1o32Jv+CG5sd9CVTXAaP6muNtYNMJianHji7FOW7xfZH+YGiN8DXucmCcLT2eBYsfytMW/unSRY3/nv2nPNXzV7orIFazVAruCrS6M14l8KvFKhwwIMu/njUATs2lsEpCb5jX7zIaYLp5/kJ/cBePR3uBY4fsw65YFTPgyX197zlgoA9IQed4MKZ9Y7Tpp90m+TEb0LF9qNUAx8BCuAsmVdB3pHQQd+KAzrT8l8aY0ZFrrN6FZ30uxeUXiIWk9YV9iEtTkOONi7RhPax2vGrBlezaqh87flVr9U518+u3yXXOuLAA5FgC0xac7P+t+49jh8QS1woH7CcdyMO8SfBkVA9RKZCzIn4Hry1eArBMmhOMnch31gV8fdMDLFFztm1yn/sttZpiW0iajE3CuMjdVeRaH8ItkL9fLm6DVwjLO+nDz7RM9x+K+Kt0+JcAa3DooLwLmjrXuXkvwA/l0E0/v/fursE6C4ULvIWdZvVrx9JRx2p4BmpyYJqnUiQxvwXdmKlcIks/JdGT8z+Wz/wpKSxZAsjjzcB3CsPrnjCb33TB7NhGLq+8LBCyNdO/z4Dcilk0wJWmws+YvX1g5sXFzK0ZpdrGaJU/xZhG9U7Dvo7CedNPv4R+QcGSkk5x1sT+68HfYH2TEG9cQsCb7N0hJsIpy4qJifwoJ4/Jb54NTiuc7LKcfTdoKeQH7xD16heoBewOSdAlfB6su8zNZ5pXPNwSLgOz0Z6X3KA8cpeUSynA3PRUQOU7dP+2LHZz7+AlAEyEnrj2rxVAcIRUDT5Y3Rbx8dYWIoTJU9F9p2gRb7NW3ln18gprtgZ94ABf7SZEJbcMoDxysd9vfL8c2rEfPlgVYlmW+Ofhty1Ppy8uwTPM2h3/yTk7CErslbr460HhXnJes7r5omZ66NkdQXAaV2jgR8wXX9opPmnrSusW3M3zCq1EPj4hmozQ7F6Mkma5S/+iKg1o8jAZ9wTR910syTVmTjgH43z4Dfjm/mPbRXIqhDTfayRtptY0AeIPePtOkJVVUUjDg5SdCyT0Y7L2lADm3Ha2sGShnLBpsX3MiEuK24RUEP1Z2/NHfKnBPeL25R2H1PXDY2D8Har2b4k5dWWrGSATbwZw18fqk6wPp7mdPU+ecni1o4y4Cnz16doGL1mLWwf1pfes063tMc+tm/NePW/FjXtTkQoHOtR8h2yVXxmhb9+zx41A9mLL038b2WdTXJ58G3vmbkGrXdAX8/Cw9ZWqQlxIuqrqs2stHkTxEV2uotb/fWeOQKuGb9C2jQpkkj4z+4yZ9xlNZavqYLMcqOuTPW4ARPys/HNy9Eo8ALIAgDMdAcAyfOOPHf0MGc/+aYd6+ESWgenCTIK+M1pTDsb67zl772nNJzd+XQjy8sLK2B2d/C1MRAIdgymCY2t2bXjhf6Pdyvtjnu7Pxtz8RCOYJRufzq5eNLW7X9H5jKVgF/n23OLo6/5aPXX9CCx+BODnP8mcNoqbWc5Dfx5Fk/eTQ9yc+SFhIiBmxmgC4BpOabyZN4q6vNEUKrt+pXWg4NAKVAHkB7zTruEcbiR8EMqochTnDSnMbm6qflzj9NiCwcIvHk+dCh/82AT/DcFPY3nUVOOGX28eeeMvP4p9zo/NPY058Sg8QCI2HnSGx7fIHZ3rljw5n2pPTdSvG01zZcDqgWRfCcBRdusWzeP3CfPxyJ60fLnKXOPx0pOz9z51m+PLQTmR90S/ZCvawe8y7yEsBPPM1h0Px7Y+w7fbngc4B0N9/IBp1/iaUz/2w7G8RpEGybAOsZsEYy2sGTHtnjcCCb0Wtmzy8zfvfs17cq3j9Mj+hjYSb75QCyQwZQeRvYqzCqc+8ps46DkQ81C4wEtGrB4zAS4MwtlllQf6JzGO6fedyKLNvpZxsYCNrxzQaKcqr0dOeVE7mijUFPoCD6J++Z3qrvngzJezOkQYmiVDCkBqrFlYmakgGYM9dchuCyQOuikpqjGI+Ucl1sPnFOj0/9eiYJHT1fU/H+EULjnQRPVMerW3xiF28uFgF14Oad7SIt7pIPuMoVW9qmnoEgHt/Us5RdY+jnAMgbc4O8BNG/PQfa21eO++CJiBCzYfb7eU7EEB4juMrOzl/6sKeDfMsJf+y2kSpc5rBPwI5cbV36weUAmFjZv6aGPw9zAvraamyf8teE0GCSX3flD8jaZ4K+5WIgiMe3XP6q3hb6AkA1oaTPOQZOm9H932Dt/NVj3x8shJgJ3zs6Z50shZiBbfDE4F/3mtn9z34dnQlx7Mj1DAZoEiA8oqr+8d8WPzPI9OTXoPsHpPea2WNRXOdyTsB0iKWOimcOvgTXeheWxl6svOnj1p6MdYhBydsqa2rh7J/DbZU5Yqhg26KYljzylJk95lHn74GEw8baAy64CYEKgOZn80JM5KUBI6ub4TNi24gPudoYseF+m9Pn9Nh2yqye4+F1w30hbvC40Vw+Wd8mOO9duDtORYD7Id+LoL7z12Don8vYw++2rJ8LzuDuix5Dzphx/Ld7jdMXlxnAxtpl+C6bpwLA5QCQebUM9JrR8/WCWN1P4JLAr0GzLffIQ0dARYDasFnWtq/zhzN/e5Y45/zu73nJsafO6LHMHhOklRhwh4HQFwByEglmdSdsxq1ifPPrBBv5RLxTZ/W4O8nZsXA9YCmWg+bkdRgJiOxO0EiA8VRU3lJ2/tW1EXiaIu/bXIywvwHg14TOevaaceyvB9IMf+XxU6FQQYxVwPCtjtAXAL6NHAHPy4CcJNh75rHnw0FiCDTeklfAbAMYCaAiwCxpatqnO3/Q1leNxgZatsH1/ZG9Zh7bl2b4N+CF/ggYA1QAoK8Xej0j6BpZ75nlizQROQYKgdeVXx+WIwHVySU0MdC5/UByXV1X8KJN1/xXFsYKjzhlZjlN8nMupAhLdHxDkAdPFA/9EvQECrp/xhK416yjtxbFavrD9Z7lyosAxk+L7NbpcoCxUKBayTP/SLX+LDx8B96fgM3tRvKCr0q2iAw4cd6R8Cx/WvzBQKMYms4Jf3hpF0p6DoDMnyAvQffPROxgbkA1PDHuwmKNLQZaTjchmr+pvBxQk1yyZsSa86Sd/ALOtKgc+/GBBUycqmuiJ7xFoRysHgRPMzwY/JdPUNwP1gSsu2DdDisMfbNPYN7Ex5pg62O84LUzZnTzzIx34LZFdV3hi3CMh85f9SJWys6/z5/Mv9hJNRLSZ4IBOr6ZIKtp09AXAHISSZCXoPtnNnbyiXFQBAwsjkQWwxPj1BYBMBJQV9zqQcD0C7O4VLZ/Y/z6XvAa5SGQ2f3Bx2N0qRxuXYCOf++S8b0Qftx/z3oo/H68bKSDcAFLiFXjPloHX5cyXfzl1FnHrJXb3FpixS0fAds2dP5spV6qUefvVmARdun4hiAPRENfAODoI2k/MmBnEQDd7M9Xjfno8d6zjob70p1b1oz4d9t4SWwY3P44Wuj8x9Bpq1ikmu5QFHRnGr8xVQwI8WCtLv4sOVRhwKiOldd9fBE88vlSo+1NtIPOn1Pnb4IwahocBmgOgOlrRvKYmLl6PRkysVr57nX/rOGTHVhdMjkQYql8YiDXuHyrnyPL8uu/3O+NcR//IVYc/68Q/F7GtB83zE8rMc8qcyw8DfE+GD3ZsGrcJ7+Tth1xEozA5YsbbfCLOn+nAmibnay5KrPGwGobMF8opgLAUJLkSiSvxzkXdiPbvO6fdXx2FQEwLHnGv8Z91sY6svySIiq0N8Z+Oqo4Gf8C7P0WDnatjB3wjMQ8b5v2gPD3xcnYJ1AIXCnf+pcfsfUWcnQDfDtNsX/Q+TM687ceFo9I5s1VwJmrjUfccAkGFQAuEU9mvcFAfRGQgJEABiMBypZIQiSPUKatkaJVoz8//I2tn1QKLubAxX15/d6tpSMYfgQKkRWrx358qF0gYsWJI0G3ymMVdP6COn+7AkZ6fcOAyp3KN05nApWTSDBrpi4vfsf4JmXDsKSLAPD3dSxfaXl46UypHdylzrgj+lrBtFPTtlz/5PyMBNfWrrruk0vs8DkptBaqfNSZRp2/HUFySSc2L1yC7RmzoS8Aco4O5Ro5Sm/zTCizAEnjtPqZRW3QfpZFQCwZHwj58Do6J4BroeubVXK0cLCIQAd7H7yM6BHA11oFRsU69oOD8VMrx396l+pLAhGmV6nAKjS+kpUm6cxfZWK6rcvqcS0t5zZ+l+3TXQCpI4vLUbDVvMz08Cz/Gv9FjyTTh8GM8XPB80NgBntLF7z/ts+soz5TZXfxuM+K27LPn4Sz/otV6bRJjxxOm7xy3Oedl7dfPqxftJ98xgB6OfWAIz5d9f3nW0GRnHtgeYGJhKex2sjOldcZDw3k0G4h2AYY0VkGhuefNv3wdZYBkKANDITr+KaaQBoBQJ9aqA6Jan1yB8GsqvHYo092kpXjP5+bFPo70AldBz4fDWek0PljfLcmy5n2uKp3xS+/+suSNpw/Ax0QdP7W8DgtB2/Pu7Jo68FPLY8uV3KCwaNch2mGjznth7SXyiHO5QOUxsP6buV1/565Prq+yJ4sJq3mGcDuE+YtBkki9AWAfCAKZvV6MmB8k7J+WGTn34bxFyGQIwEzPMQOF1OkfDKux2eo4E3O9C9sm3wCdPVHYkLluCXbnF1Y+P3B81VdDkgmk9MBR9ISFnX5EIHMGrNtW/ESKgJUZDheBzYf8Aj8rSH0BQD+rMLrCRD8CrkN16bBGXJffCyxXKXOGBedOfOoL1VkReW2L6fCHXY/9YJfFjFctfK6L+5QwUWKU6H93SIOgICP7V4dgp+1bWsxPHOBFvcZwMbVfQ/cREAFgJvsk200A6vG/rs7KBmBVqRIgdD0e1SoWjn+i8u5EHApw/fL5Neu/1zJ3AXB1XCrhFHOKypv+ExeGqCFGPAtA1QAoM8MvB77YFfIyQgfDmdmkMdYP5XILztjWjf08/JXjf3yKJh4NtcjPkGCo7jhmq49+Mb1X3bF7imnTz/8bZhb8QoSD9aftHyEJQuGYX0ieSwDqNzEGve9vJJJOr5mgcsECvAScP+gQzgn1T95IISABTpt3CKv+6/c9uV86ORgAmNglv3h4v1DMB/gLPTkSA0KI8HP9gYz/Fxv4AgxioAf3+yObOhHAII+iSQE/h2M9VGR/M7YDvECdoet3PafUTDz/DRFmJyf/AcEZMHe9/XxX16G5Se2nT8P+ndmsZHNtk2/iy5Yf0gexwA2D3DW/S8d+gIAP5zo9SQI+hAZb42PIZYjOK9l2j/6PXxoLSYbXp4sn3nPfm+TPztB79NwL3wF3FN3Gk9GftRn/64RFtPaaYXJTlyLnCG3yTaw1tiBATi6B/uOBMmx5NoOfBZ0Qu7R4i4D2H3XXfRuW6dLAG5HgOwHggGuJ/+KdaS0NnITnNEcgNWTKQ/6PodR0mnVBSUPnz+lbHfmtj3ft+353AKfr8M6d/noLa0iRbuv4EK7Gc7nD96zXcVHWTxSOA4U/RGjTHItNO1qjA6SJQaIAbUv2PApn0GvIMk/C2d2kMumeNv4TdWhMDnN+lJ/ZszHmLSbC2ctnNH/rv3+u8tPn9Z1VpbOv1nA/WZ33HXGtEPn/KDHusFDfW4BTDFluAS//qWJVaj5DfVc803KMJmLdSPOm6WQfnSMAVP7aaPYSdlwL3QJALXz+yGBgr6DYP3Dy8Mjeh8YsognMYeSmFY8DK79wyUAPB7Q8ZWuaSf3md71D+XRcui8rS0DZ3Sr6zOty53w1sFTQee/FWE7oGWi7lpriOqlUlxzNk8RHlCK4RzjCcniGcDETsqGewl9ARD0SSTkX9ZJaaomhn1RU1h4r4LDyLXYWO2Rfx9KkVPPnHrwBwowpVScMa3rWrgH/3TQMaXMswAAQABJREFU/6EKjDAH4RostkSsdApg2aACD0YH1g+SxzGAiZ2UDfsS+gIAniAHJwCI1esZhPFNynp9wfqHk/8Obm+7yMzwenN0vj7+616Qg0ej8rDej6+0JBvQZ+YhG5uzg/kNioBNkcKifoDxPwpw9lh5/X9/gsEjL1PAjnsRYNmqAI/1YwDGCZLFM4Dbf/H2fa6BCgCfB5Dgu8bAaqGz3v2mH4J+Oxy86OZStBeC1YKeQXZ0/mlsp00p26JxcSkMnaDudpD6kkz8Mq3X6ucZ9x/8Ptd4b5B/06oOkiMGwswAFQCo638+OEMm/2D/lnFCr3HQ8V8423wKHjx48en7HdT7zOkHG3+vbK6jDGcD0fg4v0PlsH82uH2mHrIGOLgdjVeoeYjO6fcd9CnEAuYoRC6RsYF5FN8ANhkrFTE3oCMbU/S7Mwxg4+wMSq9aodsAUwcKr4ZHBS65gwR5wfl3xrQf4RQgqV11w9c/SgjtGKSaz9vvt/1upA7D4sn94lMj24vk+xe6GhZq3JCznsvG/Lf9ObMO2tp4k9m/5euCQeaZPasp8deu/4YuBZtizGuNXd19vUaGaTyhHwEI+iQS8i/3JEDTe4xigRiLnIyNEchPw8z2N+tSv+ihtToTf0Li1gqKtDPM2lbdHumDajikzyQDFD+ThDVqHvoCAD9U2IhRz/0pK2TM6jmHGgHC+Ob+2YOmsxNx8eE7awsiDzcixfY/48Ut/gK4qzHY4bzdA2/T83f+2B5ozxug+GFCRAUAhj2SJQawDGisG0qFYK9g70KwYv/cu9vtgLOvxVZk0zJCY0emv9MnMUAMOM8AzQGQt5EEeSH/PB1dmLR2GGYaCudiqVsOcq5VwgUWy3cwwJ53hFvY99oN+v6x19GAfqH4oQJLBQDm6Iui3inhgBc4vo+f1ql+loK1fBBce9+aJF5K52y1BvceIpYOCFlFoij8ijCQGusMUPysc8dY6AsAOYkkyAv55+3oCib2xyDUdO1LjDxGVmNJmEIfwahw/W16Qd8/MMHxgyzFDxel0BcA9ZOYcCR6WzroFbLf/eOlmPzZldz+PUYeI9tyF9+6qyWKf9cLgODv/5gI+0EWlX9+cNBWjDQJ0FZ6STkxkJcBeQ+75SVS3Nq1In5L8W7UC5DAaTr+WI48CRIDeAZcO3jgoavREPQhJPJPTZ7YqCUGMcLsh/LVurttxJdVdZHWZj9kfsFthO4uSPzugifrqRd6EQ3WGcAceKxb9ZAkbg6ThxzJAoX8y0KMR37W5ctsmGhhFU6R0ORM+i1W5VFynB2Gyi/BfkDZVyCMwq/APqnAMUDxw/FHBQCOP89LB/0Mx+/+wSRA2XkfbDWRhC6OBdlKq/IYObgDqyeGfzh4/xdjX4UsBr8K+6QDxwDFD8cfXYPD8UfSxACOAcG+RCng7DyUPE74bIw4TN/6GiNPssQAMYBjIPQFgBxCwqw4+u2XxvgmZb2++N0/eBreh0gfBiwet7WN03F6aWJVS8DeH4kd/SplrN9I/FjzJI9kgOKHI5AuAeD487x00IfI/O4f4H8PmUQlhYWJy0DHHKQeU+Jc8CsAeytTQo0bc4H1vbFG03/7PX9MOxwwAYofLqChHwHA0UfSxACOgQKNr8JpAGnOb1487rNitB6DCqQtOHBMNtg8WzPB4/xf2TbS78QAMWA/AzQC4INhbkwayCGyIC9Y/5ZO3Gz0JCIBPH4L6xtcsCe2fdXx/4Ys4tj74Fm/ezpWvTxx8ycAAvFiHHFwpLjtBMB2pxOxjhS1ngSPAe6KssXZunPv77QZpWOP8MLBIrJ/1y0XC8HkSMgpsMpHDBs6thkN/h5T9OExBrD7v8fccRxO6EcA5AEAszoeMZMGMb754eCI9c+EfAG07QzrT6Hze2q/Lt++sWzCt0peZgNPAnrOBI5m8xWyOPripG+PN5keppu/fOOWPjDicCsWL3TWL5k23ozAkpu+PbJtl83/0gX7O2C6BFYZIxmrZnlS/XszkOgnBxnAxtNBqJ40RQUAhAWTRJ6MagYojG9S1usL1j+r8joTJyU0fdWSiZt7oDnS2dNWcWTIFTGhL1x607cHovFkUfDCjRu7JLl4CmwWZdi1tP8woT2ZxYzhn5dO2vITruur4I2KJ2LxWJU3DJYa2sKA1bil5WwB5SOloS8AUi+Tk8PkVlevB9uqX2m5oPuX9tPaZ3u4F/4ZOSMeQ9N593V8A/LvE8s5uA/7j3Whvwx4OmLwNCcrO/+IFnkBMHbE4+QfnX9vh7ebs2P0t+XRLa2gCHsGsLTD4wGr+zg0990oYGpnDwNW45aWsweVb7SGvgBIV4JWP70eaat+peWC7l/aT8TnoTrjEzE8ccYFXAaYj8CQeRZ+DDxd8M2Xbvz2BAymTNklk7f00bTIm4CvXAVG8BV9x0JNtbgJsHRRgQejI5Mn+u48A5jYSdmwL1QAQAZgksjrCYTxzQ87CNY/JfKcjZAT0TC5UBcvkgXADiV4oGNManrlCzdtuXl59MsSq7jkbP8lk6p+C08bfAVwdVSEbUec84etYpJye7gerghPoPd/DM9+kMXmgB98tBMjFQAwFIR5mISdwVGhG+ObH2bYYv1TJH9gq65bUE/Fu2Ta/tthct1MRXhkTkPHL+6orm7x8eLJmytenvx9W6P5JIfXX7hp8yhR2uZjGE34A+gqUoULzv7vu+hPHVDvAJBcw4G/sypMGD1GOaV29jCAiZ2UDfti6FaZsJNE/hMD+RiAp+L9Etoszdcu13ZdK7qX63Ujoc0BudqZ3NYFZtzPjrH4lOdv2ryYC1EJ8xZWRxLJb2Jt+NbI1t1JeKVw26TGDoMC5DiYTX9WdbUYADZQ8xqyYPw2ybWpWbYZ/jnFtTz1o4UYIAZQDIS+APDaceSFyVXd4SA8HK4LyzPKrrCiDsRY/6DTwKqQr6rdwDlfJpL6/EFTypQ+/hXAybPJ1rC6vfwUhtsr+kUPrbUKZNBd+2177qbNt8KJCfoaeTMY5BsHLxWcXyoDqhcUMA4v49VL2zA4K69f9kQaG/C0uqaf4mbs2b+8pLG7hv20qW5XfkGNZLiCOGBG7cvVgBGVxR0qADwyDCSvtyZbtJkKB+ORMCNZC1BiywIGJo+JchbhY5+bvHluTel3E4ZEy2NZctLcz5x9DVwdY07IltZtdlW3HASa/47RXvNlxz+3OHTL5TA8eRpGjwdlKwfd3elBLK4Ux1y0Sc3axyrDygv2H6wKkscxQMP4OP5CPwcAR58a6frOv+0S0FYBa5BjIifKjSmtOWDJwuj6IhXswQx81LC7Cgx7dXAxau93i1/k0wWTGr8axOXISVCWnXDZ4Sp5twPaIS7kPuKJBXx62RNACAQxYJGBIHc2hiiRRyTMashInkbx0jbT4Ay5HwaHz2TPKq1tf28eWgxt1iL6AvA96RH/z37+1/jb7y66q+PnkJQjPeITav+QPsD9+iMH3dXpC0MBzdFIcgv6zvIIL0l4ENT8HHBpkwMMYHPBAYieNkEFAFwCkMNIVldsdJ+Ba/5wzj/Cqn2/ysGZe8WzkzeVY/kbdEfZOsHFHK/wAJ3dJKxPUv6CP3V6Aoa5p3rFL6s44GLWXRfdXYZ+6p/kRHJrFYdqORjMmHXxnZ0/lLhocY8BbFzdQ+4Ny1QAQBwwVSQ2jIJrw8B+6po/BocPZSM6+I7lT8rXlWy9EWa6y3vVUbFUIQ+d1KXP/rbqUBV+1f674yTAtEgFLjd0QCe5cG1xp9+o4OKpX28+THLrhh/N2Fy26ftOqIc/qeCEdOD397BzGPoCwO0E4Eyc6zYGF+0r8V1OKIyVfjcQOpwZ4Av6DX1IPiJ6go9D6kiJy/kAsZLvLocBKjk/xG/Ls1VbO10ejfK9NxlgHCgQKU7lHBI3F8gtMX3z9x0HjpzH424CIdvEgAoG6C4AOLq6ucAQ1sFu2nfZdhdV9vfcVXDdMzdvmitYamThPNAt9btxi+DlMKfjRhWT3qRfMGHy4qLYAY/DKMdgVXzZq4f/rXjXjqtGzuukpJOMRoWm1225wl7MWbXvgi0bYF3Kmb6Ahv2z8uTKBnkJgBbrDFABYJ07JZIwvOhGB6UEuwIlyn3fc4C+0Qq2/7vp29bJiC7Ptk+zIp8h0+Hpm7/rxu5kn2b8ZvlrqggYLH5ZcPiWr0HJBMuKHBCEef73vlfS4abonR2VnPlLyMfWbT0C9pP2aPicVSaK+IAh0Y6yU6clAAxAXtCCYIAuASDII9HgMKCw80+RojHRSSU78nLAT+/sdCNMeLwM9HqxA/sBHvb080vu6jRR1bB/mr+IiJelv6M+BetTEBNwC+qWVig9JEwMBISB0BcAbs8ixdr3u7wX9iPZ+ScK9CXA5Wmq+ExovMYO3352R9lf4FJAT8BZqQorVg+8P3cFj7DjLrmj40I7fGYRVo3FuFeesT4RKgJsCZMbSvfGFS4FWPnuBmYv2aQCAKIhh5GsrthgWrUbFDksf1h52fnHZecPw/4KOU3UFmpKhv+b8+9ncE/9B0UdzxRCjADM3yrEbWo/gDH+zRLDJXd2OOuS/+307+awqvgtnij+BHxU+awHKgJUBMYDOrC57wEXXIVABQDQj0kibPQwtoMgi+UPIy87/zr1nT+DM/TXLo+234nBlk9WDrNfemfZnyNFRfL6+B9g3e5gPmyDZxTcXpTQukkMKiY75vJ3yN3t4DXJolKlf1C89OE0EpCLdl9sw+aEL5y0EWToCwAbuSXVHmYg3fnDyCF2wl8TL6FDvLfJjzb9cEl0/+2D7+j0u7qigi5wG+QNYMa2h9OAXx/BbasToOPvcukfO92GfbGPGUrgsbt2cEpFgJkgUNvAMUB3ASh4PDkmK2BSF0acZC0wkOr8i5JLYOgnNexvQUVWEbgO+eTP/7fT4qwNbNqwZ8RhGqif9vdbq3oJwS+B4fkL4G/si5I+EIwvgRvx/v6LP3R+yyb4edVe+sey5xb9tmohjK4MydvYXIM+LK7LiYF0d4A53jzRmo6fuDBQAYDjDy1N3T+aQlMKZOdfu6fzNyVoqLGobFEglDzd0JC5LI0u/UPZatgk11//I1rVMRHnMLlR7wmT9Y6GoucQGL4/EGZMwS2YAlYmjwHb4bed8KzdzVDAfMG5+BTO9tewAu1NuGWuCrZ7Yikp0K+pTmg/koWbWkAcioAkFQFqSXVEGx0/cTRTAYDjDy2NTeBf/LHM1UdhPPmbKqwLaA6NKnh0YlXLmsLks+o7kBSCVaXxgoEX/LFDtVE8TrT7abRsC9h5es/qhEnbbFwQPbAaYnh+UTF7Hoz0VWuI9xFx/SUoEPs7eWlDrQ/h0+abg49HQ0NzAGT3iVmxgcXYdrXr3+O4T/DLzr+oBDoODh0HFnNTeej8I9RxYPcFA/JXTinbHatjgyCGK2yIY++aouSLcpTIABRq4gUGmu6L5o7nXvDBRQyhLwBkBYlZsbHD2PZC9esH/PAo3aLCEvYCYO2LxdtUXlSWxqjzx+4HZuRlEQCcXwixWNk0Hrj9GfT1ri5KPidzxgwmausOA9j4u4PaO1apAIBYYJIIG0qMbSnr9uIH/PHEAfcBzjOxWJvKi8rqWMFAGjJ2Pgsl59WxyACwbEcRcGYy3v5e570ii2YZaLpPmjuem7UXtPahLwDQw4jYjPD7EJbH8f/l1k3lMKltFDrOjf3URGUNdP7DoCPCpgDJW2NAci+LALhFcKXq+AqNVcjcsYaMpBxjoPF+afZvx4B601DoCwC3K0i37WPT0uv44RY2+bS8CBZnI/mVNbXU+WNzR4W8LALiNex80LWiUYxQI3syZ+Bi8nAVGEmHfQxgY24fMn9opgIA4oRJImyYMbalrNuL1/EDvnOwGDPldS4qCyNafzrzdzvz9tmXcwJq6tTPCYCnBZ67zwp98yIDmfumle9e9MlJTFQAwJCRlZdIpGWwwUrrsfqJtY+Vt4o7LYe1n08e7ByStqXgc2UMzvzpdbL5WHd+uyzIdBgJgE5ghYI4p48JXZz3hCyaYQAbazO2gtg29AVAEINKPtnGgLzCSEt4GIBBAFqIgeAyQA8Ccjm2ctjKz4vX8QO+/wC/qiZz9S4sSSy287GxCyd/37a2KHYUj4jSBBNV/2GdP5Uv/vFjjkSjQjssselIXsA7iSSv0SKFH9n1kqQFcO8+L0mm3uqokKuvFeoiVTYw4PXjjw0uK1VJBYDL53RyCMvPi9fx65y9DBSrKgAgVLxPjVD/2NhHfld1kdD4jTUiJh9zq8Gz/JkGU9sP5Zu3Pnxb1WM65zOGRjt94YdceTC6+TBwYBxnm68QEa09PL8fPIL3+cLzdh+5bfNKLsSUK28ve06VL7LzLyhNLNYZV/qIYID9siqMpMceBrx+/LHHa3VaQ38JQB6bMCs2FBjbUtbtxev4YdLen+EgofJd8pAvvE91fRHQCsv/A9GNLR6+bfMiwPgMvEf4dOBTa8CpYO3BxvUaE58+FK168uFbN56AtWmXvMQmMUqsEjN0/O0b+QJ3Y4gzoCh7Foqav0nfsVhk5x+Bzl/GpIEtUIz6G3JG5g4WH8nbywAqxvZC84X20BcAvogSgbTMwNBo5w9hBGC2ZQVZBfFFgOy8igV/CbqqS7OaSW8QLAIvjvw507Q1D0erlj0S3XTpQ9EvS9Kb3fqUGCSWR26rekViS2EErAbwDJG+Sw4MtG22Sbrzl6MyzTZA/ChzRuYOQgWJEgOeZ4AuAbg8BO/3ISw/4C9lWyfu5u27w97YV+0eCUUASy6ZBa+SHRPtuMuM7gV3w5lrTf2Zqxm5PW3PhjPesxkr3flQdPPTkMJ/aXFMx1eGDOFJC7pMiyxcKCLVH24BDOxXULxcAhMU2qQexGNaE+8TaZFYDFwMHDbZ3AOVkPzlQ/pqC8iZfI1ou/sM+OH44z5L2RGEfgTA7SEkt+1nTw1jW/yAf0i0PFbNtAug03wdi7exPFx37lNaXwQYvhwgOy8Onb+UbazP5N9tYEj9Kp2Jl3Z/uPnrB6Obfg/FiGEcxiK8r5XU/VB00+3SlrQpbQNewGB9uF1yILmQnOyzlPubQv6auUwAj3dm2iCZM7lR0FYvMIDJPSkb9iX0BUDYEyAs/ssz9BrGB8Jw8evqfTZeBKQ7L9XD1nAw6ww6f1fK9A8eiW7uodrHh6JbfgK610ERdWu9LZUWjBcBdvFX7w083plFTI/mqGSCdBEDTjIQ+gJADiFhVmywMLa9MPzlJ/zpIgBm1L+Oxd1Unvcp4anLAVnPwFNnubUw7M/hzB+Zdznkuya4+Oe86LdHYHMzLb/gD98cqXP9FbDZJYdd1H4kOWHATYqjtOFGn/byR51/I7p98Sc2H33hpI0gqQAAcjHDSNjYYGxLWbcXv+GXRUCd4APtuBwAOvsUZykCZOclZOePH/Y3kq/tNZ58TN6Hj80Peb1f6JHHIc7tsLHOLw+FUZYiQF5+sI8/UVkr6MwfmytuyOfPqdzHdzcwe8km+gDhJWesYHE7gdy2b4WzTBk/4pdFQFIk+8PkteVY/E3leZ8irr+UeSb76D1VLfW65LMOdf7pAuHkg9iWCzNjZeX7jg+rLgEfT2zqZ+4Dq/X2vI9em3yxMX9Fmv6cTfyt5CUFA2VOWOGHZNxlwHqe1eevu+jdtx76uwCszV5WGDiX70JAe+JT/COjB1bDWeWFRZpYDIeC09E8NFTQW56tgn75vnoWq04uYXKI22muuH45mH+mITSTf2kcZvo7vjjCHzyQqLJOnvlP7kCdv+MhVmTQ6X1KEWyvqAl9ASArSDcXt+1jffczfnnWB530wEKNKS8C5DXtQrg7QPILcw6U36duJG6Cab2MtMvVBuKL1pFLf7ZttvMHnX+Mhv2z0e+b3/18/PECyXQJAKIgk8jqig2iVbtpOax9rHwah9VPrH2svCwC4jofCLejKb9FsH6yH/pWP8u5CbfpdcLyA3HtaDW2aDkonFIcghNoXZk6oPOPU+ePTQ1PyGPzwhNOuAiCCgAgH5NE2NhhbEtZtxe/45f8ySKA68n+4IsNcwJw+YXktxCbH2C/AIkBtX/ZYHtlAV3zx6aFZ+Sx+eEZR1wCEvoCIHVdVl5HsrpiA2fVbloOax8rn8Zh9RNrX5G8nBPAdX0QvLRmueVcsMqBnXJYfuzE5rzulYXFkQFmnzqIpZDkbWQAm0M2QvOD6tAXAG5XkG7bxyap3/Fn+p8qAhJQBPDgjARk+mflOza+HpJfWVhEnb+VHPCyDDa/vOybE9ioAACWMUmEDRLGtpR1e/E7/sb8pYsAeMBIIC4HNPbP7N/Y+HpEfmURdf5mQ++L9tj88oWTNoIMfQGAHu7FBsfvQ1h+x99M/GQRENkzEoDODyw/WPlm/DP1E9a+2/KMrSymzt9UyH3VGJtfvnJWPdjQFwBuV5Bu28emlN/xZ/NfFgEioV0ohA13B4BRQ7wpsJ3NP6O/G8KZwx9wdCVWB0Ze52whXfM3Gm3/tcPkhpQN+0IFAGQAJomwCYSx7YUE9jv+XPGTdwcUJF26OwA6zpIi7X/c5hdrf3cJOx90rMDqsSoP8Z0y447Np+WKM23zLwNW8yIt51/P1SCnAgCGkDAvlMCGAWNbyrq9+B1/Pv7kSEBhemIgMldMcLVy955haxMyzeZxPv/ybcfanzSpbHdNMRsEbyVYgdVlUb6QCfHX6Xds6pDPV9ruPwYs5sTefcV/HqtFHPoCQC2dpC2IDKSKgLg+CPr/5Q74t7K6IDJg8uQOPzhgyxETsgioLWTy7ooVjhhsauRgzviT8sVGTTfRL8RAeBkIfQGQHgqy+olNHat203JY+1j5NA6rn1j7TsmniwDw0867A5p0/lZ5Tcth+UnrsfqZtp8uAuCMzZ3LAYKdVfXp5tvTeOgzGAxYzcu0XDBYsO4FvQvA5WF0OYSFWe6/o0rmsmuLq8Yd9loWAQ9ENw6qLdKeB9P9VJoHHlfWRZqe+budHyrjK4uAe+6pGlQcZ8+D3r4q+TOki7Obp9+x+e3rbun0D0PtqZHnGcDuH5530GaAoR8BsJlfUh8wBmQRUBKDhwUpvByQrfMPGHUpd2QRUAeXA6DuXeGCfxzej/DwjDs2HuWCbTJJDHiOgdAXAPIMB7NiI4qxHQRZLH9uyKeLAOBfxeWAZs/80375PcZpPzI/00UA+ObG5YDWOtMWwkhOi0xM9N2fDGD3D396rQ41FQBwKiKHkayu2FBYtRsUOSx/bsnLIqBUjgTAuwMQscjZ+UvfELo9IZstPrIIiMNIAPi3wmkf4dkA3WuKtD9nw0a/+4cBbO74x1N7kFIBALxiqkhsWDC2gyCL5c9N+VQRUKvLTszKSMDKmNb0mn9jf/we48b+ZP4ti4BEARQBLowEQBHwq/vu3DwqEw999x8D2P3Dfx6rRRz6AkAtnaQtbAzIIqC4VrsQ/F5hwvcVxXVa/yDd6mfC9wZNUyMBWuRCwfhrDTY48oeYdt/dm052xBQZIQY8yEDoCwC3h5Cw9v0u78F9wjQk+cTAnXVbz4dYzIA1mSMmSThjmd6yXafzpIwRQzl0eWKIPx8+Iz7KQqiw5c7zdMZngz49h07J7dOwwhOalVweKYbC4+/0kCAjUfJmG2weeNMr51BRAQBcY4aRsKHC2A6CLJY/r8hHo+WxG39ddp3QRQ+Iy1Q4MK2Dzx9Sa/33qRrXu994c9n4kSN53Chuv8fYqJ/XXdetbuLNncboSdYTfL5fCPZ+PX98G3y+B3qmSW6B45/C33fDitpv98oLdnBM43+hhwQZjZS32u2No8V88JY3zqOh5wA4z3kDi5DA8olvrRv8GJ4/dgbN1Ym3dP4QfJqgyi+f54fp+E76Tdk64O76XPztqu30m5YlVccxxs/P1c7EtnM2fJF6SNBvTMhQUw8wIAsAWqwzEPoRAPTrXq1zn5b8Go0BhkN9quOrNAn0mZUBP+eHLfGNRrke19kVjPP/qsp7Dg8JuueuqguyRoE2eJMB7LHPm145hir0BYDbQ0hg/2UsBr/K60wsdSzTfWrIz/lhZ3xvuaXztzrTfwb81CnKfw6XbZ6YQg8J8tWego29r5y1ASwVAEAqJomwMeERNh/sy8lhKBw+lE9GImwBlr+gy/s4P2yP7+TJnd+EJ/tNUJj7rZMR7ckoPSTIN7sVNva+cdQmoKEvANBDiMjAwG1Q6zjnc9E4sENhTsszNmvixNT1ciSDwRb3bX44FF8oAmbD8P3jCvefniUt+JxgZ1WAvMMetwJEhRVXQl8AeKGCrK7+Tp7FvILF4iP5Zfvt12milYQNo4wP88PR+FZX6yMh9z9Qlf8woebKu/60uSKMueY3n7Ex95u/qvFSAQCMYpJIRUDkLWS11VsHwjXImYAlyJcDknB71/T923YaaOZWOBUc+1mHj/LDlfhG4WFMGtPkfIAdmH25oayYejc9JMjzu03DmJk/lnveQZsBygGUUC933IN7ne4tk8qUcnjXXZvKhcaHQTFwLgSmK6ytfB4g+cCbDbBrLoVh2gW30LA/KpwezA/PxPeue6ou0hl7GghWtU9+zeLiBDnhEBU0EraNAa8dv21z1CbFqnYUm+DZr5YSyH6OyQIx4BQDd0ypuhOG9H6t0N4/D+/S6bwhQ3hSoU5SpYgBOn7jiKRLAMAfZhgJRz9JEwPEgEoGYrs6/QZGAZZi9ulGsmd9uiH1kCCVMEmXIgYaxcr0sVwRDN+qoQIAQodJIt9GnoATAwFkQD4kSIsnfgWX0DZg9utMWbigcPMfpmz+aQDp8r1LmXGy8t33BCAdoAIALoLAwcLyiuSfxIkBYkAxA7fcctBWXbBfwH5dh9m3M2TlEeLhO6ZsPEoxVFKHZCAjRpaO4UjzvhcPfQHg+wiSA8QAMdCEgd9NKlvNuLixyQbrP7ROMm0hPSTIOoEk6T0GQl8AWBk2ypTxXkgJETFADEgGbr2x8yy4IeCRzP0V+b271lr7M7HrHQaQ8fSOIy4hoQIAMfwvh59oIQaIAe8y0FKLVQgu3sEOFe+VZ+xXt9+3eZR3PQ4Xsr1xsXgcDxdbTb0NfQHQlBL6hRggBoLCwIQJB9cIHhkC/mxX5ZMQYvrtUzefpkof6SEG3GIg9AUADSG5lXpklxhwhoHohI6fw0z+K2FfhwdRwj/4tVDXxV/vmL6pgzMekJVsDGBjmU1vWH6nAsDi0FF66CksiUJ+EgN+ZuC2CWXPwT57d3q/VfB5cF2CPzl4oYj4mRe/Y8fG0e/+Y/FTAQDnA5j/sAEgeWKAGHCGAb4z/ZAgzB7fQPasY/676XZn0JOV5hhoEA0LR/LmdIbpt9AXAGEKNvlKDISZAfmQoERR4lfAwQZVPAjGb45O3UgPCVJFKOlxlIHQFwA0hORovpExYsBVBu4ce9BWeNmW0ocEJRl/OEoPCXIlrnT8xtFOBQDwh5lIgqOfpIkBYsBpBv5wfdlq2OdvxOz3jWRbJyJ8YfSBjS2c9iXs9hrFwfSxPOz8UQEAGYBJorAnEPlPDPiRgf+9ofMs2O+VPiQoUcPoIUEOJwPm2C1lw76EvgBIvTlcPtDH6hr2DCL/iQGfMlAtEhWw379jed9vdMyA+QC/+s39G+khQU7mQ6MYmI6lk1g9aKvAg5gchURVoKN0kzFiwDMMTIWHBP32/i0/11nyLRgGbKsEmODTfnPfprV/nND5TYy+6Kwtrepi8Z6cRY6EdxocAWcosOqd4LMd6G0Pq/zMvAXxO/h7K2yXn9/CuOZnUJB8wnT90+KC4vei17XfCb8HbqHjNy6kVADg+CNpYoAY8DED/zu+42c3T914NeP8H+CGPJ/ELsVCY3+/efqmE+68rjN0xMaWyXd935aXxPpzJvqAxGl18WQPxrWIvM2tfpGfOeEdAA1gFUfuEYAPkNHglYh6TL952qZ1IF2pC17JiutevGt0l2372vn3W5od/3rgLvLQFwC59yl3g0PWiQFiwH4G7rzhwGdumbbpTzCjfLIiawfDMwf/Ag8J6r9oCE9m0wlFgnyS4KXwHtuLGavrC9+LsrVF/i4v9faAzrIH52I0ixclbr5/06vwWMRnkoWRv98zpmMVUr974jlrIvdg+cVy6AsAqiD9kqqEkxiwj4Gi7WW31O6/+Tg4az5PjRV+zuFVqYcE/aaxvl/fv/EEODUfAe8UuAK2labO1Bs3svdvedw/G05+zo4kktMAz3IoQuaVbC97Gp6VkLDXtFrtdPzG8Rn6SYAygTArjn6SJgaIAS8wUP+QIHYFHAv+izkeZMrCcPvNk6dXXSD9k48Mvun+jVdMvn/TR3Btfg0M7Y+AtqWZ7V36DpcZ+Dkw+rGwpl3VRzdNqxoWja63ayRCeaixnCkH5DOFVADAEBLmYRI+izfBJQaIgSwMTKko25KMaEPgeBDDHBMyZDl0UI/eNH3j9YdWVX0M8wwehW1HZWxHHXuU62HscKaJ+dXt2n06efqmimhUeH6EGMtBllQIzc+hLwBCE2lylBggBvIyMGVspzeg156Qt6HhBmI/mLw3FZofbljE/YZdoHCZXd2uat2k+zf2dx8OIbCLgdAXADSEZFdqkV5iwJ8M3D1ePiSIP4E9NgRAHm5B5Esm3b/p75NmbSnzYjSxHHvRJycxeX6Ix24y5BCSl5YbZlR1j3B9uBD8bIDWFbC1ROLbDTvJBo2JZULX5k8ZX7YOqS+nuA34c9pzYKOj/DngD5kwwICoYyN5SWrmfHcDzYPdhLOfsWTyzEkzNo66Z9yBT3nJWa8dv73EjREsHuv+jEBW22bijE2yiLS8TBnXWQmH46Z/VlzMWk2FmbkjAYxdIzNJuPVnbuvvv58QjZbHLDvdjKBD+Jux7OhPtvHnqBdkzBADk+7f0k1o8JAgpughQYaser7Ro6yWj54yqWy3F5B65fjtBS6sYLCro7GCxRUZLwwhyc6zSGu1BKrZCsCjYTHlkI9AgTHmh/btlqic6esgftQdGzl4MarXFv5cSXwympeBe+AhQTBb/2rIG6ibcXcLBUj+SlGir7x+6qaueQl0oAGWVwcgetoEFQAQHkwSqYhuEW81DY4w/TA4TMqetbN9u3tVYJc6XMCPiplJrpqzpZQ/VXEgPeoZuHfcgc/AvvknBTnTXB759DfeUytgb94wfdOZ6hk3pxEbF3PWgteaCgAYwMfcSoJNCXnNXOdsBAaDRdmKG2ZuKvcxflTcLHKWaVMJf1j+Sd5+Br4uK/sN5Ms/FeRMZv74/XsHuFC5dMKMjT+zPwLZLWBjkl1zOLaEvgBwPcww4Q8wuBGHCByBhqH9dw8/GjpSgRr+kCBI3H4G5ON8IxH+S7D0X/ut+cpCkeD8bzfM2HSNr1AT2L0MuNHx7DXuhS/uDyHBU7iACHdWcS4+Bm7id4u3tF0V/OEjQBrsZ0A+JEgweEgQg4cEgTla93IQgbPw+eNnbbzW/ig0tYCNQ1ON4fqFCgCXLwHA8P/B2GEsy/Ia64JNd1fxI2Nnmbe0XQX8YfkneecYmAYPCYJX885B5006f4LzCf0In3P9rI0/dS4a9ZawsXAar9fsUQEAEcFUkdiAYmyrkPU7fhUcYHRg+SN5/zAwfvbmHjrjQzH5YkF2I3RyT4Hc73QmfqZrrBcvKDgwxmPt7h9dptUUlBXJ70mdH8aFOAHw/QoOaLfvkfnWgj2rx8MI2H5i/MyNZzgZUax/TmL1oq3QPwjI9aAI9jXcmneMSzj+g7brLn40fKQCPH9IACTuDAPjp23uJIT+LFhr7YDF1TDSsFBo/MUZozp/mNXeaMbmMRaH7dv2rF/C59q97eFpYmNnbj42oonzdMZ+BQMOx+/dZs+XEpgT8Mx1c7f0mj6q42f2mCCtKhkIfQEgh5BcXSLiZdhPXSkAOOcvo313ET8aO1KBEv6QGEjcfgaufujLEr1GfwYsdbHR2g7QvYBFtNkzRnb6txI7nIuZjH0AuuR673Vzqo6Fz6HwGmJ5vb4VrHYs+zM9seiG+74+deqEg2vsMJCp0/XjdyYYH36nSwAQNMwwEj7m2nywn8RgsCibFFzM9zF+VNwscpZpUxF/+AiQBnsZaF1TMgXy5RQFOZOZP3u+8+1wBLo1KSIHzRjd+UZlnX8zlEyvKFsH6wRdT3aFzbfD+w622+RTz3hJwaxmICj/CYtfOSCfKQx9AeB2vOROCYMQc53GAWcBs3IOLxoE5BZ+g/Bsa6aKP9sAkmIlDIyZu/lc6GRgsF35AqPybG6S1R02Y/SB/zt7TMddyi1kUThr7EFbodi4LcHZkdDkUVhlP6p6uWbs7KpfqVZK+tQyEPoCQA4hYVYV4Wh/wPcTAMMrGBxmZHUulsULOk9UgV3qcBq/GV/taKuaP1VxID1qGbh+6pf7MaE/CDnEFefR50LT+swc3blizugu8vq9K8tcuLURMFwlNNEXKoAvFfsIx1UxfdScqo52OofFbCc2P+imAgCihBlGUhHk6JDy2Jb23w8EHDNhtfNyAOgW0xNa54HzRnI5eUjJ4iB+VKwwcd4jawt/SoJASpQzUFdSMh3ifpCCvNmXt4I9WlNUcPysUXBLoUeWWaMOfK2wrvZ4uCTwtFJf4dwA3kI6w043sXjtxOYH3W5PgXOdo4o5uLcBzqlQ8zbANBFj4PG8yQgfxlnqITNd4XfsZB05tLgBjkBL4RaiBQ/kmlWcBoH4tAE/Ao0SUUf5U4KYlKAZGDXnm9M4014HRaqOkUnYpyfNrjhwKhqcXQpgNnLFnKqbwOM7Ffotz7AGzRnd+QU7YHvt+G2Hj3bqVJXcdmK0VXfFXGQBMEptAWCrs6Tc8wyMfQDeDaHrw+F2qrMBbFdYW3oedG6A8rWxG2DkaRkT2nwYdl6Xu7kHtsqO8IEqeYbeSxGaOriI8Is5Iw+UdxJ4fhk9d9OVcGa9AICqukts/XftynrKRyqrdp6O3zhG6RIA8IcZRsLRT9LEQD0D8pXKo+Zsmp0Q4l2d8+sgJ8thbYnJTY/ISh/gpVN8PHSC746cu2nm4IXri7wc94p5m38JmHsp4q8WHuBzsV86fxmX2aM6P8p0/jPwP6GIg/IDtm2+xo6YY/HZgclPOqkAgGhhkshPwSas3mRAdv6xolZLYEJTBeSihslHj8tGIAJj2n3fbolXiwCJK8nEHYp41GHk47IHRh34ojczLzuqOaPLnoXHfA8HHuBtyLhjpJQHTn8vn6eQ3aK1LVhs1qwGR4oKALgIgplJGpxUIE/cYqC2pNU0yMF+mDz0mexZ+29rd69bfOey2+77/YfA9i5q+OQ3QOf/j1z2vLxt3sjOj8ClqFtUcAF+HlgYL75Ctb9YbKrx+E1f6AsAvwWM8AaLgRFwzZ8LNiJYXhnypuLaeZvg0oC3FujwblCDiD8+b2TZdDW63NPy/+2de5RV1X3H9z53Zoi8RHwwD4loTW2krmSJVhNNKgIKNhoRZxRf0fAqSqISu1b/actKV9O8bKwpLcXBF8LAQJatGq0gATFAbeNKTUR8pVVhZhDk/ZK5c8/ubw/OYgCJM+e77z1n3/09a51179y5v9/+7c/vd8/5nd8+Z++5U4f8QIZvnNy7IM9SfmfWLMNzTnruPKbl4J3BEtIxMcEPSkhA5pefJDFYzmX/4w2x5aT0NqmEqD+1KUlI/lR8IY/DwSXvNw6coP78Uxv04QsynXCucNAugCQ3csJczmmp/eBrLruN2uTSFh91MQHgEICPcVs+Nkd6DFrG9Fb+0KOumfGlPAd/twOWcZyLJ8+/rdo+/VAWm52sSK7b7xA28nwENmQqM2hOdgkFtcelLT7qCj4B8NFptLl8CMgVzNDy6U0ve6KLurhOr4yZ/s/vnSSntj/rldAnfFn8OWfe5Lo1n/Avrz9qnFKzSio2C+BOaDW22LMDwjYGpCD4BIAlpICiPYNdlfgbgMagx/KlWFq3R17PV1ZdKxyrQJa7csb8TY8a9PBLHR3RXwif3SCjynxOTXTVfdAWV2Z4q4cJAFjS8tbzNDwTBNASpu/ymXCCGCEr8zTgLPUP506r/TArfXJtx6N3nbZZaf1TnFNsn7RwsqG2ODHCYyVMAMR5SBbpse9pegYIILFXDrIZcIG67bFNJwvLURBPo3ZXxFUlWQI3TWa5OH5AOO2DWCl90aTGjYNd9AOzw4UFfusIPgHw2320ngRIACVQcTC6THRUYnr0vLnTBu/CdGRf2lY45GbJh0BLc7GpHAPqoLgDAq7menZgSjoqbAmJGwmkRYDxlxb5w+3GOrpUpik+/EGCdwUVoyfFBK2mIxIr/UikzT1Y62asyC/GdBx6IgHVEbJ88BUAlpBCDv/0+47Gn+/y6XvAnkTMVxCO0oeX50+p3ZCFvpTChsenDPmNrG/wKsJMZJ0stATaUApcmW6DCYC4BwmiTHuXxmWeABJ75SCbtoPqZ2/pLxy/ALJcmnY/St2+DAMsBJmdc/MT2waidoM2oM17Lx98AuC9B9kBEiCBxAT69sl/QYShodCOSD2b2ABPBbWKl4OmR5UH2s8HdVAcJAAFPth2JsSzNgZ78yObz4tkPXh53GaUlCaGCSTf14PPhJ8BI/Yprd6VSdBeMHHUOH+y2/Xs0fibP6km1btYbp3XZi/CvN2Mis7GfKBbFnyz+nVvASQ0/KxNta/+bujmbSJ+ckIVsuKwPk9kVyWVt3KY75CWy0OWCUBG/GiXhN3Rt/9PVGymSXkt6hyXyIhtgZvRT3wxXHwyXG4Um3HzvLY57QO2z1zSMLzdBRevz54CwHf7C5E+W3cueJvYm/+VWNJjwVmzdHzLvM2rJQLGJ+2GYD8zqWyXnO/x19WPtF45BJAW+W7t2pP/zn79n5MrzenyMX3SjU3G3ubkcvuuPnuyu559xnhl3hw5+Z8NGvkrUN5bcbn6Xg8Zr/EEAGqfwtjYVznwy0IJafuA/g/IpdTIcuAZSB8ur9zbuZ79t9D+ZiH+kD6Ugf3QVag8QfA2ws9v2fhNWT4Z6cIwRNjK+h5/aP9R+eCvNm0JCdlRB9gxfymFTUVsoCzmwyT8xO/TJz6Kr2efpO3uMmj8ofLdbUnyHm0flRebT0xid5eMDAv9L2qDr/Im1m91cUj2auDZAJO1e/h44St7V3bzHgBXJBPqkfXgJ3eO+SeUp1hqBHI67lzPfiZigT2A+byVgf39Ef6mUNmGyHstG0UyK6CsopB8gxeD8j3+kqNzIxl8AiDj7qluUkIbnaoBbDwxASn/4tOZphx/iTvfJei//dBTNoUDZncXitBeTb6wW1UBAaAVnACkffz23eccAhAPImUkBwEwFGmfspj/EH4SOGeg/kfat7Jpb2Vgfz+kD8O3nro/bR+k1f7Og/v2IOxk6LNi6r8aaA0GqP20wGWo3eArADaA0tygAlqahrNtmzjC4QMrSNkPqP03PJLuPAKo/asOPbUT5M94aJ+z411qMxKBZu5U1aGmJVeB+i95y+UhGXwCkHoJSauNEkrnlkc4BdeL9+EeAxVUuG0XCny3H2QwoKatSlR0gGq8FN+hdvSNMP/nZcIz7ByOte8ld5dGB58AYNHnwBXGLJf7AJgAOEBZehUanQ4VLyGUvtNHtJj67+cIa0r/R79KY2fCC3IYoNBv/wDdkUOg5xFhKxt6/KH8mACgBFH5XNRoYjND1EC/JNQMyveagKwAaxp7LXWUgO8HMN/tP8odvf5TZhI8TYRsFS+4rTJfcXqMXcDvQKGFHn8oPyYAKZeQFt9W/dr1j7bNkaGIu1BnUr6EBLSZvfT2WngOeN8nMvHdfjRitNJnio5XUD0+yhdyZih4Cd6K9jv0+EP5Bf8UAArQhbzuu90+S77ChS7qKD4BuzDQ4AM19xW/JbaQeQI64Pt3ZI0MzD8m3DkUMHDOpFkBAFNYF56wC8vUN6+/Kj5gp5c1dj0ADge4AOteR0EqNbPtyX/uNA2PX1rzTAbiD8Hku/1I3zv9Z5RdTjjITXz/RajjxmyC5EU49PhD+TEBSHkIoMuBH68u960JdjggMpNkbMtOMjNMdmimsi79fE1MYK9IviulxmUVWs9bcksNXPbvbonvJUzf7e/ui4Tvv5xQzm8xI9NgzW+7GOmE0dEGRN7KMv4wgkwAMH7OpX92e41dYQuaXta5UVRYNAK+38Tku/0OHFt9zfyWc566te5NB7q8UfH1BR/8sfh+CGKwjs1vEXkry/jDCPIeAIwfpUmABAInkFPR1aEhiIy5Eu3zwco8nACgNoQuzwpARoYAQg/EUPvvewnTd/vdxJ0ZL3p+7EaXH1pk7P1GuR8G2X7385vPwB8DxGxA7C8L2eArALaEhOxlEQXsRGoEkNjLQvkTtb9M5L9khwFSC6ISNzz+8dbPi99GQL4z6hcuzIZscGGA5zqCTwA89x/NJwESSJ+AlgvRyembURoLYqXtk0rQJjMAr4QUUNgJgeATAFvCRHYnXqCSYAkgsZeF8jtqf/nI68n1zdtPLPdAtn00kbkd9JuJcxVuKgA8fkMhx3sAIHwUJgGMgC1h+rz5br9D9oM+OviRnc3zew51Zk7VR+0H5AklPQA0bO3TNw35ANTRKc74wyiyAiD8bBAl3TH8lA6dQNK465JLm1+XHXztrCTed/XC1lPS9kmx2h/X3HaqUfpe1Ndy82CzKxthW1wZ4qme4CsAnvqNZpNAWRB45pbaTNzHPf6xTSfnc9EmgfoZAOxJqqC+K/J3AjoyK5prV98X49Cr/1hHHUsz28nADGMFgGNIgYV8troLjqWm3hnf7e8C+OQ3Tt8mV5NPov2JIzV13BMtl3TpLZdXqWxcKnP/3YHyEfkVT038LLwIUBdX1J4uPaG+MgEQzyNlpFADh/12QwCJPSub9ua7/Ufw0/ohtD8in9Naz79m3lb0SvkI09L847LmLf0LRj0sfetc/BdhpCL9jy77gthiZUPfmABIBCBBFHoAsf8YAST2snAA893+7t77+U3Vq4xRG9A+ifyZ+c/k/6W7bp/fn5Av2MToczgX/c6Fb1Y/55IFapNLW3zUFXwC0DmblR2FTLr76HXanB0CSeOuSy7tnnTZkfQ1bfu7ty8Pp+uc+vvEx4IjGdw8tqn13u7qfXw/dmHrX8p1/6FZ/47sX4JjZvzgrFk6dsoBtcmpMf4pCz4BYAbpX9CWk8W+x5/v9h8dS/ura5qM1u+g/bLyUlr80dgFbfVHt+HL31cubGsQW//OBQvRsal/Rdzouu+oba7t8U0fEwDxGBJEvjmc9maLABJ7VjbtzXf7j+a3aqTuMCb+Htqvj+VzcuPcE1csaht3dDtZ/3tsU8s1cmR8QvoRuWARG/W3SxqGHnDdb9Q21/b4pi/4BAAu9/nmcdqbLQK+lzB9t/8TomFgRe3jKlL/Ax8bDrGp0sb829hF/lQCrmhquUGe92+W/lc6YvD2tr01j3wCavyjMow/HErPNQQ/D4DNILO0jX5i83lRLp4sNo2SfZjs/WTnlh6BfdL0u3L78wsmihqX3Vj9mktT0Pi7oqkVVQF1J9XGIcuPL7ykQReubGr9tvTtRfmWPcWgW5UxpmnMotahy2+s/QdUWTHlpez/HVnp74fSd3cXhzqa+co0nS+G3eUYf8XgdDydTACOR6bEn4979u0+hV39fmJUPM3pj6/E/SjD5mwCNlyeNx6uTDxjTFPLnEG5nTOXNAxvd9FXHsBcUHSv4/mJtS9JctUk/rnJkfacjDXeLzpHtOcqpq1qOG2vI71O1Fzz71sHHNjf3hgrY8f9XW5Llt9Y/YxLhd118ffTnUbv37vL8nrfdiYksjCRhD3553f3ey7WarrYE6E2UV5GL+W6rQi7jOnqu7abQc/VN6+vchHARbCxGP0umk4XDIumIx/dayK1xaWP5Dd+U0Xc8ero5tZLi2Z3LxWPbmq7bP+B/K8lthtc9lV07Yw6Ku/upTm9+jpqb68aK8MvB58AZMGn+V39HhA7RmbBFtrw6QTkYbHLd8SD7//0b/IbPhNYdlv1lkgZOxznejtLxerF0U2tc+38+q6V91TfqIUfDLE2yGN+dmW+P+ipXE+/J8Nm337+1lPbevp9fq/0BIJPAGwJCdlRl41u3nyeZLFTERsoi/kwGT8zfeTCtuGo/5O1nUZ/i9Mmyq/Y8stuqHta7mB3MUPg0ccZW+mb0h6bt0Y1tf3VZU/+36Bi96VL/6UL3jtp1KK2v1ZR4W1rg8QgPMPfMXFs1GPLJ9bO72qzWK/HtCsN9eazYtnli17eA+DiFh/A23EcT5LbjIJPxACEaYnmdM5MksZledTkmy1hcss2gQO5wt0nmNwIsfL8Ilg6SE6/343a+9x3+eLWh2Ua4YdWNNS8XoR21OhFrZ+XIYgponuy3OhXvKmKjXqjIh/ZpZGLvvH3gyFmAoDxg6UlgMfASqggLQKw7+zVCrdsE1gnz69/tanl2lyk/1ssHVIkaweK3nvkaYF7Rja3viyvT+Z09DSaDHxVKow5Uxgnj/VdX1DqwiLZ3l3tDlOhxsvTMvbpmaJv/P1giINPADB8TqSHOtFCJWkQOCONRtlm6Qmsnli3ceTilglSLV8hrfcpqgVGXaSVvig25vsjF7dukZPcGmn3VSkWbTBGv18Rxa0f5fN7Kmo/u8dOXGSHDyryfQaaWA8pRPFZ2kR/KPZdIMXwP5EnV6rtk4wlKjQdVFqPX3V9zRtF5UPlzggEnwCkXUJKu31nkURFiQiI//eIYPHKsYmsKpmQ7bs328ob6taMbG5pkKtpu559ZYkMP03aGS8n8/GdV7syWt8hH1RUSvNb29RlzbKyrjxhbz87NGeflic2Sn9dLC3GWqtJq+prXrSmlGrj8RMjHfzYs/2pIDuGv7PtjUj7lMX8B/J7j/6H+MP8UP69lV/ZUPeUlOe/IXEjK+RCfYeOOxlr2578p62qr13QW57o91EOaPu+ywefAKTtQCnNLU/bBrafkIDGfRe0/x3wS+g5SOzFG+rsgkHfFCWdF96QMv+FZaTCTJGTf6P/XQmvBxwCkCNwqltF1GgK8QyxIZeqHWy8twQKMh6LH/TC9b8bfr31mqPvr66vefzSJZu3RypeLCr7OlLrm5qDYvCk1Q11Jb/y7wLFIYAuEsleg68ApF1CWnVd9Wsy/eYc1A7Kl7YcKz+32S85eFwrVP+74pfssOdG6pf1dopbM0Z+e9sC/P1tk2unMatTKPt39x7KvbuuEN8zARCvI0HkImh2mJ0z5caiFYgdlMX82Ct+sjDQvu0197nwvdURnP8d83PlhyR6VtfXrS1EaoTEz696FUPSmLff12pDhylc/GJ97UtJmLmUQRm6tMVHXcEnAJ3Px9hhgKS7A6+vl4VldpjtV8kkIP8kdhQS25K0D5Trqf+tbx48sKPmKpermwXk/6Lwc/AThFSsnVD7XsXeg1+R2Hio7H+7kX6k7/7oQpkb4R0Imith9Njlyg5P9Vh8QW+XLMWWU11zfa1ThpcstdPLds4wN0YcM0z2/kE7KP3O7xUT3hUnL9Oxnuei7P/7ulSG/i8pv9/HthT/+/LS1gnyFN5sSQSKNWFQKbpxTBsS/7ukT3f+ckLtwmP+meIHWTt+p4giUdNOT16JLEhZSH6wtoqUeFvrOAFIbAgFSYAEMkHATszTXujzAzFmaiYMgo0wz1RUqDtXX1u3EVblWAGP3xjQ4J8CkKyWGwmQAAk4I7Bq/Jk7Rdm0Ly3Z1Kx19GM5xnzRmfLSKnpL7rK/e911df9R2mZ70RqP372AdexXg78HgDeRHBsU/IQESAAnsK7+9BVrX6sZIc/J20WjvJnwy9oaKzWlanDN8HXX1Wb35C+G8viNxSkTADCIMPyUJgESKGsCs3S87vq6h3cVdpwtT/rcIVfUr6MnrSLKvyVT+s048YR9n/vPCbWNdp2BrPsGZZH1/jWsySoAAAX6SURBVBXbvuCHAGwAcSMBEiCBYhKwT3qI/keVMY9d9LPN4zpv9NXqa/JZVTHb7YFuWSRQPR9p9dN142uel8V8vDokemVsD5xR6q8EnwDwHoBShxzbI4GACcgJ9mWlnhUCz454uvWUyry6SU5istiPukT2yhKRsefNNfLs66Kc0kvWXle9pUTtum+G9wBATINPAJhBQvFDYRIggYQEXrm69kMRfdDuI5q3n5irOHiFrOU3RsbfL5bz2rnyuavpwe1h7i3ZV8oaBis78mrlrxtqtsrf3m88fmMuZAKA8aM0CZAACcAEXmkYvEuULPl4V8Obt/Tvm+s4X1bZk0TAnCVX62fKye6z8v9TZB/48X5o+MCofVLJbJd9j4rVJvlfm7xvkSRig4nMb6p01W/XfP1Ur5Zelj70aGMC0CNMx/0SEwCWkI4bHPwHCZBAOgTWN5xmJ1Ba/fGejhEetMrFgDAnBf8UAIaP0iRAAiRAAiTgJwFWAPz0G60mARIggeAJcAgACwEmABwCwCKI0iRAAiSQEgEOAWDgOQSA8aM0CZAACZAACXhJgBUAL91Go0mABEiABDgEgMUAEwAOAWARRGkSIAESSIkAhwAw8EwAMH6UJgESIAESSIkAKwAYeN4DgPGjNAmQAAmQAAl4SYAVAA4BeBm4NJoESIAEOASAxQATAIwfpUmABEiABFIiwCEADDwTAIwfpUmABEiABFIiwAQAAx98AsDlgLEAojQJkAAJpEaAQ7gQ+uATAGaQUPxQmARIgARSI8DjN4aeCQDGj9IkQAIkQAIpEWACgIEPPgHgEAAWQJQmARIggdQIcAgAQh98AsAMEoofCpMACZBAagR4/MbQMwHA+FGaBEiABEggJQJMADDwTAA0QwgLIUqTAAmQQDoEDI/fEHhOBQzhozAJkAAJkAAJ+EmAFQA//UarSYAESCB4AqzfYiHABADjR2kSIAESIIGUCDABwMAzAeBjJFgEUZoESIAEUiLAxYAw8LwHAONHaRIgARIgARLwkgArAF66jUaTAAmQAAlwCACLASYAHALAIojSJEACJJASAQ4BYOA5BIDxozQJkAAJkAAJeEmAFQAv3UajSYAESIAEOASAxQATAA4BYBFEaRIgARJIiQCHADDwTAAwfpQmARIgARJIiQArABh43gOA8aM0CZAACZAACXhJgBUADgF4Gbg0mgRIgAQ4BIDFABMAjJ8a+nwLq1AgQ4qTAAmQQBICPPgmoXZYhkMAh1nwHQmQAAmQAAkEQ4AVAA4BBBPs7CgJkAAJkMBhAkwADrPgOxIgARIgARIIhgATgGBczY6SAAmQAAmQwGECwScAikMAh6OB70iABEiABIIhEHwCwLtIg4l1dpQESIAESKAbASYA3WDwLQmQAAmQAAmEQoAJgFZ7xNkDQnE4+0kCJEACJNBJYHfoHDgPgFIbQw8C9p8ESIAEgiOgzfvB9fmoDgdfAYiVWa6VPvcoLvyTBEiABEignAmYaFk5d68nfQs+AYhyFY1xXJghsHI9AcbvkAAJkAAJeE+gUDB6nve9ADsQ/BDAByOrX5NHAeeAHClOAiRAAiTgCwGjZm8fXfO6L+YWy87gKwAW7NYPd8485eRBfyRvRxULNPWSAAmQAAlkgIBWL3x4Ytt9GbAkdRM4DU6XC5rXV5186qD7lVHT5SMOB3Rx4SsJkAAJlAeBgnRj9raBcvK/4IJ8eXQJ6wUTgKP4Df5F23ClzCSl4jFK6WHy7/6ycyMBEiABEvCPwF45nr+rlNzwF+t5LPv750BaTAIkQAIkQAIkQAIkQAIkQAIkQAIkQAIkQAIkQAIkQAIkQAIkQAIkQAIkQAIkQAIkQAIkQAIkQAIkQAIkQAIkQAIkQAIkQAIkQAIkQAIkQAIkQAIkQAIkQAIkQAIkQAIkQAIkQAIkQAIkQAIkQAIkQAIkQAIkQAIkQAIkQAIkQAIkQAIkQAIkQAIkQAIkQAIkQAIkQAIkQAIkQAIkQAIkQAIkQAIkQAIkQAIkQAIkQAIkQAIkQAIkQAIkQAKlJvD/jNBvCcxW0KUAAAAASUVORK5CYII=;strokeColor=default;align=center;fontFamily=Helvetica;fontSize=12;fontColor=default;fillColor=default;" vertex="1" parent="1">
          <mxGeometry x="-314" y="660" width="318" height="318" as="geometry" />
        </mxCell>
        <mxCell id="HMdKM1Sp7y03wCbhgYr0-9" style="edgeStyle=orthogonalEdgeStyle;rounded=0;orthogonalLoop=1;jettySize=auto;html=1;entryX=0;entryY=0.5;entryDx=0;entryDy=0;strokeWidth=6;exitX=1;exitY=0.5;exitDx=0;exitDy=0;" edge="1" parent="1">
          <mxGeometry relative="1" as="geometry">
            <mxPoint x="-630" y="348.21" as="sourcePoint" />
            <mxPoint x="-411" y="349.21" as="targetPoint" />
          </mxGeometry>
        </mxCell>
        <mxCell id="HMdKM1Sp7y03wCbhgYr0-12" value="&lt;font style=&quot;font-size: 48px;&quot;&gt;YAML Files&lt;/font&gt;" style="text;html=1;align=center;verticalAlign=middle;resizable=0;points=[];autosize=1;strokeColor=none;fillColor=none;fontSize=48;" vertex="1" parent="1">
          <mxGeometry x="-309" y="500" width="260" height="70" as="geometry" />
        </mxCell>
        <mxCell id="HMdKM1Sp7y03wCbhgYr0-13" value="&lt;font style=&quot;font-size: 48px;&quot;&gt;JSON Files&lt;/font&gt;" style="text;html=1;align=center;verticalAlign=middle;resizable=0;points=[];autosize=1;strokeColor=none;fillColor=none;fontSize=48;" vertex="1" parent="1">
          <mxGeometry x="425" y="494" width="270" height="70" as="geometry" />
        </mxCell>
        <mxCell id="HMdKM1Sp7y03wCbhgYr0-14" value="&lt;font style=&quot;font-size: 48px;&quot;&gt;JSON Schema&lt;/font&gt;" style="text;html=1;align=center;verticalAlign=middle;resizable=0;points=[];autosize=1;strokeColor=none;fillColor=none;fontSize=48;" vertex="1" parent="1">
          <mxGeometry x="-341" y="982" width="340" height="70" as="geometry" />
        </mxCell>
        <mxCell id="HMdKM1Sp7y03wCbhgYr0-18" style="edgeStyle=orthogonalEdgeStyle;rounded=0;orthogonalLoop=1;jettySize=auto;html=1;entryX=0;entryY=0.5;entryDx=0;entryDy=0;strokeWidth=6;exitX=1;exitY=0.5;exitDx=0;exitDy=0;fontSize=6;" edge="1" parent="1">
          <mxGeometry relative="1" as="geometry">
            <mxPoint x="80" y="308.26" as="sourcePoint" />
            <mxPoint x="299" y="309.26" as="targetPoint" />
          </mxGeometry>
        </mxCell>
        <mxCell id="HMdKM1Sp7y03wCbhgYr0-20" value="&lt;font style=&quot;font-size: 48px;&quot;&gt;Written by&lt;/font&gt;&lt;div style=&quot;font-size: 48px;&quot;&gt;&lt;font style=&quot;font-size: 48px;&quot;&gt;Contributors&lt;/font&gt;&lt;/div&gt;" style="text;html=1;align=center;verticalAlign=middle;resizable=0;points=[];autosize=1;strokeColor=none;fillColor=none;fontSize=48;" vertex="1" parent="1">
          <mxGeometry x="-670" y="200" width="280" height="130" as="geometry" />
        </mxCell>
        <mxCell id="HMdKM1Sp7y03wCbhgYr0-21" value="&lt;span style=&quot;font-size: 48px;&quot;&gt;Autogenerates&lt;/span&gt;" style="text;html=1;align=center;verticalAlign=middle;resizable=0;points=[];autosize=1;strokeColor=none;fillColor=none;fontSize=48;" vertex="1" parent="1">
          <mxGeometry x="15" y="210" width="340" height="70" as="geometry" />
        </mxCell>
        <mxCell id="HMdKM1Sp7y03wCbhgYr0-22" style="edgeStyle=orthogonalEdgeStyle;rounded=0;orthogonalLoop=1;jettySize=auto;html=1;strokeWidth=6;exitX=1;exitY=0.5;exitDx=0;exitDy=0;" edge="1" parent="1" source="HMdKM1Sp7y03wCbhgYr0-7">
          <mxGeometry relative="1" as="geometry">
            <mxPoint y="1040" as="sourcePoint" />
            <mxPoint x="309" y="400" as="targetPoint" />
            <Array as="points">
              <mxPoint x="90" y="819" />
              <mxPoint x="90" y="400" />
            </Array>
          </mxGeometry>
        </mxCell>
        <mxCell id="HMdKM1Sp7y03wCbhgYr0-23" value="&lt;span style=&quot;font-size: 48px;&quot;&gt;Validates&lt;/span&gt;" style="text;html=1;align=center;verticalAlign=middle;resizable=0;points=[];autosize=1;strokeColor=none;fillColor=none;fontSize=48;" vertex="1" parent="1">
          <mxGeometry x="100" y="430" width="220" height="70" as="geometry" />
        </mxCell>
      </root>
    </mxGraphModel>
  </diagram>
</mxfile>
